<mxfile host="app.diagrams.net" modified="2023-09-08T13:45:50.719Z" agent="Mozilla/5.0 (Windows NT 10.0; Win64; x64) AppleWebKit/537.36 (KHTML, like Gecko) Chrome/116.0.0.0 Safari/537.36" etag="nYSRGSJ8PXZ_fUQyVNYN" version="21.6.7" type="github">
  <diagram name="페이지-1" id="-RQxAZ50jaHfXgSVj_xd">
    <mxGraphModel dx="3154" dy="3158" grid="1" gridSize="10" guides="1" tooltips="1" connect="1" arrows="1" fold="1" page="1" pageScale="1" pageWidth="827" pageHeight="1169" math="0" shadow="0">
      <root>
        <mxCell id="0" />
        <mxCell id="1" parent="0" />
        <mxCell id="l8oODgaaZ8KUfELMcPoU-5" value="" style="rounded=0;whiteSpace=wrap;html=1;fillColor=#f5f5f5;fontColor=#333333;strokeColor=#666666;" vertex="1" parent="1">
          <mxGeometry x="-1000" y="-2000" width="950" height="700" as="geometry" />
        </mxCell>
        <mxCell id="l8oODgaaZ8KUfELMcPoU-28" value="" style="rounded=1;whiteSpace=wrap;html=1;fillColor=none;" vertex="1" parent="1">
          <mxGeometry x="-885.8" y="-1860" width="698" height="430" as="geometry" />
        </mxCell>
        <mxCell id="wSeTpccbzat1GrRgBiBg-109" value="AWS Cloud" style="sketch=0;outlineConnect=0;html=1;whiteSpace=wrap;fontSize=12;fontStyle=0;shape=mxgraph.aws4.group;grIcon=mxgraph.aws4.group_aws_cloud;strokeColor=#d6b656;fillColor=#fff2cc;verticalAlign=top;align=left;spacingLeft=30;dashed=0;opacity=20;" parent="1" vertex="1">
          <mxGeometry x="-1280" y="-1080" width="1660" height="960" as="geometry" />
        </mxCell>
        <mxCell id="e-je_TolLml6S0PwWfPV-6" value="" style="edgeStyle=orthogonalEdgeStyle;rounded=0;orthogonalLoop=1;jettySize=auto;html=1;" parent="1" source="wSeTpccbzat1GrRgBiBg-25" target="wSeTpccbzat1GrRgBiBg-109" edge="1">
          <mxGeometry relative="1" as="geometry" />
        </mxCell>
        <mxCell id="wSeTpccbzat1GrRgBiBg-25" value="" style="sketch=0;outlineConnect=0;fontColor=#232F3E;gradientColor=none;fillColor=#232F3D;strokeColor=none;dashed=0;verticalLabelPosition=bottom;verticalAlign=top;align=center;html=1;fontSize=12;fontStyle=0;aspect=fixed;pointerEvents=1;shape=mxgraph.aws4.users;" parent="1" vertex="1">
          <mxGeometry x="-1440" y="-850" width="78" height="78" as="geometry" />
        </mxCell>
        <mxCell id="wSeTpccbzat1GrRgBiBg-34" value="Region" style="sketch=0;outlineConnect=0;html=1;whiteSpace=wrap;fontSize=12;fontStyle=0;shape=mxgraph.aws4.group;grIcon=mxgraph.aws4.group_region;strokeColor=#9673a6;fillColor=#e1d5e7;verticalAlign=top;align=left;spacingLeft=30;dashed=1;opacity=30;" parent="1" vertex="1">
          <mxGeometry x="-1030" y="-1000" width="1350" height="840" as="geometry" />
        </mxCell>
        <mxCell id="wSeTpccbzat1GrRgBiBg-35" value="VPC" style="sketch=0;outlineConnect=0;html=1;whiteSpace=wrap;fontSize=12;fontStyle=0;shape=mxgraph.aws4.group;grIcon=mxgraph.aws4.group_vpc;strokeColor=#d6b656;fillColor=#fff2cc;verticalAlign=top;align=left;spacingLeft=30;dashed=0;opacity=40;" parent="1" vertex="1">
          <mxGeometry x="-890" y="-950" width="1140" height="730" as="geometry" />
        </mxCell>
        <mxCell id="wSeTpccbzat1GrRgBiBg-37" value="Availability zone" style="sketch=0;outlineConnect=0;html=1;whiteSpace=wrap;fontSize=12;fontStyle=0;shape=mxgraph.aws4.group;grIcon=mxgraph.aws4.group_availability_zone;strokeColor=#82b366;fillColor=#d5e8d4;verticalAlign=top;align=left;spacingLeft=30;dashed=1;opacity=50;" parent="1" vertex="1">
          <mxGeometry x="-780" y="-530" width="950" height="250" as="geometry" />
        </mxCell>
        <mxCell id="wSeTpccbzat1GrRgBiBg-39" value="" style="sketch=0;outlineConnect=0;fontColor=#232F3E;gradientColor=none;fillColor=#2E27AD;strokeColor=none;dashed=0;verticalLabelPosition=bottom;verticalAlign=top;align=center;html=1;fontSize=12;fontStyle=0;aspect=fixed;pointerEvents=1;shape=mxgraph.aws4.rds_mariadb_instance;" parent="1" vertex="1">
          <mxGeometry x="10" y="-810" width="78" height="78" as="geometry" />
        </mxCell>
        <mxCell id="wSeTpccbzat1GrRgBiBg-42" value="&lt;b&gt;Private Subnet&lt;/b&gt;" style="sketch=0;outlineConnect=0;gradientColor=none;html=1;whiteSpace=wrap;fontSize=12;fontStyle=0;shape=mxgraph.aws4.group;grIcon=mxgraph.aws4.group_subnet;strokeColor=#879196;fillColor=none;verticalAlign=top;align=left;spacingLeft=30;fontColor=#879196;dashed=0;" parent="1" vertex="1">
          <mxGeometry x="-227.5" y="-839" width="130" height="130" as="geometry" />
        </mxCell>
        <mxCell id="wSeTpccbzat1GrRgBiBg-43" value="&lt;b&gt;Private Subnet&lt;/b&gt;" style="sketch=0;outlineConnect=0;gradientColor=none;html=1;whiteSpace=wrap;fontSize=12;fontStyle=0;shape=mxgraph.aws4.group;grIcon=mxgraph.aws4.group_subnet;strokeColor=#879196;fillColor=none;verticalAlign=top;align=left;spacingLeft=30;fontColor=#879196;dashed=0;" parent="1" vertex="1">
          <mxGeometry x="-16" y="-838" width="130" height="130" as="geometry" />
        </mxCell>
        <mxCell id="wSeTpccbzat1GrRgBiBg-44" value="&lt;b&gt;Private Subnet&lt;/b&gt;" style="sketch=0;outlineConnect=0;gradientColor=none;html=1;whiteSpace=wrap;fontSize=12;fontStyle=0;shape=mxgraph.aws4.group;grIcon=mxgraph.aws4.group_subnet;strokeColor=#879196;fillColor=none;verticalAlign=top;align=left;spacingLeft=30;fontColor=#879196;dashed=0;" parent="1" vertex="1">
          <mxGeometry x="-227.5" y="-478" width="130" height="130" as="geometry" />
        </mxCell>
        <mxCell id="wSeTpccbzat1GrRgBiBg-46" value="&lt;b&gt;Public Subnet&lt;/b&gt;" style="sketch=0;outlineConnect=0;gradientColor=none;html=1;whiteSpace=wrap;fontSize=12;fontStyle=0;shape=mxgraph.aws4.group;grIcon=mxgraph.aws4.group_subnet;strokeColor=#879196;fillColor=none;verticalAlign=top;align=left;spacingLeft=30;fontColor=#879196;dashed=0;" parent="1" vertex="1">
          <mxGeometry x="-735" y="-479" width="427" height="139" as="geometry" />
        </mxCell>
        <mxCell id="wSeTpccbzat1GrRgBiBg-48" value="" style="sketch=0;outlineConnect=0;fontColor=#232F3E;gradientColor=none;fillColor=#D45B07;strokeColor=none;dashed=0;verticalLabelPosition=bottom;verticalAlign=top;align=center;html=1;fontSize=12;fontStyle=0;aspect=fixed;pointerEvents=1;shape=mxgraph.aws4.instance2;" parent="1" vertex="1">
          <mxGeometry x="-420.5" y="-455.5" width="85" height="85" as="geometry" />
        </mxCell>
        <mxCell id="wSeTpccbzat1GrRgBiBg-49" value="" style="sketch=0;outlineConnect=0;fontColor=#232F3E;gradientColor=none;fillColor=#D45B07;strokeColor=none;dashed=0;verticalLabelPosition=bottom;verticalAlign=top;align=center;html=1;fontSize=12;fontStyle=0;aspect=fixed;pointerEvents=1;shape=mxgraph.aws4.instance2;" parent="1" vertex="1">
          <mxGeometry x="-205" y="-820" width="85" height="85" as="geometry" />
        </mxCell>
        <mxCell id="wSeTpccbzat1GrRgBiBg-50" value="" style="sketch=0;outlineConnect=0;fontColor=#232F3E;gradientColor=none;fillColor=#D45B07;strokeColor=none;dashed=0;verticalLabelPosition=bottom;verticalAlign=top;align=center;html=1;fontSize=12;fontStyle=0;aspect=fixed;pointerEvents=1;shape=mxgraph.aws4.instance2;" parent="1" vertex="1">
          <mxGeometry x="-196" y="-456.5" width="85" height="85" as="geometry" />
        </mxCell>
        <mxCell id="wSeTpccbzat1GrRgBiBg-40" value="" style="sketch=0;outlineConnect=0;fontColor=#232F3E;gradientColor=none;fillColor=#D45B07;strokeColor=none;dashed=0;verticalLabelPosition=bottom;verticalAlign=top;align=center;html=1;fontSize=12;fontStyle=0;aspect=fixed;pointerEvents=1;shape=mxgraph.aws4.instance2;" parent="1" vertex="1">
          <mxGeometry x="-421.5" y="-820" width="85" height="85" as="geometry" />
        </mxCell>
        <mxCell id="wSeTpccbzat1GrRgBiBg-52" value="" style="sketch=0;outlineConnect=0;fontColor=#232F3E;gradientColor=none;fillColor=#D45B07;strokeColor=none;dashed=0;verticalLabelPosition=bottom;verticalAlign=top;align=center;html=1;fontSize=12;fontStyle=0;aspect=fixed;pointerEvents=1;shape=mxgraph.aws4.instance2;" parent="1" vertex="1">
          <mxGeometry x="-722" y="-820" width="85" height="85" as="geometry" />
        </mxCell>
        <mxCell id="wSeTpccbzat1GrRgBiBg-53" value="&lt;b style=&quot;font-size: 16px;&quot;&gt;Bastion&lt;/b&gt;" style="text;html=1;strokeColor=none;fillColor=none;align=center;verticalAlign=middle;whiteSpace=wrap;rounded=0;fontSize=24;" parent="1" vertex="1">
          <mxGeometry x="-709.5" y="-795.5" width="60" height="30" as="geometry" />
        </mxCell>
        <mxCell id="wSeTpccbzat1GrRgBiBg-54" value="&lt;b style=&quot;font-size: 16px;&quot;&gt;Nginx&lt;/b&gt;" style="text;html=1;strokeColor=none;fillColor=none;align=center;verticalAlign=middle;whiteSpace=wrap;rounded=0;fontSize=24;" parent="1" vertex="1">
          <mxGeometry x="-409" y="-795.5" width="60" height="30" as="geometry" />
        </mxCell>
        <mxCell id="wSeTpccbzat1GrRgBiBg-55" value="&lt;b style=&quot;font-size: 16px;&quot;&gt;Nginx&lt;/b&gt;" style="text;html=1;strokeColor=none;fillColor=none;align=center;verticalAlign=middle;whiteSpace=wrap;rounded=0;fontSize=24;" parent="1" vertex="1">
          <mxGeometry x="-408" y="-431" width="60" height="30" as="geometry" />
        </mxCell>
        <mxCell id="wSeTpccbzat1GrRgBiBg-56" value="&lt;b style=&quot;font-size: 16px;&quot;&gt;Tomcat&lt;/b&gt;" style="text;html=1;strokeColor=none;fillColor=none;align=center;verticalAlign=middle;whiteSpace=wrap;rounded=0;fontSize=24;" parent="1" vertex="1">
          <mxGeometry x="-192.5" y="-794" width="60" height="30" as="geometry" />
        </mxCell>
        <mxCell id="wSeTpccbzat1GrRgBiBg-57" value="&lt;b style=&quot;font-size: 16px;&quot;&gt;Tomcat&lt;/b&gt;" style="text;html=1;strokeColor=none;fillColor=none;align=center;verticalAlign=middle;whiteSpace=wrap;rounded=0;fontSize=24;" parent="1" vertex="1">
          <mxGeometry x="-184.5" y="-431" width="60" height="30" as="geometry" />
        </mxCell>
        <mxCell id="wSeTpccbzat1GrRgBiBg-58" value="" style="sketch=0;outlineConnect=0;fontColor=#232F3E;gradientColor=none;fillColor=#4D27AA;strokeColor=none;dashed=0;verticalLabelPosition=bottom;verticalAlign=top;align=center;html=1;fontSize=12;fontStyle=0;aspect=fixed;pointerEvents=1;shape=mxgraph.aws4.internet_gateway;" parent="1" vertex="1">
          <mxGeometry x="-930" y="-629" width="78" height="78" as="geometry" />
        </mxCell>
        <mxCell id="wSeTpccbzat1GrRgBiBg-59" value="&lt;b&gt;&lt;font style=&quot;font-size: 19px;&quot;&gt;ITG&lt;/font&gt;&lt;/b&gt;" style="text;html=1;strokeColor=none;fillColor=none;align=center;verticalAlign=middle;whiteSpace=wrap;rounded=0;" parent="1" vertex="1">
          <mxGeometry x="-921" y="-552" width="60" height="30" as="geometry" />
        </mxCell>
        <mxCell id="wSeTpccbzat1GrRgBiBg-60" value="" style="sketch=0;points=[[0,0,0],[0.25,0,0],[0.5,0,0],[0.75,0,0],[1,0,0],[0,1,0],[0.25,1,0],[0.5,1,0],[0.75,1,0],[1,1,0],[0,0.25,0],[0,0.5,0],[0,0.75,0],[1,0.25,0],[1,0.5,0],[1,0.75,0]];outlineConnect=0;fontColor=#232F3E;gradientColor=#F54749;gradientDirection=north;fillColor=#C7131F;strokeColor=#ffffff;dashed=0;verticalLabelPosition=bottom;verticalAlign=top;align=center;html=1;fontSize=12;fontStyle=0;aspect=fixed;shape=mxgraph.aws4.resourceIcon;resIcon=mxgraph.aws4.network_firewall;" parent="1" vertex="1">
          <mxGeometry x="-1080" y="-628" width="78" height="78" as="geometry" />
        </mxCell>
        <mxCell id="wSeTpccbzat1GrRgBiBg-62" value="" style="sketch=0;points=[[0,0,0],[0.25,0,0],[0.5,0,0],[0.75,0,0],[1,0,0],[0,1,0],[0.25,1,0],[0.5,1,0],[0.75,1,0],[1,1,0],[0,0.25,0],[0,0.5,0],[0,0.75,0],[1,0.25,0],[1,0.5,0],[1,0.75,0]];outlineConnect=0;fontColor=#232F3E;gradientColor=#945DF2;gradientDirection=north;fillColor=#5A30B5;strokeColor=#ffffff;dashed=0;verticalLabelPosition=bottom;verticalAlign=top;align=center;html=1;fontSize=12;fontStyle=0;aspect=fixed;shape=mxgraph.aws4.resourceIcon;resIcon=mxgraph.aws4.route_53;" parent="1" vertex="1">
          <mxGeometry x="-1270" y="-628" width="78" height="78" as="geometry" />
        </mxCell>
        <mxCell id="wSeTpccbzat1GrRgBiBg-65" value="" style="edgeStyle=orthogonalEdgeStyle;html=1;endArrow=block;elbow=vertical;startArrow=block;startFill=1;endFill=1;strokeColor=#545B64;rounded=0;" parent="1" source="wSeTpccbzat1GrRgBiBg-62" target="wSeTpccbzat1GrRgBiBg-60" edge="1">
          <mxGeometry width="100" relative="1" as="geometry">
            <mxPoint x="-1192" y="-589" as="sourcePoint" />
            <mxPoint x="-1092" y="-589" as="targetPoint" />
          </mxGeometry>
        </mxCell>
        <mxCell id="wSeTpccbzat1GrRgBiBg-69" value="" style="edgeStyle=orthogonalEdgeStyle;html=1;endArrow=block;elbow=vertical;startArrow=block;startFill=1;endFill=1;strokeColor=#545B64;rounded=0;" parent="1" source="wSeTpccbzat1GrRgBiBg-60" target="wSeTpccbzat1GrRgBiBg-58" edge="1">
          <mxGeometry width="100" relative="1" as="geometry">
            <mxPoint x="-1002" y="-589" as="sourcePoint" />
            <mxPoint x="-902" y="-589" as="targetPoint" />
          </mxGeometry>
        </mxCell>
        <mxCell id="wSeTpccbzat1GrRgBiBg-82" value="" style="outlineConnect=0;dashed=0;verticalLabelPosition=bottom;verticalAlign=top;align=center;html=1;shape=mxgraph.aws3.application_load_balancer;fillColor=#F58534;gradientColor=none;" parent="1" vertex="1">
          <mxGeometry x="-540" y="-626" width="69" height="72" as="geometry" />
        </mxCell>
        <mxCell id="wSeTpccbzat1GrRgBiBg-84" value="&lt;b&gt;&lt;font style=&quot;font-size: 15px;&quot;&gt;nginxalb&lt;/font&gt;&lt;/b&gt;" style="text;html=1;strokeColor=none;fillColor=none;align=center;verticalAlign=middle;whiteSpace=wrap;rounded=0;" parent="1" vertex="1">
          <mxGeometry x="-534" y="-560" width="60" height="30" as="geometry" />
        </mxCell>
        <mxCell id="wSeTpccbzat1GrRgBiBg-85" value="" style="outlineConnect=0;dashed=0;verticalLabelPosition=bottom;verticalAlign=top;align=center;html=1;shape=mxgraph.aws3.application_load_balancer;fillColor=#F58534;gradientColor=none;" parent="1" vertex="1">
          <mxGeometry x="-309" y="-624" width="69" height="72" as="geometry" />
        </mxCell>
        <mxCell id="wSeTpccbzat1GrRgBiBg-86" value="&lt;b&gt;&lt;font style=&quot;font-size: 15px;&quot;&gt;tomcatalb&lt;/font&gt;&lt;/b&gt;" style="text;html=1;strokeColor=none;fillColor=none;align=center;verticalAlign=middle;whiteSpace=wrap;rounded=0;" parent="1" vertex="1">
          <mxGeometry x="-303" y="-558" width="60" height="30" as="geometry" />
        </mxCell>
        <mxCell id="wSeTpccbzat1GrRgBiBg-87" value="" style="sketch=0;points=[[0,0,0],[0.25,0,0],[0.5,0,0],[0.75,0,0],[1,0,0],[0,1,0],[0.25,1,0],[0.5,1,0],[0.75,1,0],[1,1,0],[0,0.25,0],[0,0.5,0],[0,0.75,0],[1,0.25,0],[1,0.5,0],[1,0.75,0]];outlineConnect=0;fontColor=#232F3E;gradientColor=#F78E04;gradientDirection=north;fillColor=#D05C17;strokeColor=#ffffff;dashed=0;verticalLabelPosition=bottom;verticalAlign=top;align=center;html=1;fontSize=12;fontStyle=0;aspect=fixed;shape=mxgraph.aws4.resourceIcon;resIcon=mxgraph.aws4.auto_scaling2;" parent="1" vertex="1">
          <mxGeometry x="-420" y="-630" width="78" height="78" as="geometry" />
        </mxCell>
        <mxCell id="wSeTpccbzat1GrRgBiBg-88" value="" style="sketch=0;points=[[0,0,0],[0.25,0,0],[0.5,0,0],[0.75,0,0],[1,0,0],[0,1,0],[0.25,1,0],[0.5,1,0],[0.75,1,0],[1,1,0],[0,0.25,0],[0,0.5,0],[0,0.75,0],[1,0.25,0],[1,0.5,0],[1,0.75,0]];outlineConnect=0;fontColor=#232F3E;gradientColor=#F78E04;gradientDirection=north;fillColor=#D05C17;strokeColor=#ffffff;dashed=0;verticalLabelPosition=bottom;verticalAlign=top;align=center;html=1;fontSize=12;fontStyle=0;aspect=fixed;shape=mxgraph.aws4.resourceIcon;resIcon=mxgraph.aws4.auto_scaling2;" parent="1" vertex="1">
          <mxGeometry x="-192.5" y="-630" width="78" height="78" as="geometry" />
        </mxCell>
        <mxCell id="wSeTpccbzat1GrRgBiBg-90" value="" style="endArrow=none;dashed=1;html=1;dashPattern=1 3;strokeWidth=2;rounded=0;" parent="1" target="wSeTpccbzat1GrRgBiBg-87" edge="1">
          <mxGeometry width="50" height="50" relative="1" as="geometry">
            <mxPoint x="-381" y="-750" as="sourcePoint" />
            <mxPoint x="-380.5" y="-639.2893218813452" as="targetPoint" />
          </mxGeometry>
        </mxCell>
        <mxCell id="wSeTpccbzat1GrRgBiBg-91" value="" style="endArrow=none;dashed=1;html=1;dashPattern=1 3;strokeWidth=2;rounded=0;" parent="1" source="wSeTpccbzat1GrRgBiBg-48" target="wSeTpccbzat1GrRgBiBg-87" edge="1">
          <mxGeometry width="50" height="50" relative="1" as="geometry">
            <mxPoint x="-380" y="-480" as="sourcePoint" />
            <mxPoint x="-378" y="-548.7106781186548" as="targetPoint" />
          </mxGeometry>
        </mxCell>
        <mxCell id="wSeTpccbzat1GrRgBiBg-92" value="" style="sketch=0;points=[[0,0,0],[0.25,0,0],[0.5,0,0],[0.75,0,0],[1,0,0],[0,1,0],[0.25,1,0],[0.5,1,0],[0.75,1,0],[1,1,0],[0,0.25,0],[0,0.5,0],[0,0.75,0],[1,0.25,0],[1,0.5,0],[1,0.75,0]];outlineConnect=0;fontColor=#232F3E;gradientColor=#F54749;gradientDirection=north;fillColor=#C7131F;strokeColor=#ffffff;dashed=0;verticalLabelPosition=bottom;verticalAlign=top;align=center;html=1;fontSize=12;fontStyle=0;aspect=fixed;shape=mxgraph.aws4.resourceIcon;resIcon=mxgraph.aws4.certificate_manager_3;" parent="1" vertex="1">
          <mxGeometry x="-744" y="-629" width="78" height="78" as="geometry" />
        </mxCell>
        <mxCell id="wSeTpccbzat1GrRgBiBg-94" value="&lt;b&gt;&lt;font style=&quot;font-size: 15px;&quot;&gt;ACM&lt;/font&gt;&lt;/b&gt;" style="text;html=1;strokeColor=none;fillColor=none;align=center;verticalAlign=middle;whiteSpace=wrap;rounded=0;" parent="1" vertex="1">
          <mxGeometry x="-735" y="-556" width="60" height="30" as="geometry" />
        </mxCell>
        <mxCell id="wSeTpccbzat1GrRgBiBg-95" value="&lt;b&gt;&lt;font style=&quot;font-size: 15px;&quot;&gt;AS&lt;/font&gt;&lt;/b&gt;" style="text;html=1;strokeColor=none;fillColor=none;align=center;verticalAlign=middle;whiteSpace=wrap;rounded=0;" parent="1" vertex="1">
          <mxGeometry x="-410" y="-557" width="60" height="30" as="geometry" />
        </mxCell>
        <mxCell id="wSeTpccbzat1GrRgBiBg-96" value="&lt;b&gt;&lt;font style=&quot;font-size: 15px;&quot;&gt;AS&lt;/font&gt;&lt;/b&gt;" style="text;html=1;strokeColor=none;fillColor=none;align=center;verticalAlign=middle;whiteSpace=wrap;rounded=0;" parent="1" vertex="1">
          <mxGeometry x="-182" y="-557" width="60" height="30" as="geometry" />
        </mxCell>
        <mxCell id="wSeTpccbzat1GrRgBiBg-97" value="" style="endArrow=none;dashed=1;html=1;dashPattern=1 3;strokeWidth=2;rounded=0;entryX=0.5;entryY=0;entryDx=0;entryDy=0;entryPerimeter=0;" parent="1" source="wSeTpccbzat1GrRgBiBg-49" target="wSeTpccbzat1GrRgBiBg-88" edge="1">
          <mxGeometry width="50" height="50" relative="1" as="geometry">
            <mxPoint x="-162.5" y="-659" as="sourcePoint" />
            <mxPoint x="-162.5" y="-638.2893218813452" as="targetPoint" />
          </mxGeometry>
        </mxCell>
        <mxCell id="wSeTpccbzat1GrRgBiBg-98" value="" style="endArrow=none;dashed=1;html=1;dashPattern=1 3;strokeWidth=2;rounded=0;exitX=0.541;exitY=0.076;exitDx=0;exitDy=0;exitPerimeter=0;" parent="1" source="wSeTpccbzat1GrRgBiBg-50" edge="1">
          <mxGeometry width="50" height="50" relative="1" as="geometry">
            <mxPoint x="-153.5" y="-499.71067811865476" as="sourcePoint" />
            <mxPoint x="-153.5" y="-549.7106781186548" as="targetPoint" />
          </mxGeometry>
        </mxCell>
        <mxCell id="wSeTpccbzat1GrRgBiBg-99" value="" style="sketch=0;outlineConnect=0;fontColor=#232F3E;gradientColor=none;fillColor=#4D27AA;strokeColor=none;dashed=0;verticalLabelPosition=bottom;verticalAlign=top;align=center;html=1;fontSize=12;fontStyle=0;aspect=fixed;pointerEvents=1;shape=mxgraph.aws4.nat_gateway;" parent="1" vertex="1">
          <mxGeometry x="-564" y="-818" width="78" height="78" as="geometry" />
        </mxCell>
        <mxCell id="wSeTpccbzat1GrRgBiBg-100" value="&lt;b&gt;&lt;font style=&quot;font-size: 15px;&quot;&gt;NAT&lt;/font&gt;&lt;/b&gt;" style="text;html=1;strokeColor=none;fillColor=none;align=center;verticalAlign=middle;whiteSpace=wrap;rounded=0;" parent="1" vertex="1">
          <mxGeometry x="-554" y="-744" width="60" height="30" as="geometry" />
        </mxCell>
        <mxCell id="wSeTpccbzat1GrRgBiBg-101" value="" style="sketch=0;outlineConnect=0;fontColor=#232F3E;gradientColor=none;fillColor=#4D27AA;strokeColor=none;dashed=0;verticalLabelPosition=bottom;verticalAlign=top;align=center;html=1;fontSize=12;fontStyle=0;aspect=fixed;pointerEvents=1;shape=mxgraph.aws4.nat_gateway;" parent="1" vertex="1">
          <mxGeometry x="-564" y="-458" width="78" height="78" as="geometry" />
        </mxCell>
        <mxCell id="wSeTpccbzat1GrRgBiBg-102" value="&lt;b&gt;&lt;font style=&quot;font-size: 15px;&quot;&gt;NAT&lt;/font&gt;&lt;/b&gt;" style="text;html=1;strokeColor=none;fillColor=none;align=center;verticalAlign=middle;whiteSpace=wrap;rounded=0;" parent="1" vertex="1">
          <mxGeometry x="-553" y="-385" width="60" height="30" as="geometry" />
        </mxCell>
        <mxCell id="wSeTpccbzat1GrRgBiBg-105" value="&lt;b&gt;&lt;font style=&quot;font-size: 19px;&quot;&gt;WAF&lt;/font&gt;&lt;/b&gt;" style="text;html=1;strokeColor=none;fillColor=none;align=center;verticalAlign=middle;whiteSpace=wrap;rounded=0;" parent="1" vertex="1">
          <mxGeometry x="-1069" y="-550" width="60" height="30" as="geometry" />
        </mxCell>
        <mxCell id="wSeTpccbzat1GrRgBiBg-106" value="&lt;b&gt;&lt;font style=&quot;font-size: 19px;&quot;&gt;Route 53&lt;/font&gt;&lt;/b&gt;" style="text;html=1;strokeColor=none;fillColor=none;align=center;verticalAlign=middle;whiteSpace=wrap;rounded=0;" parent="1" vertex="1">
          <mxGeometry x="-1261" y="-543" width="60" height="30" as="geometry" />
        </mxCell>
        <mxCell id="wSeTpccbzat1GrRgBiBg-107" value="&lt;b&gt;&lt;font style=&quot;font-size: 19px;&quot;&gt;Users&lt;/font&gt;&lt;/b&gt;" style="text;html=1;strokeColor=none;fillColor=none;align=center;verticalAlign=middle;whiteSpace=wrap;rounded=0;" parent="1" vertex="1">
          <mxGeometry x="-1431" y="-880" width="60" height="30" as="geometry" />
        </mxCell>
        <mxCell id="wSeTpccbzat1GrRgBiBg-108" value="&lt;b&gt;Private Subnet&lt;/b&gt;" style="sketch=0;outlineConnect=0;gradientColor=none;html=1;whiteSpace=wrap;fontSize=12;fontStyle=0;shape=mxgraph.aws4.group;grIcon=mxgraph.aws4.group_subnet;strokeColor=#879196;fillColor=none;verticalAlign=top;align=left;spacingLeft=30;fontColor=#879196;dashed=0;" parent="1" vertex="1">
          <mxGeometry x="-16" y="-480" width="130" height="130" as="geometry" />
        </mxCell>
        <mxCell id="wSeTpccbzat1GrRgBiBg-113" value="" style="edgeStyle=orthogonalEdgeStyle;html=1;endArrow=open;elbow=vertical;startArrow=none;endFill=0;strokeColor=#545B64;rounded=0;" parent="1" source="wSeTpccbzat1GrRgBiBg-85" target="wSeTpccbzat1GrRgBiBg-82" edge="1">
          <mxGeometry width="100" relative="1" as="geometry">
            <mxPoint x="-409" y="-588" as="sourcePoint" />
            <mxPoint x="-409" y="-588" as="targetPoint" />
          </mxGeometry>
        </mxCell>
        <mxCell id="wSeTpccbzat1GrRgBiBg-118" value="" style="edgeStyle=orthogonalEdgeStyle;html=1;endArrow=block;elbow=vertical;startArrow=block;startFill=1;endFill=1;strokeColor=#545B64;rounded=0;" parent="1" source="wSeTpccbzat1GrRgBiBg-58" target="wSeTpccbzat1GrRgBiBg-92" edge="1">
          <mxGeometry width="100" relative="1" as="geometry">
            <mxPoint x="-852" y="-590" as="sourcePoint" />
            <mxPoint x="-752" y="-590" as="targetPoint" />
          </mxGeometry>
        </mxCell>
        <mxCell id="wSeTpccbzat1GrRgBiBg-120" value="" style="edgeStyle=orthogonalEdgeStyle;html=1;endArrow=block;elbow=vertical;startArrow=block;startFill=1;endFill=1;strokeColor=#545B64;rounded=0;" parent="1" source="wSeTpccbzat1GrRgBiBg-92" target="wSeTpccbzat1GrRgBiBg-82" edge="1">
          <mxGeometry width="100" relative="1" as="geometry">
            <mxPoint x="-666" y="-590" as="sourcePoint" />
            <mxPoint x="-566" y="-590" as="targetPoint" />
          </mxGeometry>
        </mxCell>
        <mxCell id="wSeTpccbzat1GrRgBiBg-122" value="" style="endArrow=none;html=1;rounded=0;" parent="1" source="wSeTpccbzat1GrRgBiBg-85" edge="1">
          <mxGeometry width="50" height="50" relative="1" as="geometry">
            <mxPoint x="-240" y="-538" as="sourcePoint" />
            <mxPoint x="-190" y="-588" as="targetPoint" />
          </mxGeometry>
        </mxCell>
        <mxCell id="wSeTpccbzat1GrRgBiBg-123" value="" style="curved=1;endArrow=classic;html=1;rounded=0;" parent="1" target="wSeTpccbzat1GrRgBiBg-99" edge="1">
          <mxGeometry width="50" height="50" relative="1" as="geometry">
            <mxPoint x="-160" y="-810" as="sourcePoint" />
            <mxPoint x="-110" y="-860" as="targetPoint" />
            <Array as="points">
              <mxPoint x="-110" y="-810" />
              <mxPoint x="-160" y="-860" />
              <mxPoint x="-330" y="-870" />
            </Array>
          </mxGeometry>
        </mxCell>
        <mxCell id="wSeTpccbzat1GrRgBiBg-125" value="" style="curved=1;endArrow=classic;html=1;rounded=0;" parent="1" target="wSeTpccbzat1GrRgBiBg-101" edge="1">
          <mxGeometry width="50" height="50" relative="1" as="geometry">
            <mxPoint x="-130" y="-380" as="sourcePoint" />
            <mxPoint x="-80" y="-430" as="targetPoint" />
            <Array as="points">
              <mxPoint x="-120" y="-330" />
              <mxPoint x="-150" y="-310" />
              <mxPoint x="-360" y="-300" />
            </Array>
          </mxGeometry>
        </mxCell>
        <mxCell id="wSeTpccbzat1GrRgBiBg-128" value="" style="curved=1;endArrow=classic;html=1;rounded=0;" parent="1" source="wSeTpccbzat1GrRgBiBg-53" target="wSeTpccbzat1GrRgBiBg-58" edge="1">
          <mxGeometry width="50" height="50" relative="1" as="geometry">
            <mxPoint x="-780.2106781186548" y="-730.5" as="sourcePoint" />
            <mxPoint x="-780.2106781186548" y="-780.5" as="targetPoint" />
          </mxGeometry>
        </mxCell>
        <mxCell id="wSeTpccbzat1GrRgBiBg-131" value="" style="curved=1;endArrow=classic;html=1;rounded=0;entryX=0.145;entryY=0.145;entryDx=0;entryDy=0;entryPerimeter=0;" parent="1" source="wSeTpccbzat1GrRgBiBg-52" target="wSeTpccbzat1GrRgBiBg-82" edge="1">
          <mxGeometry width="50" height="50" relative="1" as="geometry">
            <mxPoint x="-679.5" y="-685" as="sourcePoint" />
            <mxPoint x="-679.5" y="-664.2893218813452" as="targetPoint" />
          </mxGeometry>
        </mxCell>
        <mxCell id="wSeTpccbzat1GrRgBiBg-132" value="" style="curved=1;endArrow=classic;html=1;rounded=0;entryX=0.5;entryY=0;entryDx=0;entryDy=0;" parent="1" source="wSeTpccbzat1GrRgBiBg-101" target="wSeTpccbzat1GrRgBiBg-84" edge="1">
          <mxGeometry width="50" height="50" relative="1" as="geometry">
            <mxPoint x="-525" y="-478.71067811865476" as="sourcePoint" />
            <mxPoint x="-525" y="-528.7106781186548" as="targetPoint" />
          </mxGeometry>
        </mxCell>
        <mxCell id="wSeTpccbzat1GrRgBiBg-133" value="" style="curved=1;endArrow=classic;html=1;rounded=0;" parent="1" source="wSeTpccbzat1GrRgBiBg-82" target="wSeTpccbzat1GrRgBiBg-99" edge="1">
          <mxGeometry width="50" height="50" relative="1" as="geometry">
            <mxPoint x="-505.5" y="-646.7106781186548" as="sourcePoint" />
            <mxPoint x="-505.5" y="-696.7106781186548" as="targetPoint" />
          </mxGeometry>
        </mxCell>
        <mxCell id="wSeTpccbzat1GrRgBiBg-134" value="" style="curved=1;endArrow=classic;html=1;rounded=0;" parent="1" source="wSeTpccbzat1GrRgBiBg-99" target="wSeTpccbzat1GrRgBiBg-52" edge="1">
          <mxGeometry width="50" height="50" relative="1" as="geometry">
            <mxPoint x="-634.7106781186548" y="-729" as="sourcePoint" />
            <mxPoint x="-650" y="-780" as="targetPoint" />
          </mxGeometry>
        </mxCell>
        <mxCell id="wSeTpccbzat1GrRgBiBg-135" value="" style="edgeStyle=orthogonalEdgeStyle;html=1;endArrow=none;elbow=vertical;startArrow=block;startFill=1;strokeColor=#545B64;rounded=0;" parent="1" edge="1">
          <mxGeometry width="100" relative="1" as="geometry">
            <mxPoint x="-100" y="-770" as="sourcePoint" />
            <mxPoint x="10" y="-770" as="targetPoint" />
          </mxGeometry>
        </mxCell>
        <mxCell id="wSeTpccbzat1GrRgBiBg-145" value="&lt;b&gt;EFS&lt;/b&gt;" style="sketch=0;points=[[0,0,0],[0.25,0,0],[0.5,0,0],[0.75,0,0],[1,0,0],[0,1,0],[0.25,1,0],[0.5,1,0],[0.75,1,0],[1,1,0],[0,0.25,0],[0,0.5,0],[0,0.75,0],[1,0.25,0],[1,0.5,0],[1,0.75,0]];outlineConnect=0;fontColor=#232F3E;gradientColor=#60A337;gradientDirection=north;fillColor=#277116;strokeColor=#ffffff;dashed=0;verticalLabelPosition=bottom;verticalAlign=top;align=center;html=1;fontSize=12;fontStyle=0;aspect=fixed;shape=mxgraph.aws4.resourceIcon;resIcon=mxgraph.aws4.efs_standard;" parent="1" vertex="1">
          <mxGeometry x="-421" y="-765.5" width="32" height="32" as="geometry" />
        </mxCell>
        <mxCell id="wSeTpccbzat1GrRgBiBg-140" value="" style="curved=1;endArrow=classic;html=1;rounded=0;entryX=1;entryY=0.25;entryDx=0;entryDy=0;" parent="1" source="wSeTpccbzat1GrRgBiBg-43" edge="1">
          <mxGeometry width="50" height="50" relative="1" as="geometry">
            <mxPoint x="49" y="-658" as="sourcePoint" />
            <mxPoint x="-97" y="-429" as="targetPoint" />
            <Array as="points">
              <mxPoint x="30" y="-530" />
            </Array>
          </mxGeometry>
        </mxCell>
        <mxCell id="wSeTpccbzat1GrRgBiBg-147" value="&lt;b&gt;EFS&lt;/b&gt;" style="sketch=0;points=[[0,0,0],[0.25,0,0],[0.5,0,0],[0.75,0,0],[1,0,0],[0,1,0],[0.25,1,0],[0.5,1,0],[0.75,1,0],[1,1,0],[0,0.25,0],[0,0.5,0],[0,0.75,0],[1,0.25,0],[1,0.5,0],[1,0.75,0]];outlineConnect=0;fontColor=#232F3E;gradientColor=#60A337;gradientDirection=north;fillColor=#277116;strokeColor=#ffffff;dashed=0;verticalLabelPosition=bottom;verticalAlign=top;align=center;html=1;fontSize=12;fontStyle=0;aspect=fixed;shape=mxgraph.aws4.resourceIcon;resIcon=mxgraph.aws4.efs_standard;" parent="1" vertex="1">
          <mxGeometry x="-420.5" y="-400" width="32" height="32" as="geometry" />
        </mxCell>
        <mxCell id="e-je_TolLml6S0PwWfPV-1" value="&lt;font style=&quot;font-size: 18px;&quot;&gt;S3&lt;/font&gt;" style="sketch=0;points=[[0,0,0],[0.25,0,0],[0.5,0,0],[0.75,0,0],[1,0,0],[0,1,0],[0.25,1,0],[0.5,1,0],[0.75,1,0],[1,1,0],[0,0.25,0],[0,0.5,0],[0,0.75,0],[1,0.25,0],[1,0.5,0],[1,0.75,0]];outlineConnect=0;fontColor=#232F3E;gradientColor=#60A337;gradientDirection=north;fillColor=#277116;strokeColor=#ffffff;dashed=0;verticalLabelPosition=bottom;verticalAlign=top;align=center;html=1;fontSize=14;fontStyle=1;aspect=fixed;shape=mxgraph.aws4.resourceIcon;resIcon=mxgraph.aws4.s3;" parent="1" vertex="1">
          <mxGeometry x="250" y="-1000" width="70" height="70" as="geometry" />
        </mxCell>
        <mxCell id="e-je_TolLml6S0PwWfPV-2" value="&lt;b&gt;&lt;font style=&quot;font-size: 18px;&quot;&gt;CloudWatch&lt;/font&gt;&lt;/b&gt;" style="sketch=0;points=[[0,0,0],[0.25,0,0],[0.5,0,0],[0.75,0,0],[1,0,0],[0,1,0],[0.25,1,0],[0.5,1,0],[0.75,1,0],[1,1,0],[0,0.25,0],[0,0.5,0],[0,0.75,0],[1,0.25,0],[1,0.5,0],[1,0.75,0]];points=[[0,0,0],[0.25,0,0],[0.5,0,0],[0.75,0,0],[1,0,0],[0,1,0],[0.25,1,0],[0.5,1,0],[0.75,1,0],[1,1,0],[0,0.25,0],[0,0.5,0],[0,0.75,0],[1,0.25,0],[1,0.5,0],[1,0.75,0]];outlineConnect=0;fontColor=#232F3E;gradientColor=#F34482;gradientDirection=north;fillColor=#BC1356;strokeColor=#ffffff;dashed=0;verticalLabelPosition=bottom;verticalAlign=top;align=center;html=1;fontSize=12;fontStyle=0;aspect=fixed;shape=mxgraph.aws4.resourceIcon;resIcon=mxgraph.aws4.cloudwatch_2;" parent="1" vertex="1">
          <mxGeometry x="-1140" y="-1020" width="78" height="78" as="geometry" />
        </mxCell>
        <mxCell id="e-je_TolLml6S0PwWfPV-4" value="&lt;b&gt;&lt;font style=&quot;font-size: 18px;&quot;&gt;IAM&lt;/font&gt;&lt;/b&gt;" style="sketch=0;points=[[0,0,0],[0.25,0,0],[0.5,0,0],[0.75,0,0],[1,0,0],[0,1,0],[0.25,1,0],[0.5,1,0],[0.75,1,0],[1,1,0],[0,0.25,0],[0,0.5,0],[0,0.75,0],[1,0.25,0],[1,0.5,0],[1,0.75,0]];outlineConnect=0;fontColor=#232F3E;gradientColor=#F54749;gradientDirection=north;fillColor=#C7131F;strokeColor=#ffffff;dashed=0;verticalLabelPosition=bottom;verticalAlign=top;align=center;html=1;fontSize=12;fontStyle=0;aspect=fixed;shape=mxgraph.aws4.resourceIcon;resIcon=mxgraph.aws4.identity_and_access_management;" parent="1" vertex="1">
          <mxGeometry x="330" y="-1080" width="68" height="68" as="geometry" />
        </mxCell>
        <mxCell id="e-je_TolLml6S0PwWfPV-5" value="&lt;b&gt;&lt;font style=&quot;font-size: 18px;&quot;&gt;CloudFront&lt;/font&gt;&lt;/b&gt;" style="sketch=0;points=[[0,0,0],[0.25,0,0],[0.5,0,0],[0.75,0,0],[1,0,0],[0,1,0],[0.25,1,0],[0.5,1,0],[0.75,1,0],[1,1,0],[0,0.25,0],[0,0.5,0],[0,0.75,0],[1,0.25,0],[1,0.5,0],[1,0.75,0]];outlineConnect=0;fontColor=#232F3E;gradientColor=#945DF2;gradientDirection=north;fillColor=#5A30B5;strokeColor=#ffffff;dashed=0;verticalLabelPosition=bottom;verticalAlign=top;align=center;html=1;fontSize=12;fontStyle=0;aspect=fixed;shape=mxgraph.aws4.resourceIcon;resIcon=mxgraph.aws4.cloudfront;" parent="1" vertex="1">
          <mxGeometry x="-1270" y="-1020" width="78" height="78" as="geometry" />
        </mxCell>
        <mxCell id="e-je_TolLml6S0PwWfPV-7" value="" style="endArrow=none;dashed=1;html=1;rounded=0;entryX=0.5;entryY=0;entryDx=0;entryDy=0;entryPerimeter=0;" parent="1" source="e-je_TolLml6S0PwWfPV-5" target="wSeTpccbzat1GrRgBiBg-62" edge="1">
          <mxGeometry width="50" height="50" relative="1" as="geometry">
            <mxPoint x="-1222" y="-892" as="sourcePoint" />
            <mxPoint x="-1222" y="-630" as="targetPoint" />
          </mxGeometry>
        </mxCell>
        <mxCell id="l8oODgaaZ8KUfELMcPoU-7" value="Availability zone" style="sketch=0;outlineConnect=0;html=1;whiteSpace=wrap;fontSize=12;fontStyle=0;shape=mxgraph.aws4.group;grIcon=mxgraph.aws4.group_availability_zone;strokeColor=#6c8ebf;fillColor=#dae8fc;verticalAlign=top;align=left;spacingLeft=30;dashed=1;opacity=50;" vertex="1" parent="1">
          <mxGeometry x="-780" y="-900" width="950" height="250" as="geometry" />
        </mxCell>
        <mxCell id="l8oODgaaZ8KUfELMcPoU-8" value="&lt;b&gt;Public Subnet&lt;/b&gt;" style="sketch=0;outlineConnect=0;gradientColor=none;html=1;whiteSpace=wrap;fontSize=12;fontStyle=0;shape=mxgraph.aws4.group;grIcon=mxgraph.aws4.group_subnet;strokeColor=#879196;fillColor=none;verticalAlign=top;align=left;spacingLeft=30;fontColor=#879196;dashed=0;" vertex="1" parent="1">
          <mxGeometry x="-748" y="-840" width="428" height="130" as="geometry" />
        </mxCell>
        <mxCell id="l8oODgaaZ8KUfELMcPoU-9" value="Auto Scaling Group" style="sketch=0;outlineConnect=0;html=1;whiteSpace=wrap;fontSize=12;fontStyle=0;shape=mxgraph.aws4.groupCenter;grIcon=mxgraph.aws4.group_auto_scaling_group;grStroke=0;verticalAlign=top;align=center;dashed=0;spacingTop=25;opacity=20;fillColor=#f8cecc;strokeColor=#b85450;" vertex="1" parent="1">
          <mxGeometry x="-471" y="-894" width="164" height="604" as="geometry" />
        </mxCell>
        <mxCell id="l8oODgaaZ8KUfELMcPoU-10" value="Auto Scaling Group" style="sketch=0;outlineConnect=0;html=1;whiteSpace=wrap;fontSize=12;fontStyle=0;shape=mxgraph.aws4.groupCenter;grIcon=mxgraph.aws4.group_auto_scaling_group;grStroke=0;verticalAlign=top;align=center;spacingTop=25;opacity=25;fillColor=#f8cecc;strokeColor=#000000;perimeterSpacing=14;" vertex="1" parent="1">
          <mxGeometry x="-250.5" y="-894" width="180" height="604" as="geometry" />
        </mxCell>
        <mxCell id="l8oODgaaZ8KUfELMcPoU-13" value="&lt;font style=&quot;font-size: 10px;&quot;&gt;Nginx&lt;/font&gt;" style="sketch=0;html=1;dashed=0;whitespace=wrap;fillColor=#2875E2;strokeColor=#ffffff;points=[[0.005,0.63,0],[0.1,0.2,0],[0.9,0.2,0],[0.5,0,0],[0.995,0.63,0],[0.72,0.99,0],[0.5,1,0],[0.28,0.99,0]];verticalLabelPosition=bottom;align=center;verticalAlign=top;shape=mxgraph.kubernetes.icon;prIcon=pod;labelBackgroundColor=#FFFFFF;" vertex="1" parent="1">
          <mxGeometry x="-675" y="-1740" width="83" height="70" as="geometry" />
        </mxCell>
        <mxCell id="l8oODgaaZ8KUfELMcPoU-16" value="&lt;font style=&quot;font-size: 10px;&quot;&gt;Tomcat&lt;/font&gt;" style="sketch=0;html=1;dashed=0;whitespace=wrap;fillColor=#2875E2;strokeColor=#ffffff;points=[[0.005,0.63,0],[0.1,0.2,0],[0.9,0.2,0],[0.5,0,0],[0.995,0.63,0],[0.72,0.99,0],[0.5,1,0],[0.28,0.99,0]];verticalLabelPosition=bottom;align=center;verticalAlign=top;shape=mxgraph.kubernetes.icon;prIcon=pod;labelBackgroundColor=#FFFFFF;" vertex="1" parent="1">
          <mxGeometry x="-485" y="-1740" width="83" height="70" as="geometry" />
        </mxCell>
        <mxCell id="l8oODgaaZ8KUfELMcPoU-17" value="&lt;span style=&quot;background-color: rgb(255, 255, 255);&quot;&gt;&lt;font style=&quot;font-size: 10px;&quot;&gt;Amazon RDS&lt;/font&gt;&lt;/span&gt;" style="sketch=0;outlineConnect=0;fontColor=#232F3E;gradientColor=none;fillColor=#2E27AD;strokeColor=none;dashed=0;verticalLabelPosition=bottom;verticalAlign=top;align=center;html=1;fontSize=12;fontStyle=0;aspect=fixed;pointerEvents=1;shape=mxgraph.aws4.rds_mariadb_instance;" vertex="1" parent="1">
          <mxGeometry x="-292" y="-1740" width="78" height="78" as="geometry" />
        </mxCell>
        <mxCell id="l8oODgaaZ8KUfELMcPoU-18" value="Ingress load balancing" style="sketch=0;outlineConnect=0;fontColor=#232F3E;gradientColor=none;strokeColor=#ffffff;fillColor=#232F3E;dashed=0;verticalLabelPosition=middle;verticalAlign=bottom;align=center;html=1;whiteSpace=wrap;fontSize=10;fontStyle=1;spacing=3;shape=mxgraph.aws4.productIcon;prIcon=mxgraph.aws4.elastic_load_balancing;labelBackgroundColor=default;" vertex="1" parent="1">
          <mxGeometry x="-861" y="-1744" width="80" height="110" as="geometry" />
        </mxCell>
        <mxCell id="l8oODgaaZ8KUfELMcPoU-21" value="Amazon EFS" style="shape=image;verticalLabelPosition=bottom;labelBackgroundColor=default;verticalAlign=top;aspect=fixed;imageAspect=0;image=data:image/png,iVBORw0KGgoAAAANSUhEUgAAAXQAAAFyCAYAAADlOiFOAAAAAXNSR0IArs4c6QAAAARnQU1BAACxjwv8YQUAAAAJcEhZcwAADsMAAA7DAcdvqGQAAP+lSURBVHhe7P0HkyRHliYIfs6DR2REcoLkBJxzoECKdXX3dM/0kN3ZnZERudmVvbm9k/0DJyt7snJsf8DJnpzILRsZ3jekp7uLdVcBVeAocJJAJpCck8jgzv2+76mpu7m7uYdFhEcy+Of+TM3UlOvTp0/V1NQSP/wfDtZgSAS0SsT0nkhEOWr1rCQFyeoRouNdPWKFRycJd6gjwWwlIvLXGp6/khlVGrW6c500+xWS7VZtMCeMN4bTW4a49dbdXVCCdNKoj6hS9aCrRDI4v33QykuC7Hze45ZVXNSLSUzbVlbOzsdoTjxkyfJr3I2GOet1mnvCLysEw3LB9TYv0fAFHS7wht3tx7V99NFHH32sCn2B3kcfffRxl4ACXcOEmzFU6ONmwWozPCLrowM877fSnYWoQfjNQaeyuvPK8G5BSKD3K+GOBVuyzc0H1BfmcRDm+yi6/VDTryYKLAg7NTueBeZqaPVgWdkDnRBZcDrv42ajd1Mu/fq7ZegX/XcNYQFMgRxcr0UsrxyB8I6g5R6G9rF+iCXQxSjt1PxbG9pD72Ml6JdfH7cQlN9NnNeX57cMywr0SNFgY3uZIVqzEPHssNZwvmtQXUSVWb8c+1h/+BarWRdPQp/7bg1CAj1cI65WwpUSrrB6JTaR89MZctVqhukuRFRW66cqr87k7zfcNaPdJhyJj4hmF+Kxbi5Hdz5YYp63OzFxH02wIqkzWv1kWcQtyn6xC74U4pLgzXYkfvg/HHZ3jdkFmtT4Aks7Cu62v46u3M5V3ginsaBfdiJ/3ez7Vr1w0FMwytaXQew0VIx2PzivG3pRIXCj64bIDcEchgJquR0LikcUXHZFXHc9Ru/qzRVQc3i0C11aDluii7K7HdBaLi6dq6+j7uUcxVxBedpxdTC/a0hzFLrmIyquXsSvMFxm7HJl8GUbVcYrgfPfMuXiEtQatBfmptiI7KqZhLAC2HbTEGXpz6Pu3eGIyJqVT3Cp8m4vUyvsoMydnUNgUUfjTvh0RQgqy8Xbme4OqPzCFCCU0bsnr71Ga9kFxP9aysz7DYp/zXTnohepd3XSdQ7dCxs7D1FjbVzdxsGFaRT2uzxCYRhawu2jO+yZRoj66OMmos9xtw/ir3KpC+eg+gLBbUQ7cxOilWPtIXw3EVFefaHex81CIAO8Amfk7vRxC5Cs18KK4IWIp15jpenpY33r426F+CxMxKraw3cUXnq3Uh+3DNTQPTN3Z+J4rlaLcOjrE0MffTQjis9C/NcX6jHhy6yV+rgViDXlYlj3nrfPFH3cbHTiOW/20Rmt5RamPm4V4gv0PtYB7CX7w9TbGvZ0yNdRmG4zWJK0Ymk11OPfnYZwtd55qW9GX6DfQrAt1RvUHc9JdzG8oPK/2xPhFK7sZ39lq0cknr5j4BphE91BqW9Du0Cvj5iUueDUwBu6Dh4aNa2Us7vN7z7W0XTRDRZ4QII3v6Ng9ptKIFy4scs0JiKYOkw81s3l6O5AkJO7J0N9rDeMV3wrWAkJvWvQie//P4M3RdtAa4uHhyA+57D+6osdHaIT1GzbIZpI6M2r6DBbEdddr9GLeOth0LD31dy/Dm/XKLtwGTbswn4caNPLh3pMp9IaK8S47nqM3vMLy5faSqMOuiOuu/WD6ig4XSFc2ntZb7VYn0CMCwsqRubkYsXtMm6+l3O30njrWIlcXB5JN+iK+hHi6cD08NnSsUFi/HZyHj2tBKvxcyeiPY9NOXdF3RnL3e8VQpp6N7p7EOSGxp2Tr7urBsK4I3IWtJGVk/z2jvpz6LcDVBne9Od93CZgR8Y6CdNtW0c+bSskm/Mm1R+SrpYsQAde+oNd37awdLtU3gGpXRZ9gX6bwDeKPm4zWCvnIUS3ay05kXrrfvo3YDYtdrcp7pD6jYNYAt2P7NdnhO8mbaLpOwrxlTNCaGUzlo9ZuQmutnILjD766OO7g1Vp6OsjK1oE0ncATiEItJsA9WuZEdSMRpm1PsHoo48+vnuILdDDSxR7D4YqWeXpuyaQLM8h8NqsAtNTH33c1rBm2+fUW4n+HHofffSxBoRVDi/M+0L9VqEv0PvoY8WgwArLL8JOvV0U3ZVozdjdk9k7NSddBXpkpuqWGl/1goiOJecj60SCN+92dCi7mwnN4XchHuvmcnT7o0sqecueadiJu9ah2+/ug8+TL4Bbn8eepSLE03WovrvQ7YLEK/+Pgx1TYyIjzptUdGCuViNjomK3cHRjuYJirDHf0FrxG2TLYN3D42Vrmeq04a57+Zir5Yqv12DalL5QkjsjrruYiFsf8dz5RtqhABlEPfV1wyxXhLhpvhlYPi2dmKlh7+reheNDM/Mm5dPHtebYosJYJtzbpS6X1dC92Y3cITBXSmtCTwK5g3F7MFEdEoLSWHTahe54MBPKpeU0yJRdBdpaFJm7OxY+8UFmm6gVnezXHz5Wn4LVEiusUW8eIbs6BbeEut9bjP4ceh99rAatLdhfR9FdjZbM1nWMOzfjPjcrAgW86Fbnui/Q7zAEfBMw3a1noD6+w2hstRoIcseVjvq4FegL9DsIrqkEP2kDQdtpf1PUUx993Ex4nuvz3q1CX6DfsXBC24S5hHoTmZTvo4/1RfBthDoZvNnHrUBfoN9paJbcRpLdYeo3qj5uDbxg99THzUZPBHpDkPTRM/gC9YUbUIQ856GVdOgjCk2rFDqSuTT364p6fdnVXQGWnh097EwFula6g6DUhulmYlmBHs3wzcRD4LqPXiKyrCPQ5i6w72O1uDklqJq6m2qrwYOBRQBdrpXuGCjzLXQz03+XTLmoyLqR4M3vBm5pbiOYOkw81s3l6NYhzpSBdxOeZoggP798+2RuhQjS35qvLrijsncXIfHy//1A17KP+waUe0usGat+e8q89ZLrmbYV5ONWoC1eXka9m2ZiMFwsEe505b7p2Fx+typvbWA6lJZYqYnrLibil0E83ltRmWqZXwiWsw7eu927PeDz0siTLwtXY6HzHuTjO/eN0lWipxq6qtbT7YXbM1Vd0Sm5rfYd3N3WuQ1p6t3o1sKac48owO2TuR4hOiPhbDoXUWWyEuotolN9d2B5gR40vkjqY52hMm6lKLTec9edXH+X0fSsoQutOxiF1ZKrqrsDHfIRVb6xKBQgL++MwrJ0u1TeitQu/1C0C7kCdvCV0EfvoOJspSg07jUc2DUPHbz0cTsgqLi7pY6Uk1Y5YHar/OnfgNm02N2mCOrV081M8ro9FFUmbmZG+uijj5uJqKkRT33cKqxJoJvQVg+knihA/TowW6mP9YOKt62cg+tO1Ecfq0eUMPfUx63Aumro3vTURx999NHH+mHdBHoftx7hzrTfofbRx92PvkC/C2ECnKPeMPVHwbczWGMtva6derso6uOOws2qtu+YQA+3iCgSvHkHo4PwbsuZd+cFvqebBc3hdyEe6+ZydPujSyp5y55p2Im71qHbr4/1R70q1ooQT9eh+u5Cq8V3RqBHFVo0xXN7R4LCuklzp1XdDNHNEOpRZRpJzvGyxONtDZfMlrx58qmXm+CnfzdEhdNHfESVXyvx0Ga3KgriFKLsotDkP4Z7j/6USxNUbHGL7s6Cz1mYbnuQkUWt6W6lOx7MhHJpOQ0yZVfhBt1C5q6PdYUv4qBKVk2ssEa9eYTs2ihw0gTax0FfoPfRx+2AeusP4K+jqI87CiuutpjCOwo3XaD7zIWpj97DyrZleiUK4Xro5KaPPvq4M3BTBboJjfDQQj2RTHe7gb5k6T0i5sWj6sPVibvfRx993Fm4PaZcWoVKX6LcUlgNtNRJH330cfvj5gt0CYcQOQEuIdIgd+ijCdSwV7w3cxxE1Ee//L+bWAfuug0h5r57Gfy2nEOXiJdc6aOHYHlakfpCD6jl0hBl10c0wqOYzmQuzf26YpWVpu9utJLAlKOWqNpZ2P7OgBLrE6yHSL678vYxM6PKi0O3CdZVoEcxdxTa3Nw+5XN7QNq5fmtVoVS+Lb8ouDpokF33sQbcnPLrVqfLQaxlQjs4t9AozF14jTDXyoI3F0G6TZh7Udecn+XgXS9Htwtujzn0jvDstUaqpSiUMqhVs6jyXDpHlfZV6DxNSppdo4Jaf+F7YUosQ1F+2n+CGlPSSKkpI0UzXU0gU0nxPMUbzEOC1RVLqgduwstczC4GBW7D+fDXTe56QjHR0sG0Eo91czm6dYiTX+8mXEYRZHVE9Cxzql3XIsSDiRr5jA1CHXk1UeF910LIhbxHxSKgJv7qRuG0k8K81U5JI4kmdx6yY7pqlgrdp6l2EVBNRDvvVv48TBmqX4db+t2HxEv/t/1tObOstwiOKLsworS4qDnfuO5k12TLC7Npd7osatU0KYNymXGnikikSwzHCXkxCUC7BO3EBhKaTfARNiLWWaQ7y5ru8sScy8Ln15vtSJLp00xHSkIpUabfEu3SyNQGyH9plLJMIakmYV9lw4sow1Y0xFsDbeXM275D8bC8ucSHQBv5bbGOqrd4YDlbtM1xrxrilVZ+6YS47mIifhnEy+uKyrRlDsRy1sF7t3tOiagEwUnxSaOcLKOUKFBWVpGtJJGlwEwmyIuUhxXyq9pxU+xB2N4unA+T6S3oXBqufnS0OvVEu2Rw7kCTgfh06Cizam2Dop0dUZIjjKSEuwl9ume7qiWLgV/fMXRHOB/dEMedXPQyvCjc1gI9DF2tNpO1WhalIjXdZA6JTIECvYhUKodSgZVK5k2YQKc9GSHRVsk+zkbcYi+XlnB6eO4511qGz6c/DyjsJUCqmkSGlOLtWpJMlygiWUkjXR5garJYGqggT6qRSRNVMiobYEQxNqGn9cFLa1Iha52utj4E1yktk4kVwNKyTHrsLt2sPtXtWEsZRCFeeL7cQuVHb611FEa3e35UmFSdsK2ovZSTFRSTeVQp2HPlNCnDOqNiFIxoFVZU7bkmoPbhTMHcheKO8heGjQAUQFBXOvc/s5Adf0w2A9MoQhYcX2iKiG3P2gmoFLFdW4KYbvPIdoUkOymdm0AXdUfc+o3jTi56GV4U1legB2YYUZVZdxcKvzVDulptJjVYLFPxTaezZEdgIJPBtqnduHffY8glRwOGJjEP+rq4BHsdXkg35YbsZGlptmtcy78Pw5+TWjQqj6Rp59SAGFfVGJJpqfK67Bju0/Mf4mNShdpFLSmm5TA4Oqg6ogV1cBJChLOQu4aHprLnqa5WWx/C3SLQ4yJuWcVz58utpfwCvy6fdlpHWBi2wvieZLdtxErxToFeojDXhMv9Ox/F/TseQaqSoaIhnbd3mm0YLjdKqfwG/s1w57KvN0c6FguJz+WvxvgKtQUcO3sUV+bOI1+c4UhiAZWq8tUQ6FLcXE799E13+OgiYTedi7q7LvnWnd7yQTvWVaCvFJHxBtc6rjaT6sErFNiZVAZDiWHs3LATzz70Cl569CcYwUZWq2NSVXFjRj0Mi92dBnCafGt6vDtjsRAJ4fNWKG6nMbh5/aSFn6hIuBfxp7/5n/FvSIXMEqqZKgV7a/ra0ZP6sOy15FuW7r/q+hD6Aj0a8dz5cutQfspjSzCW6w5BSyOWMmH6BpUJzaWXkzUK9BoFYhp//MI/xB/f9w+R4S/LuxrT+qBag2zYu7OoKKPsBJebRgjhXAbdTXAeCPGW63lM452jr+Pjb9/F+WvfYq5wBeVKmWWR4V2ViUbhVIrkR1Ou1oZXD0tRS0FH2XnItrd80I615egmwlfe6qDKTCGVGjDNXML8bzz6tzDJ33BtAEPVAQxWBjBAyvI8XR1sp0ozpWgXTQPtdowjVZPZiQbYmEQ5nlMLolBXI6tSG6qxCVVYt2VNxaTULWm6hQwcQWspoRWB0dzE2PpYZ0hYVtk+KglNqUgLdg8Ok0mpOtLKB2k7SpshCvMRcuQwbR2lWygVUDKgRAShA7W6SzI+UcriZbtrJbadtG+vPB/GOJ488gwe3vcotoxuYVuiksR2xNZhI1+d64GvKUt3KfPeVgLdhERdODnUrwOzleKBgrGasXn0+/Y9Zpq5mHGQv6zmqqsU9lTjpaXYvBqZu43I3HUi47uiCxPt2+xI8tvpXhMJbkip5uSEOFCkllRMl6md51FKF2lfDvLdnndZr6xcuqMeXiiu+nUQTyv1cQeC2qBGhZWEyE/7UQhyhJhg20hUsuTgQQwgx5pPgxxoUzHi0zCp9kOcEpidoLYWRYI/V7vwZjtJSUskOV5gm9R5humbwiY8dfhp7Nt2gG06hXSKmrjlRymkLwp01859XHcXVDJ3BDx7eKZZjl2aoF6alEkNYiQ3hTFWela9f5lDMWrBJj0tQFfRbtlTFyLTawmhMwNSNGHybmKE12AuMp4dA6GupPGsRM28RKGulQe3RENvDZbXZhWYnvq4M+E0dFGSFKrTKrmT7SZVTddVEsHxbTNf627YdCQ3rk01k+f5KPL3PMLnHt6tg6Z39JNIz7LbmUxswuTQFAazQy4jIYHullxKQ48K986Hr6O7HKzMWhFDA0lWsmYCM9QzggclghbfBoq0GDoW0XkTdbrfah9BxnV6ZF/TSoOGPm+3FIoeVNW0blErEFyViU/76KMXoLgjH1JVSGollXgy4D7yZIIqRTKRJ08WjS/1jCndaC51kg/Ps63USyg8H5fFzbTokZJMLf3V6hVNCY3kRpHLDKBcYp6CxmJi/y4W5oLKpQ13m7AQU6JWwOBAwgS6E+ZiB1asJtNYClpQUuKlV9aXJbmLQ1F+W8iOEuhVpVPLrbyuU2YK1S3QRgKdHVGHKuujjxDET87wsFNv10L2RqgEeoLjQWmz5DoRlXbjwSTypHm2GAl1LZ1lsxFbRoR1s6Bmq6ahdEgJsnUCarxFtY8cBlLDyGUHmCTaiYLG6DT0wO4uREfp0BjGO+gsPLxvpdsbrLxqErn0ADJpPacPsi3DqxdW9X6w6KyaKTyQVFk4EmOlyEwpyuI0TZG0BdckNDMpP96MJt+pOAo6GqKWVCjSiKrIVWiSbK2w3XRGHyH4SulAPNbN5ej2R5dU8pa1Sztx1zp0/NUFnBhQp3rXQbPlKQrKNO+nKcY1d+7UC5Og3ksTtVo0Wk8ztboLUwCfbqs7s2lHlFcpRkyl2k46m0NuQO9y6EEobzF9ZdqLOgW5nvBZWk+w3lSh7eRRvw7Z3XHgMCuV0IMdVa5bwqSHOhVWbDWluUOtSK1SENNkNq3HD5PmEkOUIFXKZZRK8sPQyC32oqlxu7u24SBJrKRVK47SkWSat5ZWJXOBDw1tZZvieQ1ZJmKEgWdKBXYeQSREe121231X4PO9LDnHyxKPtzVcMlvy5smnXm6Cn/6dII21ViW3iuhfo8RErYJMjaPZinhygLr5ABZ4ZhsAGMOLS5cT1Mujqhc3GyztoGul19Ii0sjVCeo6+WGCVHNP1KxqGQpstu7FchH5UgkVPdjlT0K9mkyilOaYQ21eyV0jXBJZukpjgLBdK/HQZtdr6pgt78CjW0JFtzNcdWYonCk0WZNKrQR6meRe+Kcb5sHWRltGW6gFCXUAGQ4+kyWUdF+8K77XObXoWi3PsOeMKhyqiqpGC8uS0iQeXyIVeFXicDeRLCJHrWmAjOhS38eqYPVLftVpF7rjwUwol5bTIFN2pbxHkvjfzy9LAGobAJpsJFrloof71NnJnwlyY4G/RfLoInlzgSRzyfi0bCSuLQZEgcpjhb+qkT3StyR5JDWTKCkUtgzSbAmjD3choa5Wq+tospU57G8qdF/huUz5lEDXTw9+JcxNkeP1zYbS4s1utBYkvvd/3dc1jPVeCN8JUeG12ukqVrx69ZdDx33bD+NvPvOf4fuH/oCW0p/lV0NL9zq9XceYX8vXlvD56S9x4tIJLC4tgB0/qYpypcC7FMnSFmySkcHxpoI0lmoN1pc8mU+dhFCraWnYgM1nVlJapriIYyffJ73HkKtsImpg7oGuDy5OWa0VbeHx0lIQstZp3Hh7/WJRXFj6lkmj3aWbeDmJh9jlEsudE8Rxyi9OePaSjfGUZGsByYRGghxRVrKkAey/53Ec2P24U4SpvWse3ZWhD7vVDCNsx3Mm2aXJTXym2T6KS4yvNozxoc3YMrkDe3cd4KiUcZPfbY8ZenKuhag4BGcvQV1iHn59/M/xs4/+DS5eP8tbrhupcqSraXYT59pCg2av0Mv6lYu44bXijhfotLTzMNpsKNATIYH+akigi1ncu5msXGsj8t0eZhhztRt4/Ytf4zefvoZvzn2N6fw1MkuRmjSZj4I4RU0nrZEAg6lKGyAJbekPSt4YLBDqbte4NP3ynC1Im3VVqflUpbMrwJoYPWMp96HFKau1oi08XkYJ9CaLAFFJ6Qv0aMRz11uBbuUR5FdTLbayhbxma9D1ck41R3OAN+WgTDaUwiJ2bA67nhqzdleRqQzi02hT05ylpRImcvdg//ZH8ciRp/HYkWcwjFG2S3UeeiirjkbTj16ot8ISZmcS0V6g/5QC/dL1c86WaXYrlNU53L0CvVMJ3REwZiFDhImHNgayomnlLJ77Iltp0Q2kcnjhwRfw5KNP4p5duzA0PEDhS8GbKqGsl3+oWZdJJQp5XZdTHIqmORSVGaJSWvYyeY9Ukr/0EmkelfQC+6E8kpkq0pk0spkhoxQ1qd6Kmt7BFXHzz9n0cbtCnKTOVds1255GrCy9fFOrUuxRuGvfIPFhLTMHZBfI24socdToplxCRDtPxcQCyZklUTIwzV40b1Su5Sm4khgZ3IBd2/fh0QefxLNHXsQQxbnULXF6hkJXKk5njo/bFm7PNtNr3NECvSNCAj4s6I2qEi/BOWEMrRN3yQteLUN6gWEEY3jh3pfw8lOv4uCuwxjJjCGXGkAmqV3pOFAsV1Eqarc3DQLJkJrSCcgNIV067EetQfN7poDzXJOX9ti2wk6iWEKtSDcFau1FDoM52tBjUzq9I2DFGtRBU330ccshHhK7+c25nFCXXcBf4kmtTadiUqFQLttznhKt6d5ruiSdm7ZNTylKlDT9pXVu1zqnbq2ITPt3flClpl9MIlsexaEtj+DFR36Ep/Z/j+1K76MmkSP7pzU/UqE/32bbYKkMmX3c+QJdwiFEJjBkHaJOWC0b2BNz+h4k+z249xF8/+kf4sg992EwMYJMLYeslkdmyZYp6RmKxzFxFGkoKCid7m09npP5LRf8qx0kqoyx4qaNbA2t2d+mTNxSHyIem6iP2wviJKeZOzKBTl7U+0ViM1ufniyRNN3iHzU6paRBCqfZlHARMSgKd7d4MJvOIJvK2HUuOYAD2+/DS4//Hu675xFk2aLUGtKaoteJf/PORdcCxRA2+xDueIHu6zpMrahrhZ7M0hmrg4pNA8IBbEhsxQM7n8Arj/4+Dm99GFO5HcgmR8jB1KQzdEN+sxUDAUkT0rJHf65lkEqbnrwXkykOSzOkHPVzkR9w8scGZRv0G8sz+beaj335yQwRs9JGrW6cZR9R8LzancyluV8rjI94cK/4u7GfBLLdI5+L/6rk8wqVl0ptENrASzJWyrNTQER0J5PuA109oDQDkRKiUasoS97PchQ7iPHhjTjAke3zj72IQzsOYZR2qGpRAaHmJV3ISMt5taxXF12Y3jLS5f53BHeUQI9i7ihEu9G5Heu/1UOPaPS+6ZBNvmxK7sKzB1/Biw/9EPu3PoCh7AYyPIs2rQc5dM2o/LC2Ltwl1EkS6EKZ7k2gk3nLiaxRlcJdDcNtllQkuQdSt1yYB2gt50ZZN6PNXWDfx2rRmxJUKC4kCnQKcwl08SoZ1GQjOZSkNWBULmoU6NKgKdD1cLEhzCXIA2FOHjZBrgf7RnopyQlz2JLhDCqlJAYyo9i94wCeeewFPLb7CUykxhl/1WISST2vSTJpMYEJc63AkYUYP4L5Q8I8mCz6zuKOEuirRsC5Vu2Og+vV3l79clhFobaE+dosteUChbMXpJoikUAS+1ZtgDhABh7gYHEDJvHiAy/jiXufxq4NuzBCbSanKRKpMwrVHjSRybVQludeE0owbC3N0gtDaQp3kZ786wGVCX76dUzqNBQ/5XKnw2XB5a53FBMs127EY91cjm4d4uTXuwmXUTuJpTRCdDstugkT4zyeCybfWR52ZefO3iF8LqjcOOIk/+qna/nXjqaZcgYD5SHsGN6LJ/a9iBd2/Yjq0GaGMGRfE0snJbjVuvQ2hqZ22Afwbom/AuYwi0vI02yUvOIO4peVt77DsZaspHZ/f8N/F5zfFKx2OY4Q5TdKK2x1516YSGJydCOO7HwQ+zYdIqdQG9ECckJ6hS/GYrlkb49+cuJTfHbmM2zduo1MFTAog7WpvUqRDKhXkkpkJ4VNQU2uHeBv0+YpZNIVzN+4ipkb11Aos0NIki1tdQq1DetDAz0iIW1E4WjIq49Bc9hrD6a09NELdif6nb+QXyE4WUuZrhqMMpSSOkwMhqskwp0ll4dGqQdedGNVZP/eguHGCjOuu5iIV5fejcxuxGOc8KwMJczJ2ySbNuG1W5Yo8iLePQA15+J7++nclwFrnzxrrw/RIslOIsM2lqbmnq5kMDW4Cfs3H8LT930Pj+1/HqOJzXTp3izSZzPE3XoBaamwiFRac+4cnZIx8okZCvJpvH38VygslbB1bAddqi15uNjNIOllppPXj+H4xS+wsBR0ALRXOxa5/Kir0KnruFcD829l1ECU3UqxEt+t9esk2ncAynYrCd50tUq2SmvPigrOXj+Hd756G69/9RpuYIbai5u9FkPYdivSImoUxnp7zfhF61IqFOmDeOTAI/i9Z3+EwzsOI5sYYCPI2ta9mfQghb/mFKWlBzGrgVCISzPPVEimqUugu5ed3DSNOg3NRypiV2X1dN8qdGoFrfYR7mTFbDkzoLWhx6VhiXMNvRvdWijPvSHlRXPi2n9fWroJc7snOOHnNumqkA/Fj16QOwqXir1PQVOrXTLZDE0qO2Vel1PYsWEnXnr8+3h031Mc0W6lCNe+Sg04EZvAQC5HUS41S11DGUu1ebx14ld4//hvcf76KdpIgxcaKXAIn68AQX2vmNYJPmSZ3SgKd5ZAj1uobW6Cxslzs9JPFnZHB+dGQtaEL3/z8zP46tQX+M2HZCQK9hu4Snah8Da/Yhy96z9IoqAN+MgGmQxmLLMJh/c8iRef/AMc2vUoJgd30DWHlVR/nJB2y7dsorDKcLQtLm0sFT5hdwSCcmuiKLTc86fdvHxH4Xh0eVo3kJdtomSVslHetIIlwxFpuiLNfACj2U3Yvf1ePPLAc9iz6whGcuN0qLbkBJD8KEcS6Oo61KakVGlLgZniBXz5zYf43Ufv4tSpk5ibm2P+lcIQPB/1eenOEujheutWf23u1ACMeMGDaw++YdiFu6/xJvlMjzurtTKuLlzEl2c+xV+/9zN8dvpDXMcVOizznljQbVoUFugaJGrqRK/vj2d24Kl7v4/vPfkT7N92P4ZSY6gVKMgrjm3dmnTNq1OYVxlfVRqJfncO6sUaoig07jUcrLtg6mNVUI2Ivc00m/gImgHbAEe6UlYKNQwmR7Bn6xE8/cjLePDI0xhOTzFciR0J9CLP9Mami01Kja6KPOZ5nC5fxvHzn+K9T36DU2e/pTCfN56xaQaNjCNS6NPwXcUdJdB7AvKAr/R65Xu+kOkUB+QGKNYps5fK8/j8m4/x09f+DB8cfQezmLb1uNpqyBhfRPdiR835ZZI5aicD1PGHMIkteOXeH+Op+57H9vF7kKG2kipzGFrVRmEpdiApE+QVdiRetnWffgsiu9vYlnlyZdjHnYjmjlmjUCo2xTSypUHj+0cpyJ89+BI2BF8Ky1ARSvPoNuzS9Il/CKoJTW3vtYR5jomPnv4Ub370Kxw/+yXvFpHL5YykOJVLmvKktz7TNOE7JdAlBk0UkgkSASM0i0Zaapq6TPYpLlETL1Fp11tyBZt++fW7v8S7n79BltMXXORaLFk20z0Y0lukWtCoDz3bAiwMYhTP3fcSXnnqhziy+wEMpceRTQ4hnRy06R1FqPbgyGmtnqJRz8Udh3oeVc4B6tdBnlupj9sbqqNiqWSmXqRLpShuOeJM5jPYv/kInn/0FTx54DmK8XG2Cc2Nu72IXEOT+FHr0ax4kaZtPUfuLuPjr9/DO9LMrx1DNed2biwxnjJJ3K+9zq0diEVCZHyjX8A/YQpDl2YfXN8t+M4IdC/ABS8OzfT2MutykkK65rQGbUaUSFNwpwr2QObdL97A61/8kvrDFWoSC2TDJVLRmEiQUNcze7f23Gne2ibg0UNP4ocv/D4O7LqP7DzM9GSRTlGbz2SpldOHrbipJ+Duhi9zD16bVWB66uP2h6Y/spkMKpUK8vk8CsUi0okc9u84glef+j3cv/cR8vugWhTbhXsvwz0vct8CUD2X2H7c9rtLbFHTeOOLX+Gjo+/i1JVvcL2gdkblSlsQ6EcP7pGsQ51POjKMvyEz7IjnTqoH18tAUbZQTJ83Fd8Zga6pETODczODc4NVEgV4iqxH4a1z7ZpoOyfqIU86hcXKHL668Bl+9buf4t2vf4XZsnZyK5hmoRUuDVTpv0gNvIQ0GSZZTWEisxH37nkELzz5A+zZcS9GhzabQOdNaPmtWx0QBz7lffRxe0Arw6TtahnwyMgIdu/ch+ef/D4O7XoEo6kNdOFmx+3ZUQDHxdLHM6hpCTGvFyvX8emJd/DBp7/BmcvHMFeaRr5Gca5tqan5pzQCYDusiy1rsyESzGTo0uDq98JtJnweE0HY3mc4hBWGtO74zgh0wQo/VPH1yqjbieE4vEsUKOj1so97HVpCXetvtcPc5cJ5fHHmA/zqnf+Ir0+9j/nKVSvEsNbg1gnoNWaGQWmtL78kqhmMpTfj8ftewNOPvYJ7dhxCLjfEhlDmUJUpCQ8hOuJ2Y58+vvOghi4t3QvzPXv24MnHnsHjB57DeHar8b3/VpcEunRzcbFaiEhae4oafb64gFNnv8K7H76Gc1eOY6F8FZVMCdWsnq1SyWIj0yg2obdHw2Ir3Ox4rksjf65Dvd34drbydhTlI6wk3i74zgh0q0ZWgK9Oq4TgugHVkJ65O9KiF9sJkYK5WOGwkFSrVVCo5vHlqc/w0zf/Ah998yEHi4t0HdY/FE5jnlDzihl7cSiHCWzEiw+8gscPP42d4/dgqDqEbIVMr4SwE9E6X71gpAZgGyUphbTX5ki28511Onff3N9tCT8k70A81s3l6G6AuFrs5z504R5+an15qkhlJTGJfROH8cze7+GFXT/AGDaTgzP2rCgLPcgUJ2sU61ebe5SwlLiCz8++h9fe/ym+Of8lSsklJDJVZDIJ5LR1NEcA1UoF5XIZZZp+5ULncm0t/Qa53zLwCQwo7D4c2q1GVDp6JtDDDx96QesFK4SAm3yBWGxmp4MEsdaFaw8Vsg45uEyBqlWxWv8qYZtMJ1DKlPHF+aP4xXu/wGtHf4UZTLsHNwGzuSWNCktz8XqzNMlQna6ip/0vUKi//MirOLjxMLJsEFl77Zl+9VIRG4zeK3WKu1bTlN3Xi5LsUPTRC7p06e1jvRDFk5HkHC9LPN75MEEugc42YG8i0a5A5aMwgMNbHsD3H/h9vHjPjzCMKXKyWxSgZQJ0zXOniKgd6SGoBI/WuczjHH576j/glx/+W3xy+j3MUjMvJfKmPJVLRSTKFWT0jEnFqB/LMmgBdmwvV29DM9DGXV3Rly0VDijCp4HZcr4a5NHBx7qgicc6EA9tdt8JDd0qJqgoLwjr10Jg5/o3MaAe1jgNXZ+tqlKIVgPNWJqJUE5VsJjM44welH7+Fl774q9wA9fIqnpESk26HpkKXkzEoSlPFYNC0hdZHtn/BH709O/j0PYjSJYYX6lMZVxx0EGZruyD0GJfaeYcdjINrLYgvRZBH7cSqmQ1JJ12obsFYju9JZpLUefW8txqBgO1IRzYegQvPvQqHt71JMaxA7nyqGnyPv9uokXqCsV5rYBKtcDrMmZxEb859VO8982vcX7hW5RzC6jmtE1vsKso2417M9U/X+LR5lDcVR1tVr7UfQoa5GorHlp9327waQqn8Tsh0D28EPckhM/jQu1Y68eTiQzyhUWb+3vr/b/G7774LW6UL5EVSygmtAxLAlmv7AdLrNyffEq2KicwNrgJh/c+ge898RMc2vogptJbkK7m7EvlZbaIClV17QOjakpVqN+zAbmNkVaa4j766AG8MK1xtFkbxMbcFhzefj9efuL7uH//QxjPTvI+uT+pDe3Et45T9fan2zyA59RqtBX0TPkiPvjmLbzz/hs4e/asLUfMZsnjttqLUCMLI4jaqBXeLnRPiwwa7nWu8IIw7XwVqIfXDh96oO/dMnw3BDoLOVyF/rzJ7FJZYbihDRmTAll7q1SqJcwuXMG3Z77AG+//EkdPfYzp8hUyr1aoi5mDgIOwZWjTIk29JMoDmBjcgacffBWvUKgf2f4ARjMTqCgO1oyEuW3sZQI9x6GuBPp3qg+2sm6lPm4O2rXZhG1tUS5VMZQawf6th/HiIy/jyYPPYiq5jff1iekiykkqM4k8r7XxnEaVeial6UbyL4/z1WkcO/sJ3vrgVzhx+jgW5oM3QCnMFaPODUGFm52zaTpvQtDM3CldBE3OrMLCPNr38mBA9VCCeKJgbgK3twKrkw4+Z2G6Q+CT2mquBNKwq1UOH4sF+9K/9irXdxW/PXcUf/XGX+LDr9/HPGYYtg0cOYSUZkJ/QUXrUam+2qI3SrXHyyS24ocP/D6ef/hl7N5yAEPpMfsIgGsAdG2bcqXIl5oO6sJNdxlUVirD8M/Z9NFr+DnYJtJIkqaHvpyVKKWRoSKyZXwnHjn0JJ6993v28pxmxDVnXrZX8o1reZQw10fOtQpdn2vRVrhL+PzER/j1uz/DiQvHeEfTKxT95TKKbE9az15lnKL6z6ehPt3i2oDjhg6wG86/hz93ZkefdzRWLtCtHMIFG9DdWT5t0BItextO2SaTVmtFatR5FGsLmC1cx5cnP8Wv3/sl3vriNxTxs1bAYvESG4c0dl9M+t5ihmEleVN2aYr2Zx54Ea8+82Mc3v0gh7RDyCaHbdmX1ulqXj+tl5C0dIv+wvRdgpWfGnsL9bFyRJWfv65W9RDRnYvHtCwxVUtjJDWGI7sexPOPvYxH732SXKkN6iS+JUzStruo9kLK2huhEuN6olQk/1Ywh2m8dfQ1vP7+X+HYhc+RT1AzT2lDO4p8CvKK4gz/mCxLGVnc8bn43Y6yNdRTrhNz7/06UiCt53J3t2IN43dXwI6+a+AgUlMhksYJaiCiZNmGmsXkEi7MnMb7R/Wg9Be4jsumlZQk9LXXOn1bqZGpVPi2NLFMdmdQgxjDQ4cexw+e+z3s33kEyXIW1RKbhfZ8oVsxvWkuoruZK8MIGmKYlPMw9bF21IVecC5IiGYyGRPmEvDa1GL/9kN4+ckf4oF9DyOX0FeMBK3QklB3b39KP3frwvQcSWpMyd4Afevor/HxV+/h4swZ5JPzKKcKbDd6A1RorlfT0mXHC8fvSg8PUfJGNzvAbgX3naGwuni4w7EGgX63Q5UuMSqzmQUSCQnzEkmfhdMKGPfQp6o5wEwC86UZfHP+M/z2dz/Du5//FWYKZ8nvmpopUwtxTFoP0B7euC+pa1ve8eQk7r3nQbz02PdxcNsRbMhtZMgpm5u0LQbMvfPqgwmnzjoLd3rng9my/Mn0FNivGUFB2TSYLzSjXgR++8AL6iiKhOz5V1H4D8BoVDg0PIw9O/bhuYdfxL3bH8BYZtJah4SuliTKlDjR4lxRxQpWXUDCPk7x6Tfv4L2PX8fpS19jsTprLwzZajBf3pTW/hcGUxqcrQEWRw/CiYDS534NuLKlnZXlKmmV6Av0DtCDFbfYqlG4jTNp5iUyo4S0WJkaiYQ6GV8PMZdqc7i6eBpfn/kAr73zH3H0xPuYK1yxD2OkNFejgKyv4IkeHqVK1niS9lWjFDYkNuLpQ8/hlSd+gEM778XQ4Ai1f44C0oyLKr1jeqXOpc/Vf7C0q5HIPpZBuKjceWBzlwn1OLAcB4LEi9QkhazmtLX6ZOeOHXjykadsT6KJ5GYkKk4rF7+aJs2jHnhqcYutU6fETiWyWKrM4+Tpo3j/o9/g9MWjmC1cQjGxxJFsGYWa3tpw/Gw87dh6ncC89bhe6x1jOFidyyqwCy5XTKsFVUp694mKQ3VEWt6mENNoLwn31RXp02LDOvmXDUS8Dh5lBv5cHqVw6OO4RQrkkgQ3fbq9KBgaGV/3tVZdn5wrlAooVUsU7Iv48uxn+Olbf4aPjr9HTWWGGgvDUzeqESqZ2i06F1LQhzUyNc1BDmMcW/HqkT/Esw+/Yp/MG0+MYwiD1lhc+ugvUC+tDVgw6miKNN3qgl7Acs/8uQ8Ck11oqtXpqK8p6TN59rUlDcm117vnZHMREP0E3tylP7H06/mAf+AbmLIze/7kpu7VXds5o3EkO+fCBEoENQo8qLOEq3m3+kLk4vApNzir3oHlovCXo1sBpUwv3WhJoSAjVaF2XcpisDyCe0YO4On9L+OFvT/CKLbQ9QAd+Z0TVa4Wgv1UblqIleSIdBGX8cnJd/Cr936GU5ePUSmhApSsoFTmWLPIc/KLKxf+grjDsPAI6zB4X0sh9U6I4/9QrK4XoY3auHaHSSBLnsxWK2xPevtafuRBvKWVYuqMXL1HkTLhzToZHwamPw/Ip1xmOBfh85sFEydGKliexKNWtzzEhO/VekVxoKft7hNa2lC/TCGkjbecIE9LiOvJPCsfNt8nU4JRGofCd6RfmcK8kE6gmEqTubKMf4B1m6FbulTdqjTFzGmyeYr2WcY2WMHRy1/ir97/KX7z8S9wAxeZmiX6YVzGxBI2ghgygXRCr0qP0nYY2ijgucM/wA8e/z3cv+k+ZBfZeAp6eKRP38mnGNQJOcf2GjXkSRTqCeVjbXC8q9JzJeinliQEdVPZTVOQZ0m5ihPseiFK1aIdJJMcksjUZ8h0rjXGSV7bzpL0X2JequrTTDC4LYc9SbjX1Hlpiophq5oksu3hmIpNkSgeSymPKj6licI6ldR6Zhee6yBYbiTXAafpVN2qu3YhuFAEC9qd9gz18CzN3YnHWIhqC1HUDU1uydsJPexn3eiLQ+lyGgOlIRzZ/CB+8NAf4pXdf4Qp7KWvEdQyrCNbheW+ByporrxSkzKh0tTalRt4+9zP8dpnf4mvL31K4T6HYi1P9vBClzUuvlBnb76YHrYHE+wKUsQb3s4t4SW/aBsMtk8Jdbd6RqtkxO9aJkmTvKiX/3Lkw4FymYqG2j150iIRH+RIarviY562Eg+diMHwJHQtstQzRy3XdftVUlw01SEptfuVieAj0T4Rq0NdA+sR3FPt5RHHnYpIn36bHJ3AfcFHohNUt7Ue3NIsaUE3xkVkMu3O/OnpD+wrRXrYKcErhiiT2Uu8L4Fmm/hLFSHzWwxiRDGnLnmtdOm2nuKXKby1IX9+aQnlShFbtm5mGDUOOYvsGLTgS1sEEBI8OldSFJ9ZZjA5Mca0j2JmZhrX5q7a1Esura+kawWMS7uJXX1wOvjodONB1RpQL1syv4Sw8mXXEreBvismYnpT9mzACfsEOzl9wEPL3FRwLCmeM4VlNswimyPbXa2YxObJ7Zga34yxoUlMjm3ExMgUadJonLRhVPZTGBkcQS41wHiYpzLTwHgS1CB1rhe0rKCssGlvptzQXlUSpNelXPVE0/Llm40KO9SEVI/mum7TFcZ/9XJaGywUhtWb0ByWax8mCJQFCvNsJouM6q7M8+ogDu24D99/ksrEPY9jLLWFrh2fiuMcFLY4WW+AFu3BqaKbT1zFb8/9Jd7+6q9w6sJxzBVuyAX9NR6ASpCbMJcHBWPk7rYm2aqS1aovhd17z8O4b+sjdK6tBaTEiOM06pYSRodVCe0aLlw5ipMXPsVcfhYlWpfVMKmdU28Pype5kGa/BlhNucDqMM6xDKyFeHTGipF48b/f40oxFNhqUM9Dj7AcI3rEcaepgSSZ7cD2/fjjZ/4BXr33j1jDGaTSYlBqJOIYLRSXmOJ/iczxz17/H/Evfvv/Rjm9RIZSD09dgFp5kUJUwktaqbRTH7+JgXpSVKmK10Sh7dOSqQ1iKDWKbRvuwSvP/Aj37X0QY7lJZKnljyS0jleMSKYLoCRJ3ynW9MC0aLvPffjNu/j5e/8R52ZPoVTKo1IpcfgqjVydjrYGcCMLp3kqbzLXBhN1ylfQcVm/xTP38Wo1JpLsjNIUvEOosAVJ5OdygxgZHsUwSecDA6TcEAbSwxhIDWNqbBPtB5g/jWiUVpUiw1EEdsKGmqK2xzwWCwUUSPqYgjZqWlxaxOzsLGkOs0szuDavPUBUVmqkKgNpb45cmbgpBXtTMciEi82hfq64VfjKq1kQYYctcAKp7nJNsFAYVm9CiwnWoaDyz1JJyNWGMJQcw9axnXjx8Vdx356HbQvcpDaQs4+ySCh6SJxKGy+wxRSM25aK81SG3sPrn/8UJ64dxcLiotVXPV86hMgVXaNOhMCow6aCGHi1mMKfPPuP8Xcf+S95OWDtQ0jzLMVU6BGsPW1lat768t/i5x/9c5yZOYNFto2C1gmTP92EjMacUn6cyrRaNNVUPe2tqV8B6NX5dwqGFFE7cYdY+A4J9Ar2S6A/+w/wypG/YRWfSOqVfL3BxmF60FlLbi2xRP7Zb/4/+Je//X9RoM/TUksT1cvnyAY500jTtTIFesCobUlwdlrVmKrUKMDIZAy4zHMJ9n3bD+PlZ36IB3Y/jC0D2zGIcfogx6omQmGJ3YoVCSIKNqYrz2Hr61/9Au9+8TpOnf3a3lCt0tb2cKcbiVdNiVjkgQBeC8K+XTmTjFv8nebwB5m3PZO7QZGAwYERjI9Rw95ADZzm8NA4zQ0YH91gHdkwJtj83C58SqmKP5x9F5uG59atSRwHP4nmCuYX5nH9+nXSNK4sXGbDPY0bpWksLs5QiMxgKU9zaZpanTo8TUWxjGzIrvKUIJK2ru5IzcaNLOqdVyDQBTtanqNxRwt05ktxmbxkWaSpwW4Y3I492+7Fo4efsi8NqY40v54mf+YSg3TvRqgSia7stEBR61XyWKhcw4nTX+LX7/8cx658gdnyNRsBKE8ypZG7CBvkii6UkAio3tSYqiUK9Gf+K/ztR/4JU5ExzhDfqCNJW4fCVGpqjcH89uh/wC8+/Bc4O3OKAp2Kjxo4FSYpO06gq6NnuD1CXHnVDap5F44rWWenQ/ywU7tf3fDfBd6I1ScqMs7VBxe7gOK409SImHVqZBOOBFMupg1bg/YihczhDBuifXrmfXx25l02/iLjsKZORtE0Rtp1ECJjxGiBbkcKYz2rkSmh7F+iuHL1sgmkMWquWzdtY5MZZEgMOwjHBydT00KJhLGqPRTdsXEnRwlF3Lh6DTPT123KxeIniVn1sM+H4NLlzleDhk/lU01HDYE/NhrtK6POaTAxhuHUJLW4jdiY246n7n0BzzzwPTz32Pfw5APP4ciuB7B7837s2LALG4c2YTQ9zlwMc+CrjjHJRu4apEVB8t2Q7DVV4+fTNV+bIOlBnF5mGc5OYGp8C3Zs3Y29uw7jsYNPY+/hw9g8sQ2juXGOADhSyFes3tO1LOuBYegFLQprNWmbBuK5q3vxgmtCTpbLXvBmZ9zRAj2AhGCmkiUNYtfGg6y3F/DcwZdZSxtYJqojlj41c3GhBLgqy8rKjhL2GtXO4tNv38cbH/w1Tl06bvu5lNWRsp1IwCpP9uxEZ3YRnMokfLk33QxIR/F/igL9vh1P4oHtT1j9eSXAhaorumRaK2xrJ6e/wvFLn+OGTbloZBbcDlLuRnI67w16K9AtqQ1zBWFToE8GAj2+pyi4hLRSw1gp4hZQHHf6wMR4bgKTAxtxePt9OLDlENIJCQiXTmnoPhgxpzTjTy+8g89OvUu5X3JTCvZzwt+mG8QUYohQ9E1p4S17aMgT6TTSDDWXXq1Ro6mUcePGNOZm55BOJ7F9yy4Gk0GJDUuMp1Dqgo0kgSdT7KdGtXnjRmRzGSwuzGFubpaavxtBqPFJQ69WeaZwFEA4gTGgPGj47fOiODXlVK6VjDRnnSin2fiHMJnbivt2PYrvPfJD/OTZP8EPnvwD3HvPo9g2sRdjA1MUAsNMrVZDUKhaykUS0SrHcPpIgVGnOnThNCs3laQa8ucyda3tjrM20tk0th37dh7Gg4cfwVOPPoftG3cx9kEU56soLVIYcZSUy6hjyPBcdaowWJNMjCMGx+tGMpoS0wYrp6Cs1goLhWH1JrTuqNcvFYwsBrBpaCv2bzmMJx98AQ9TO9c3QMVLelhNUco0yb3TaDVC0k5FslF3qzdA3/ziNbzzMUeOl7/CUnXedlXUWEr+bK6cwtxp6Dz3GZQZkPjMICd2aFCKnXGWylS6kMV92x6jkvAIeVwPVF278MRL4y19ZvrMwnGcuHQUl2cuo5qiuFdQ5saNLTqNBlaLpra/SijfPhwfmpkrCDvQ0NeOjhmKn5YmxC2gOO5SVX22OYeJgUkcoja3Z8seVquekVNIkVTFbv9mPTPXJ6Bn8MnZt/HpyffJiAFT2vy2tDrF6QV6CLxoSgtPTeQEmrz2Mfdb8Bor8X6lXMZifpHMX8bU5i1k0LS9IQet1HBODDI9acpBgnHD1ATGx8dwY+YGbszO2FukenCZ1AcBsprnVFwrh7KgFSlaf1zRlBKTo5UPGgmoDKZGtuDIngfw/KMv49UnfownDj+PI9sfxo6xfRhLT2GAQlwCwglyasZsiNKvpeUpV3XtmAG3lqE7t+Zct/d2UfBNUndVO06Pl+4/xBQMIZPMYdPEFtyzdR/27jiIrZu32Sh7cW4RhSXNxTMuPeRmpiXIbY6dAakMFKZLieDNdlidh+t9DbBQGFZvQouGlZlpza709GHn4dQY9m48hJcf+yGO7H0QI6kNLMsBpsONjlRjvgykoZftYb5aS8W2t3jzy9fw6fEPcPbqN5grXUMiyzvkaUNQPk158hcySa4TDdJmdt6Bg0ZWyTKVgVIGR/RQlKM+lbsWL+hXtTl8t8WASN/6PTH7JY5d+AJzhTkqUswvgxS/2aha1BzFmhFXXnWDSsmH40MzcwVhJ1787/e5ml0j2jO0tkKLW0Bx3Nlqi0oSWzhEv3f7vdg3tccWlJTSZE5NiNcG2Jq1iqKGDIVurZbH706+gw9Pv++WIOor5pqbE2NIpFqcJM+JAk9b0+KWR5bMFCuZiKdQ1N4saa3aSLKbyQ5i+/gevPrkT/DowWc4kthk6dEQV493mkOUjqQuSJ2QFoZdxYdfvYdfvvVTnLl2AvOlG8xPHqkM41KDDWrWV3BrWJ2gaaG6JyJXG8SWke0cju+h9nsQe3ceoOa7G1sGt1N4DjNXmgvnUDc8irWeTxfqgii4VT72c2YDzsYhbB8foaSGzrWuIk+RJLsKCrUlzCxcxdmL3+LU+W9w8vwJnLtyBteWrqGQWkIxVWDZ6UMiWhJKMcZ6citluqfJ6jwGD8aBhcKwehNaNKx8JNBpKJ6hoSHsn7wXLx7+ER7b+yxHVhO01ShKH2jxIyGJQudeKk9V+5lz5DpbvY7Pv/0Iv/nwV7gyfx4z+evUzufseY+teHFS1HyFoSt7CEqo6Py5HeWlpTwl0FmFSHFk+MCOR42kvBRSRZRSGjWI38WB5FUqNFWODk5cPYpjFz/B9PwsOx83TtZKNz+6dtXanK61IK686gZrHxaOS6Oz0yF+2D0U6Dq4814gbgHFcSdxmi8VMTRAza3EwfYSGS7NgVkmT6FOTULryas55MgbwywNPeycS+Yxny7ah5zTFPbSNN36bj1gU3GT2dUreDAZrWnRA71kIk9GK9v2tyIT6BIYHPaXkhXkq3lki4N4aNdj+MmzfwOH9jyO0ew2pClEB8ihYlIHaTwKX9MqWlPgvo40R7H+F2/9e7z92W9w9tox5BPXqaFLs5JAcvqIr5eg3XSFmrr2ppZWnhsYwMjwMLbmduPxnc/iwZ1PYNeO3TbSkb4tfbieQoZtfQgj0ejHLIwUuVjVDZHrJdQtLeF7dQ8hRNk1wQegzkS1r+7UedKqjBvUIr89dwxHT36O4xeP4sz0CdpdRSGxQAFRoEuWns25h+q3A6zOY/LqcrBQGFZvQouGlYyEmqQuzampKbz60B/i+/f+MaZqO1nvmmiRQFFXqDPty+Lmq1XTsjVlonwBX5/5GH/97k/x7eWv2JYWbUoxr+WLHN350ZhDc2WH+0gV3XICXanRxl1SzAaopQ+SkKkin16y9lurkQ9Jad4fTmnJLNtVat72iylZp8LOifdttCwmDdITTsdaEVdedUMvBHpoykWewrQyWJwr99YRcQtoWXesQDFMMu00bL16n6LWXaYmVtHqEL1On3CSM8lhZKXilgEWKWzLSfrTCyoU3NbMpL3btAkdy084w7rdkhbN1zn3gtPONYEjMaNtRm3KR6svqjUsUJOYnplGhkJ045YtyJEJ1SQUi4OrYIWqytbQUsvFbIKofJ0C6mtMz10GsmUMDmXdy0eaXyDc6IC+fJrVgCwvTlNTfpRyzfnrAZkmLTRtsW3iHjxy8Gn88Kk/xAv3/wC7JvdjKK2Xntx+HRaWB0+tYSrMIGyda0mixc+y8a7N1CHkvQn+nr8fvla4BplR1NyZWMdmYkikeuTIJ5XC1MRG7NuzD9u3bWfZU5AXOHRXf12mewoGvWijobqgUCwpQZ7cFA3dKE8iExIhOMd26sD7LU4i4cuI5nJY3kV3pFkGmnaZmJjAMw9/DzsG9mMwMW4856ZYlGA35aIS9aWqUpzDZXzw7dt47f1f4NuLx7BYmWNbKZIXtTKcLulQpR7kxoGnylZDiKocaVheQ6Qy0GkLJNDtNv3po+qJAb2ep05E0yyK1VoVXbI9kQocZVfYtjJZKWsubHcMKiIijrUgrrzqBiuxIBwfmpkrCLtFoEeZYXiubL9ncUZ5uS1AFmUC3RCaGiSHXm49sthOQzEnsK390q5Ct3pfRZnSm4e65+AEoPpPE+p1e4KnzZUauKSdBJo0Hff6PBuH4qb01OftpLaaspSqYnphGjMLc7RPYNvmrRSpQwxDaVRzUnyCHjZpzjCPa6WLePfz3+LP/+rf4dL0GaZZu9dpAzBJJm1ZKgaXP2maTrA6YUTmpzulsFAs2zxyhomwF4QqaQwnR/HU/c/i+xTkz93/I9wzepDie5ThaejqwlGKfP5dTgUnPjX4VeMWNHGkYncN3PtwkJ8KD2qKKmsrvhCpkVb0EJkjJt9J6Oear0+BC9Hb6xhOjcu/c+Oh9GmL1wGmbWJogoJ9P3ZtuYdFlsbc5UWUKoyX/dVsZZ4dvHs0SKnA9EmoaHyk/Em0uZCbBLryEZh18La5aBX8UfD+l0Ncdx3g59AXl5Zw/tsr2LnlACaGN9n3OzWtIgGalGZLaHmgalM+5nERr5/5c7z+wS/x1dkvsFidRzXVEKmCpYunrhxCea6XSWDHS9c+ZO/J2bWB6VUb1ihP7UcKkUy1V+O6enlI2RGv8FR5MWHuuM/u86DgQ6nqCSLTvEJYGoNwfGhmriDsCA29E8JF0O7O4owfb88QpyDlwgsUwVaE0J+WA7o9RNxd5VD2EugylSn/M8ifnbOB6763F3jaSIuFRArckpwgDQS5TGNG58L6GY4UpK2XyhUsFfSKdAlbNm+ylIlBJVSUQgnzMnWTS8Vz+PCL9/DrN3+OyzPnbcOjKkccttcFw0lIOzcNnVpWjUNUTQ9ZY1WkFPQinWvusZZGLpnFWG4U2zfswt/4/p/gicPPYd+m+7Exs6suzH3H4Egpd/CcIRuRb97OTqmWjUYk7jG0e5CltCktyncJC6V5XL1xFTOLNzBLkqkHWqkc0xw8UFbu3c8JD4WhR9vqPFycPiUOVnNWuCJa1EnxunzocfloagzDw2PYsWkXdm7ajUKljGv5GcxXF1g21OmTaXa6ypkEuuJNMz3iG6tZy2EYxgd1XggQR5gT5qvVbwu8m+6ulofSKcFeXmLndWURG0anMDY+wtFhhvfEb2nWF3VeloHeaJ7FFfz2zF/gveO/xtmrp7DADs+2vzV2UL14MG1KXGs+wtfif+XAOTQrhyBfYadGzl5x2Xd+LT5n6+9ZGnRfpoXLC6Zd+VQduSDdsdeII4eWg+UjCMeHZuYKwg7NocuT9+irJsyE4fN2OCYOLm4i4hZklLtWO6+1OFMM45jAMbdz61zw3PyG/JuVv3b+HYJzY2Bn5+MxBKdaWZKhUM1SKx9Oj2PHxG77VuPDBx/HRGYTRekARY+E5QIuF8/gvU/exVsfvIlvzx9HOUsxmeKQlwJdU0kS5EkKQBM0eoHK5hjV6gimw7YIoN6lqYVqgWOUSg5bJnbhyJ4H8eiRJ/HoQS1bGzNhJ9Ibdk6YK48kO3PwOZHpSD+JVu2xoU5Dcel7TjOYmb+O2dnrmFtawGIpj6VSEcVCkaOEgpn5pUWbfrIwmU4tmRsenkAuM4hcLkfKmrlhwwYMDg5ieIhlldSKlhHGaFsyMZW+e9ZR3aA6LB1bwVikcVvHom4yzzCqmC/P4fNzX+L9kx/gd8ffw43Z83S3wDorc6ivnHtyHaynMFxbCJUS67upzrugzW8E7C7ddHfVGT4tPoRcZRBjiSnct+thPPPQ9/Dgvsft/QK91qXSUac5g2l8fPJt/OrDP8fFuRMoltzXhfS8xb6m72F87sJ26Wzku7l9CLw2O2/v4Kyay6u9/HyZNtu3tmmhYddq9g5R8a4UVmYWToOnLNQVhL0KgS6zPQJLSPx4e4a4BRnlrtXOM02DeVxe2/3y2uxC9mblr+UvHAbJGNTZhZlT5xoWSlfUq9dpatLJcs1ewT6w4168+tyPcXjvo9iQ3kY3VVwrncaHn7+N3777G3x14igwQP9ZNjlboUFKSqDrzx8Fmd+cStE7bVJapl6RL1GQU0jnk9g8tgP3730WTz74Azy89yl78UcC0ISVNlySdl91UwwK20igKWVXzdmJRvcIUrp4gfrcQvE65hevYGHpMmbnL+L69AVcmz6Paws3SHOYXprHEof8JQoFFgTLISQYiEQtR5k7yHIZwcBADgO5AQwODGDr1q0YHx3DhokJo7GhLRgb2I7hzBSGUoMU8G7VTV2g249XqgaF64I3aKQk/Z5nzIPir1G0l3Fs5iTe+OS3+PLUW7g48yUWi/NIpNRpsAOkALMdOulW/WSjNh2MD8I8o7yF6rwb2vxGwO7STXdXMRCUR4aVOJximeVTeHDvi/jeI3+EA3vuRzqRs7zN4jy+vvARfv3eL/DZyU/swXEmw5EfPZeKWvXCsuC5S5fLZ1RbiGpHzq7Z3j7w3AKWYHDm4cu02b49juh4W+NcK6LiXSmszVo4axLo+0Ml4j16q3BhRdkFYIQrjbhXiFuQcSraN7rWxtful9dmF7I3K38t/+HyItktZxcOX+fVigRnEqmEPuFF0U63+sp/hkJdXy56/qkf4fF7XzQN/Tef/AyvvfEznLl0lnovGxOFuG5UNI+p+XMOgS0yCXOJMXUWbLASZlIwNU8uoa7OIVMdwFh6A15++kd44qGXsW38IKolfT5sCLlkGmkp5Uqrybsgb07SG7m1yH7io2orgPNamZy/gYtXzuD02eM4fe5rfHPyM5Qrc/Tj5vbLySryNQaaTQd7uLBDoFBwgj0clR6+DjIJaae5043KS2vaNaJJM4GZVJpCfgMeefA57NiyHzs378Tmkc0U6nqvdohF416M0dJTS7YXwDxoFiWIytCY1ElSI13EdGUa7335a7z16S9x8foZjijmLZe2IZnSQsFTY4G69wsaMD4I8wzdt/JUJ7T5jYDdpZvuruJAha1JOSoQLM8cyztXnMK+zQ/jh6/+IfZuPcjcFvHht2/i7U9/hZOXvsX04rTxmr3BTH+2+kRBKdlmunxGtYWoduTsvL3MhvsGWq8FV1Ot99rjiI63EWdvEBXvSqESdeGsSaAfiCgtbxW+FWUXgBGuNOJeIW5Bxqto5i5Ww6M/8xvyb1b+WmGEyys4r99uiYMSrGoP36j9sUFoXYG+8J+qZingR7Br+xHce+gJbNk6iT/7y3+F6dlLKNUozClIbG5ZQoWC3LYWNSGrkDRVQsFHTTJJYZhmlHrFJ6dVOxLy1SQmB7fgD1/923jgwOOYGtpKXwNMh7Y1HaTQcp1AU1bUo/C8UlZXUkCJwjnJ3kcC/UZ1BifOfo3Pjn2EC1dP4/LVC7gxe42CfAmpjDS4YN7e0uhm1d08p0MjKmfnomQ+2Mm5sYVDo+icO1cNWQwMj3H4n8TU8CaObA7i4f2P4rG9T9hoI81OSi+lyMvAoPbjUfejF7Qk7Nsh8bxYLdlultdwFZ+d+RhvfPBLfHniPRSrN5gFplKOtJWDOlJbC92A8UEob7erQPcCUaWrTkqjw1xlFMOJDdg0uQ1//Md/GydOnsJHX/2OwvwbWzmiz8qpIzeB4/OkJLsznji7qLbQ3t7CAt3dUznJytIWBF8/CcJ28Odhu6g4ouwa8fUKUfGuFH2BTsQtyHgVzdzFanj0Z35D/s3KXyuMcHl1D1OVZ29i0pT2bBq0pjiMshge2oiJ0W3IDCRx/sK3KNeWTCBJk7WHq5S8pi3SVj81UbfATC9FUZsiZSjAh9IU2EvaJTKLe7buxSvP/gSPHHoGGwd30LX2CVcYmp7ImmavoK0NedJKRTst8KdFY/P4+szXOHbqGM5cPo3r85dwbe4cForTyOvBbkXTP1UKdIZl8x0NRlVMTUWtvOiumY6sjIMyddfBPR7sWhaEHnJXOPzQZ88Ga8OYyE5i+8hObMpuxUN7HsZ9ex7Azg27kKJGr+5OAl1au94eVifXBAlqhsc+0FYfLfHyam0ep658hjc/+kscPfke5mdn7eMMRY5HkJVA17OCBowP6rxAMMG3m0BX+ZtpdUJ+Y/pURdrTJVvLIZcexvZtuzAzu4BrC9exUF6sj0a0EZzxhasN+ldKgvy5Gy4fBudGaG9v9Gl2AbH+xMOCpS9UZs5r49rH02RHtMcRZRfE10NExbtSqBxdOI12YqGuIOxgL5c1ghGuNOJeIW5BRlZ0YK4c9GnhhUKwUx1ama6Z4cIwL7xt3yilmEnY6hRZUrRTu5aurqWVxUoRs0vXMT1/hVpx3gSIrfywFS3SfoOASDq6pKhhUJjrYV5Nb6wmkWNDTRbT2LPtMJ555GU8+sAzmBrcaoLN+ZbPoFthvOwDTFjSKxJU8d0yyBLF+A0cu3AU7x99B7/76l188s0Hdn1l/gLmi3MoVAvU4pg29SnU4PV+jl+m6UxN1zizTozH4moil5/6sd6IXR7dW388lzW1Zu1qmWFiK/k8Zmau4cq1c7g2fxFXFs7hevG8fWU+M6RdA/WwVx2X6zwVhkGRCjQ0NSPIGOIIYHJ4I0ZHx1isGRSWCphZuIGl4oKtwmGP6RwHMF6LyZetiOPX7tLN6mJowErVAlHZytSpeI81Xa7g6rRWHC3Yp+L0TkZjdZbIpaMtFcFlZHtrs/MCLExBHTd1gKzndq+RiBtvxwBWiah4Vwpflpa6UHArCfk7LdBXD4Zl4UWEaVbWVAISwszZDBeKpiIKFCKaQ5bGmCY/a+IlgWRGOz3n2ajmqT6VTZhLkJtwNGEuZmf4PilqmWZfoaCRMNcXW6ShpzBQG8A9m/bhmUdfxpMPvYJJCnOtJAnEoh1dN+BMjRm0XE1xKBVLtWlcWjyPr89+iXc+ewO/+eg1nLh6HNcKl7GQmIF9xZ1CvKbJensQwDBMiEtYB2ZwLoGusJsFufLhhIYjZ2clyXODCXFPEuoiTSHVMJjK2DOIBPNcKM+jks7j6tJ5nL5+DKdnvsZcYRrpVNJWx+RS0tEFrSoP1Y+VH82AXyTQ5U6700wM78DIyBSK1TxHIhcp1K8jHRbo9FPns1Xym/lfxq/dVVx2tQYEAVgZMxuujN1JmeVc5qhRvKDtMaxTtrpw/CannpoQWES1t3Y7X15h8nURqhMiwmsk4sbbMYBVIiretWC1wXUR6M0F2igAXxhh4rHHGQqCXRZx4+19+pYJz257N9FuG3dZ1nX3mqiWakuBzkaVyWZsuiLBBjUwMEBFNBAegW/bAtbSElzbQXXH7oBGStvHVgeonY9h49BO/Ph7f4TH73+O59qHReFpiaN70UYijqJRIRBsxPxprltLJRdwFSevfYnffvhr/PrdX1KoH8WNwlVqbgXUMhyCkyRdbVc9PTBTMEqAGj8TJapzVD29DTLxpLyErt1PzwNafoE7t8aczhWNDAr1apUpZp7ci0jMW5Z6OM2FwhyuXruGU6dPsftkJzfM3A64XRft5TLl3RLqU6lAJdx4yv52iaTnBaNDUxjeMMgwq7h2/Srj0vbKmoJQOt2DbQlFpceFxXKxC8LCD86jwPvOXzdHQRDe7VoQBNCILihX3WAdSoCXqiwtdpBkJKTYGUpZcNlwgl1OnYVZNtCUPnNkTpohO89v4Zu+DhqI8uu86NCgRlvoZid4szfopXyxkHhYTYipe+wTdCrAMAnObE6ozjtRb2Eh9j7YJqytEnw5NaDwXGmENZjArn6vQQYFY/fE2E6QGylt/Pu5V7mo2GoYnkl4mEmSX7k1N/Ime8qgUoGKYwK5xBhG0puwZXQP/sarfw8PH3oWWwZ22EoWm1yhJ4kzifSE7V+iN0YTJhSrySJdaO3KDH577Bf4s9f+tU2v3MhfxWJlFjXto2FvnEqPC/LMDkfrkm1tsqVd9i59dQSCuJ4Hu26YYXK/hlA3UcmgzS3hj7Y3ibzwykqM5wl7GYgwywRK2rZ4cRpfnf4a3549g4VyGVPbtlEID9FJxjow5UV5cIImEDYMJqWRh0xeDORGMbFxEqOjQzhz+jhttH8Jy6yUQCat/Xqsi6Y/CXPt/aMLpY+pV/3oF9RbE5mf+qEjnJPA/RoQjkqhWYgMV4almWyoTkzPQJIaCpGxgpwRVqikIICQaT8XjF13RvheOFze8WViZDZm3wzatVjLvbMMUzucu9sLKrfgbwhKQol1ZgwKBHpn3KqM1/PQI0Tlo9d56xzccvF44eG0O+++/oUXA6ubrUyiVxXvf2avo7lz5wpBH2TWnEauNo5tGw7gyQdfwlMPvIgtOe0PrlGAg4uNviqMW1PkghoxhWEZizixcAx/+d6/xZuf/BXO3PgGS9UFDsG10oHC3pZIqlMIhLkOgRCvE/+WNMKl2FwGArlB9qNd+685v/oJ3q3zz2Nr4fPS2TVIWnWFndBidREL+QJuzM3jxo05jE9NYjA3xNJnyVDDTiWydK6RkPfrDCVZttLqBzIjGB7LIJ+fxuwcRyqFmm3k1hDmmjLiSIEdngvCaoWnvLB67UA+vi4wF3S7vMsYULShn6B8uikvVZ6jukbuIX/1BOikQXbkQaZD414z8dgIZJUIhWdlItNudEWv234vEJ122lpa4xEFevf90G9Vxut56BGi8hEZ/Bry29Gn3fCNIdQomiBHzSG0ptlctNo5Sx3q0ejNSH0EO1XJ2DdMHzz0OJ566FnsHNlja40FaaEmnTRnbyRLkpbhJQoU5XP48trneP2jv8a7n76JKzcuQF9118c0ytRs7SMYFpAdHUKnzedB2rpA96PctGS3Xnyt1m31y8t2OzJ8Wl98Z9bLJRTzM5ibvYKF+evUQisYHM1i0D7KoY7VrdCBplAYjKK1uX4FQ9JEzWAmhSH6mZuZw/z8IkrFopulkSCXdk43tomXBLlNybSkZ5WwUGKUaRwojLYyrsPuulOPwLEdg7podWdXPDRsOiOqXa4aFme8iHsab4/QVKPB6Upr+Tst0KOwvvmtt4AWsNoiMtyaFnMRmb5GtevMXnUvJTGWncCDBx/DM4++iIMbj2AAw3QhASNhXqW8oi8KfhPsCoDD6nJqCdfKV/HV5S/wawrzNz7/Da7PX0aSgl4amoS5NjfLZfWVIIIHaXQOofyFk8k0hy+joPvLufGIcttWLrxstbNxhB5GEEk9hE7MoVSaxYULJ1AoziOTzGBobAJD1LS1bYFWwLiYtNrIisygVUn2YhaP+oxgKptmxzCL6zeu8GaZbkWavnGu9MRRoTSmK0KIrM/uMB8xyrQb2vxGBibL5huKtd1pszu74qHdXTui+XmVsDjjRdzTeNcBq01fX6C3YH3z2ylssmH94VADrWnRVVT6bJ6d9jZFQ+iV/oHqAA5sP4TnHnsZj+16iqJ83Ak0ChmnneuhKW0obORXH5rWxzFmazfw1cUv8Wev/3u89+W7uLZ0lfKI2ipFU0LLH6mZa0+VTCZjS9sUtxdTMhvCvXEemebA9JCLdlfRiHLbFgcvm+wYoebIyxX3EDOdqjIvLhX6ZN/Vq9cwO7dg2yxPbhmjGHYv3FCnp4skRyfMJ51LYLh9ckSaeU9jx4adqGWquHL5EmbmZpzwZ+dXY+ehTbxcZtUbBD1CgKhyYaD+0BHOSZRgXQmc/3oYbYF5i9Yb/jpcg7JruLMrHho2nRFZBquFxRkv4p7Guw5Ybfr6Ar0F65dfH67PWDNFxdtqZy47pE8fpLBPxUnwLNUwmhjF3/nR38XDh56g0NEDUL3g7Yf+wXyo2iQFe42COp9axHT5Go5e+BL/23/4X/HNlePIJ5ZQy1GwUSZRRzV/gkR4mZq6LnXum7bM8HnYDKfa24VheXOnyyLKbVu58LLdThtsabtg7U/DVEjy1lIU7DmUKdRnF+dwefoS5uavY9uOjRhKakM09yk2ra1PaddF+7FM6FWTTvpeqdYHbZraiLGJEXxx9Avki/qiD0uL7rWeXyXkOoBmgd4GptdS3KGOPbyb7q7iQqEEZPF68gifR0Mpcb+GawW1vE+5i+MqJizOeBH3NN51wGrT1xfoLVjf/PpMtRKPEfG22pnrVne8liBPp7V2vYZSuURtfAg/fvYneOrI05jKbaXAGaTIydGxtHPf8ChgTIskpfXloxl8delL/Pydn+L45a+xkJh3HwChFquJA4klvR6u+PRzowLJxZBAdwH7g7sm4pRp3WsMtLpzwTNVPpDAQVO8Zl+hMNfceImXmuzWXHmadnpLFihU8pgvzmBhYQZz16cxOTmB3OCgreHJJnMMz4lzp7MrSJ4ltEeMdsmk/QC7Pd64dP0qilW35ZdmtGzwxU4zrKGHUtYES/My5WV36aa7qzjwIcjsRMvDOMKxgyMelslCHXF4IzYUrzssi57Guw5YbfpiC3TfaLuhl0Vk0fYwwLgFdKsqOireVjtdtbnjtaZBNN0i4ZrNZrFv6wH80Ut/hB1j99heMCkKdL1AVH+d3w56OaliK1aKyQK+vPQZXv/k1/j4248wX9UXaEpOeEmD1VJGi0t/F78X1uILL9Jl59IX3PRGa5ojEPK1LMyd9xB4ioyjyU55dul0HZsT5poWsakR2tm2ABS8pXwRc9dmbNnn0MgoxocnKbA1r+4EulbwOQ2fkjpYGqnRSzKVxvDYOC5euYy5/CLylQI7xaJb8ljjyEBTXSFEpdnslikvu0s33V3FgS8Pj9WFKF9NqWE5x6lzIa67WGBQ33WBLt0hNtRgoyhOAfaxjqBwKWkKhNi4cSOeeOwJ7N6wF8PJcYqsnL1cpEUXeqFRFa7qkhDWNreiE3PH8dbRN/HusXdwrXQFxVSewl4CSHt76MUkaqESXuaPosuYrbnSjQ9uEkyeroSYESPmXtNOYHnURBLotKPeTk2a+cpQuGeT0Mf9bixcx8ef/w6ff/WJPRR270yGBLIyrIfKerwgqmQxlJzE9sn9eODwk9gwupWhaqJK0zxuNMSDeb2ZsBFUJ3IuAlojLH8B9XHL4JSNGNQN5I0+bgLcLLYTqPqcnb6sJBGjLUzL+TIGa+M4uOlR+2xcBvp6+xhpiA7oruwe4iUo1bVKQ81Zb0wuYQG/fO/nePfTtzC7NGMvFKlCXbvUQW5FPn6H+jVlVEPAu/vejUfjbmdq87ReUMekZZpB1+bSqyN1dFppS96Uvs49VGPndhUffP0e3v7st5jHdSutWqJAr1pbzpLXd1srPC+rt5TunrU59cceeBo7Nu7BoL4LW2K3oY5ULyuxbK0OLGaR02vt4bTZB/eC8rfpMStgWobIp1ddsid1OK6e3OtR4gvVuEibG7h1Oe7aBaOAvFBfDVwoPrT1R4w4vBOfpE4kePMuQ2rXy9EvFjXlPeCpTggzZ69QlxG3KXo9ZIsKr92OZUw7L9D14E2/XNpp0ffueBzP3//7ODD1EHXPEd7R/G7SZI/p1ykKn0AYlShgJLD+7J1/hw+/eQ/X5q+ibK+xU2dl2H4PddfkJbAaHNDMC0pTkFZLrjPFM8GVXARmfGqFxRncjLrftfzqt3TSoEB8WvodmFuWi6ZH9H1WfRqvSKG9UFjAYnERu7fvgr5DqjlzJLUcMfjapgqYZa2wkomMzbePTo1gZu4yzp87Rjst+ZQbafl0xU5Fj6b1oeYKR1bajrimXTGVkKpSpR/dJFNGpSLrLNCaLK2S9uwcqkxbpUr/NLXlgZ6jlCv60DnzoPn+TIb3rKsK8mpcEMDXYmC6gN15AJcO/dyddpJfnenoTI+o+ohCXHcu+z7NyyBOkBFu4qblZmC1aUnt6vamKMOMXTH26x0s2l4GGBO9ZsS4iAqv3Y5lrCdstHcfnDZxjTQFxHB6BE8d/j6eP/IT5FJj9rajphOki1oocl9eQELLEylYFopLOHfjNH7+3p/j9OwJFMp5OmLTp7tGXbIBSRCZuhiE40/ozlFgZ3DX4WanO43wusPcyHOU4xa7Vicdy6/JWhciL+AcnDOnbYq0hrwC7TCokqqgUCqgkF/C5OQGjI4OU5xLqLMebNmjBLrKRwKeAbGT1WYI2aEMisUZzM5exNz8DY6MqDUzXGncEuf2k7eqJmZSSCf0OlMG9n3vsjrhNO/TjvW4ffMOjAyO2ScK9dnAWplp5IiL0bhw6Fdk1+wA9NFvLbMsqiOwVTYB6lmmjSSk5TuAlV/9ymD1Zs74C9w6cqXXIB3DkPtWu2jEdRcXscKjE0tzi9Nep2UtWG1aEs/9X/bU6zsMs1SeQwF7h1FRSbBEYXXJUrw6uPObibgF2evKjwqv3U4NRVoWh8+8pfpIs4Fnqyk8uO9h/N7T/yme2v1jimXKGmt0FCw8M71MjqnN6U3QPBZw8sox/PSdv8AbX/0W16vX2L7pXq23Dp2TLAlOa3d2Qqu7huk1cw9dqvG0WEciiMpOwjEIreG2olP5NWx9iCqVZrT61ahEG32Jp7Ud70AyjfH0JO7b/TB++PwfYM+G+5DDJMWv5uMpgaV42xfyWS+0KqoTwDxOz3yKtz/6GX759s/su6/FlL7jqnBZDXJYUmecwWBOD16nMDFKGpnEQHYI2dwAckY5TIxPUNNmvRXyKJD0Pc+lpQXML87hxvw06Trm8jPspOfEEKgkqygyXSW6sw21mB8nwML5VH27mrG7dq+5HOxuvdjCpebPw3YtfiPCi0Jr2UdDIyfFFY4vGrHCoxPlrTV58dJyc7DatMQW6K2OWqNrTYBd0VOru7iw4FbreQ2IW5C9rvyo8NrLlNf2pqPsHWUqWpQ4iD/5vb+L5x/4PexIH5GYkX7JuxyG8ycNMIwrxRN4+/Nf4J/9+T/FTHIB+bT2Ym+tYV95zt6lxbsJuw3O2/w7uFRaypdFPTqetIbmBbq3bw0vTvl1BN3JpYUtwRHMsytLaZZjJlFmp5lDrjKC33/1T/DE/d/H1sHDoNilP82jy2eO4VAbpld1qEV7OnEJX5x+B//6p/8SF5cuYTGxiCQ7VX2PNEtBvmFgElNDm7Blwx5sm9xLcyd2bd2D4ewocgMDFOya4NG+OzZuYLj6acxQxVJhCdOz07g0fQ4Xp8/j6tx5XJg5g+mly7ixeA0z+esU/IvI2D72GkVIsDN9prEHOnZgJ7iyai4vq7d6gfsTwZ+H7cKgv4jwohCvjvoCPS5WNOWi4vRXrdG1JqCTu7iw4FbreQ2IW5C9rvyo8NrL1DVAG7RTcmg5ofY43zqxA99/9vewa2Q/72i3Fj0A0wO4KkW5NUvzLejja5+ceAe/+einODt9GqWU9li35k1qMXnw5+4gtDRmc9i5odlt+y2Pupsox10CsFtMbKuTldaRhKZli2Vb/7g2S0ziWYJ+cYl69/wShqlFb958j2qB4lZxsMNUR8v41PEoCI2L5JsqPoqVMs5ePG+7PWbZ+Q6lxjA1uB3PPPg9vPjYD/D8Y6/gkb1PYOfmPfYpwOHcODKpQfrWvLzqXM9CFJo6Zk3MZG2KbXJ4E3ZN7cKhnUdw/74HsGPvPRjIDSO/WMbsTB7lpRI7o+CVMuZF2yS71UpMl1WuBLw7by09s2mt1mYnXeHKfnkPN6MdtYFOLL8tTnudlrVgtWlZ8Ry6v2qNLq67uLDgVut5DYhbkL2u/Kjw2u3YGKsUGhU2bVK6nMBYehw/eO4n2L/9XoxlJ9l4c7bsTsLcrWswvSz4JXD2xmm8+ckv8btjv0EpWbDhudN+w63Xn9P0SWhPXmDX2uqbISft4iIadTcd44qG3WJZtTpZro4s5TbVpG6LV/WsqNOUSFaY7kUkKYhV0sJiHrmhcWzcvhObs5stTntSoSUyFo6DdGkFOJgZxuSWSXzw8fv2EeydU/vwzEOv4A9f/bt45OCz2DG2DyPJcdPEUzxKYKsbdmlwHbhy6LpVZ2cpU/Akzc0rTtV2OjOI3ZsP4cDBB7Blag9qxSrmr12nUGe/ksrZN1LTqYzlQ2kVaerO1Y8rP0f8WUbCdgHqJ82Q+7o7HlzZd3AcwnJ1tFLECk/pc4cm9Dota8Fq09IX6C2IW5C9rvyo8NrsqF3Zp+kozAfYOMeyw9g8th0/eemPsX18rwlzfQBDKybStozOiQNB683zWMLvvnwHv/v6Nzhz4xiK2u/cBJH9Awq087rpDm3Js2svvjrDheEEw3Kou4ly3CUAu8UEtjpZSR2FBbo9uJSWbhd6sFi2sFJp7ZmeQL5Mh6ks9uzYSxFMQantdmkv7y4Id3TCN2P7w+gzgocPHsHj9z2HB/c/hXtGDmIIG+h/hC6k5+unJx9ubbx8dyLT/CWJRXRre8Fbh6DvKg1hkCOAyQ1bcc+2ndi+aSPKhSUsLRRQZbqTFOha5mrPYJgnDvIMMpRj9yaxi0fHMOrXLTdaNXkrdnew6264Ge2oDXRiuWtx2uu0rAWrTUtfoLcgbkH2uvKjwmsv02DYXdGzryQ2jkzgoYOP4on7n8doYoou2CQ5jM4lNeniGqjzpw8jL+L8jeP47Qc/x5dnPsGNyow9wEvaQzOhIY7MW5PKRcPOeajbtbTiDqg7b0G7uAi5i/bQEXaLaWtz0sWPIZwFO3cW8mZZZRlopOMyL0FL7bmWQqlSoyCsYXxiHFtGt1EoD4aCCoVhNaD9XzIYHdqAXZv3YcfkHmykZj+EYd6TC9fxOpGq+m1ceXL6eoNcFKzVpASytGzVsOs8NMOu24PJAWwensLUxg0Yzo2hVADm5vRA1bkwgc7RWVWdlflmWm06RlDq/TECLTfa3MnCyqxjCKtAo4S7IVa7pJNIgR62iBHMemK18qUv0FsQtyBXW+CdEBVeW5lqPlQfUaBA15LyHZNb8PIzP8C2ib32ZSK6sIapHQDVSMWgLoQadfNpvP3xL/DeF7/ChfmLKOkbDtQcGaj+8tqgCFhaOtzrBvPCttjqNTK/gRkZT5RdALulfNjV2qByU4JNmNu8hkLV5FUKZY6Maklq0Sy2UpXCcbGMQ/fcj+GUXuKSr8Avjy41EpDqgjmaGtiEkdQkBhJDptFLzDfqh6af2w6OYQqCbRAty3Repskk2ahBsUrwa8ENh2iMI8VOYwBDqREK9a3I5UZQKlUxv7iEQlkf8dYXqUQlunfdgQvBYjQ0zlrQcqPNnSzqTNULKNPxEKtd0omVfAen3e7dLMTKRwR8l9yEpuILXXSNwjNbmNaKqDBXS3cB1GzT6SoyGSCXHsSGka3Yvf0QklqzzPsSEdVa2ZasOe1Qs+da8VLBbGEOb334W1y8cRaJVNVWUOQyOXMVXWDt5N5gXBnZ5HMkOtl3uBNYKrWtJHhzzahHHohnBsycmI3eok2lWQvUaq/PXMKXX3+Es5ePYVHLPvXglKJVLyap1J2IdelS3WhSZoBC1ubKNW1GtzqaGLeIAhK8R29poyWR7AhvEq7enRYvqKsYYIeh9Td6g1S7RQ4nNuCRA8/gJ6/+bTx879MYzW1CujZEvsmQKMjr0ywx4dPZCUGye4s46QsXUBdyD40a6VyX9N4apHYuo6GHoTy3WNXRyb4Vq+151gqL9RZEHTe/kRprm10VxeIiEtUqdkzswcMHnsND+5/AUFIbcEkr549CQy+p2NC9mkSBgma6cAPHL3yBtz/7NebK10wz11awWmtt3/40idIZSsVq+d2lyZ0th6h25ctAx25U9xwKxMfd6taTc8sD/3U7f0aP9Wv+JQP08WsJYr1JKl1Ya9QHU1ls37gJowOjLHGK7QqFtLR7CzwQ6wrfx6FweGZdLUdcBt2Qak0rzWlXODKo/1g/7sPgDInunBeXNi/ItRZGpr92K2y0uZpcatGqpuDcevctO7djqVBghzSNfHGJnirBmns3YgjDrput7LKVouBl5nKI1z68Gx9jJ+IxVngBWvg+Kr8e3e7dTjD26AjlN0SW/05EKL+t1EfvIPGQUetFGZMTm7Br2yE21VE2WFk2a4UG1m6W2tr0wgx++94bmC3OoUINX0JBswlGgdPl4MNdKdWZ42bDRxvm0RZy6QujOfVeLIucB51J8joqVubxydF3cPrSUXacc9K9rUH5kUlrfZhQF+lCbvRaaM1NeQilSgHVRIlinHYM36Z9ktSzU0WUk6REMbineW92LDzXnmxlDQ6CDsGSSUNz9zaFYksvRRobjGAyuw0vPP197N15BMOZcSQqTHOgpXv/dbqt4EuyFxTgts3r6tF9Dn0FUM8YKqqOWFEP2kNYtD2MOm4+1uKu1c6u2PAyyOHBA0/jifu/hw3ZyZB21XBvW7XSv15w+ebSMfzq7Z9hpngF1TQFQjLDYDQvTA3dS5l1RVTe7Gjn3bAWflnOa7dcx4k3SXW6uFTC+MgENm7YionBKRPATkuif5axriQrLTQdSCY7FT4dFst5OnMf3iik57CI67heOYtzM9/gxOUv8PX5T3D09Mc4deUozt/4BhfmTuLy4lksJmdRTNIv+3KtXKlqVRODVBQOSgUFepAP3znpajQzhMRQDbOz13B9+rKNPAwNzwYrgxa72LB4V+u5HXH5YC384svKji3B3Ckael+grxK9ZrAod612enCml102jGzEY0dewIO7n6LelTO90KZYCNdoqdVRbUumari2dAmfffspPvrqXeQxb59Kgz7oQKly8wR6O1zeli+buOXXa8SJV/Wh5Y3lYhWTY5uwfctOdrYZ+nX3vEB3jhuk0pZAV0e8xFopJ5ewVJvB2elj+OrShzh67gN88e0H+OTYe/j0+Hs4eupDfHv+C5y8eBQnOBo4eek4Ls2cx43F69TRi0gPJJFlJ60QNT9vEdjTUSKI3uK0BNh3qzA+NoJSIo/p61dsGwG3xbCmdgIoD+6wOsSs37iIywc94ReG0RpMX6B3wK1roDq4816g1wwWx51mRodyo7hn+wHT0HdPHDFbvdzvSt89yNNcu77QrxWJxykE3vv8TZy9ehLlFIf0aYpx086da/fKv/N1M+Hyu3yebx2/xEgbf5otuT49janxjdi3ex9GUqPBncZ6civjgOrrv607raCQXLSR09dnPsMv3/oL/PLNv8Rn33yEMxdP4drsVSwU5lGo5rFQnMfMwg1cnbmMC1fP4/jp4/j6xFFcvHIBpWoRE1Ojpmnrp1lz16Ew+kCgh6HnACbUp4aRSSVw7PhXKNdKtupF+fYbtNXB0+VLowVWfiv21RFx+aAn/KL8twRj5dG77Kwb+gJ9leg1g7W6c5tl0Y6mF7f6yk4mOYQ9Ow7h3t2PY/vwXnuKpjcB5Vsu1VglLpIc+muDqA++fhfvfv4G5iszKKW0g6BEiUS+AtTBD8ZvLlx+LQFdEbf8eo248Wo/RpXeUG4YEyMT2Dm5izJUDyHdy0b2Y1BuDCXp6mpJurumw07eOIbX3v0F/urNP8eJi8dRSCyx42Wo1JbdLucVlHVO0tp3U8A58qqmaJ8sYnb+Bk5SuH/++SeYmBizj3dnsjlk0wOueEmKz1242lZ96+HpkHaIZDinz57ApesX9XIDcvSbTqZQrTa0dV8SZvqL5RCzfuMibn30hF8YRmswKrUeZmfdENF/93G7wL4qE6Iq1btioYaNUzswwSG+mmmwAMJRAImBQm0Rc4UbuD6nzZquoFjLUzuUhph0a5cpHOzL9IGfPlYOlV+FArE2WMN1lvHZK9+akHbat1q/yFVOWQ8w2cWWSDIXMYt3TvwWf/n6n+GjY+9jtnqD4VB8pynM2el6UgccvjbS/jvpEt0uUcOfZWd9BRdmvsV/+Ot/jfePvolLCxeYDnYHjF7dja9lpcY9bUnYyhmtj981dQ9efPJ72DC6wT5lWNNe6tUKkxwwlTwF/gW77OO2RV+g3+ZoNCVBTTGNjZPbMDqwwWz0PMvcBC3NGdQAeXJj/hquz17GYnGGQrzIBi5Bw7u854b+bOqkPlYHlZ0EbC1bw42laZy+dBKXC5cosKO0WzcFQ3GMG5VL+ODbN/Gb936BL098hKvzl9gNFFCoFumGoysK226kj3VrK3ZRkrEhmUcpMY9z177Fu1+8gd8dfw+n8qewwFDVkbj46Szwk+JIL1nSxEwKE4kJ3H/wfuy5Zw8GcjmUK2WUy9rRXbwi3gh4JCDfOfRxe6Iv0O8gaHZ0IDeCsZEpDGDEKi942bMJGlLrVaOrNy6Zhl6S1pikmGGDdB/GkBavJusgZazfTFcO09CTFZSSJSyU5nDx2lkcO/EVy7vkyjM42HCd9aG14AVNs5z9Gq+99VMc/fZDzBYv2Tz6Qm0JC2Vp95VAcFP8i+i/jUygk6qaltOqpTxq1NYTQ0WcuPo13qGW/rsT7+Maf0qLS4MZtlQ1xR59MDXE1AyIozCV3Yj7j9yPsfEx+/JRWV9QYhrk2At2//tugPlUVkPZtVNvF0W3CXoq0KPyGSbBm32sHHqlf+PARoxWR7UlFH+ya4YaroRCCXmcu34a04s3kMzSlV5ZN8ldtReTkmy4Sc2Tkqyh3pKKUaTdSPDm7QcT0xSO+nqQ5rZn8nN474v3cDF/DjOJGcwn57BAzXkWNzCNi5ghfTv9Bd7/6g18fvJjLNbmqFkX7dN/9haqpjwYqqbFXMerpyER5O/ZfU2h6fuyNetYEoNVnL7yNd7+9K9x5qo6lwWmUlMoNES+F7c9fIZIeqd0CI8ceg47xw6aolCrkCPIK3qpyU0f6VhxQr5eH7dvvcRDl/Tzlk1z2om71qHb73ZBzx6KxoVpCjHQ64dhFlxvg7wpUDl4GqqN4cDkfXh839PYPLbZtHBzE1DAeRxm50kL+MVHf47jZ79BmVq85s31WTL9pN2lSXow5oskXDS9Lvu1IV5aes8vy4cnzVt7jNsUhjbtomC/MT+P89cvYXT7KAZzA5pIoTi/SoG4iPcvvI5fvfdzfHzsd5grzUCbNNbSrJFgOsPXs4S6VsIYJQPy15GkqRz7jAWpzGvWfuEGLp0+h/v334eRxDDSyRx7H+ZJjrwaZ1nUcscMcnRzY2YOc/PTmC9Oo1gpIJnmeMDcBhq+DhGyK7KszC7CfpWIW79x3ZH9dbTzNjAIN6py584wyxUhblp6id6tcgnMZcFMxnHb68Kw4G5++cbORxx3I5jAY7ufxkO7HsX46BjbpfPDJt2UtSKFhzTCN794DeeuXURZUwN0414hd3OwGWrmeqOxwdIMwf17XvZrgUvK8unpPb/EiJM/vQOg5aSSktKYi9UyLk5fxKkrp3B8+ji+uXEcRy98it98+XN89PXbOH3pG8zmp1HRx7o1xFI0JB9bkzC3NJBMoPNeyN5dB3aM29mpc6A2ndDuPUtI6AF6biO2je/A4IDbQMwiUqWLKKwd5+gt0gHkl/K4cPU003/SVrz4Je061jmF8chHA7ymXRvMLsJ+lYhbvz3jgyCYem6XCdbctbjpNU/Gge+r+7gDkEqmsHXrVgwO6ms2asiNphY0NzM1QL46fw2L+SVqjWX7EryDE+iiegPVmT/tYxVQo3UN144UqIXiIk6ePI6PP34Pv/vgbXzy6Qf46KMPce7sBeQLeuEr4sFHz+C4QdMj+VIeH33xEa7NX6Gd9p8hWlq8T4UWVW7evA0TE5O8YudENqlpOolXjnj+XeITn3GPRkG0022EvkC/g5BMJjE+Po5MRvOeQjNnOd7S0JsC/do1LOXzbtWCBLp5sGZprvroFcKCmeVLLTk3oPfxyyz/WVy/cZF1cZFCvmACUZ2ySNrbemtwpUoJpy6cxLmrZ7FUuRHYhhBiBXXzY6MbMLlhIxWG4UB4i1scOchc3zT3sTb0BfodBgl1CQLfFn3zCotpifbZ2VkUi0V7QUQPeOpN0Rw612E/BlrIrs0+Ej7EesjfQQT51tyHDP1q6jxFJSTTetCpDnUJacp4TXyVykVUqvoot/OxLGl+3c7DaL0OoTEXAy1TLSWLOH7+a5y+cpJCexHwo7VQEDotMd1ahTMxMYVNG7cgmxmgraaSHNW0CbzERZDXPm5P9AX6HQQJ8zFq6Nms09A7NS010AKFeblCvSuRNH8e5ocOqhTy7km+gwkjXXn7FuoMn4rvUkP3pe9JUBlpsqtMmZlnmbH8y4solufppGgbcGl3xGrNLQl03wK1Jxt1sieWWlcYJtOdFXaYOqE5XfqIhT47+PnJzyjQT1nakFK4ckuEgtP0il40Ghkex9jwBKjc85ZW3UiYa7JfPZKEuvfcx+2IvkC/k0C1Ti9/pOoCOrpxa4bcTbe4vTlE4Ve56wi3zaBxW4iB6akzGEB3B3c/TGMNS0gJZ600oeCmINcGDNLW7dukJrTdMsDmV3wd6ddq1526Qxr6AjuU6eJ1XFm4hKvFK1iqUUu3ToIIgtEgIJXQmqkMxkY2YGpqCzIZPafxQpxkQn2lAt2nU9THzYBeHmsq9lbqo3dYa5lqmJ6jQE8m1bA6hyWNenHRPRD1biTQveix4b4d4kNKejMF2ntw77uFlgzXpyFkLw3YTbk0KJjmCAnDjkVmBdogM7wZojjQeKHIDmWuOINL0xdx+cYlJlWrYIL0BIE5ga7UpTA2OoHNm7YgndJeNFIcSLZ2UWSMQ4oDn1KREJgqKyOFG5zHDnN51PmyK5lLc7+u8Nm/CVF5JC133aiPnmDZkoxR1lrZos2XbIlUlxDFtAuLixToFCZCWEN30txCiPtQTjGxGbT8XJIV13cTLt9uJQhJZSE7m/OWwJRGTpJAt2vZu7Lvhkb5Bj8GXDcDsshiQB+BRoZaemUOF6fP4+L1Cybk9atDSabhVIQEhjGKifFJ8oa08oBMQxdJqMdAfd5f8fhzD18GoqCTsNu6vlkIp2f9ENRccHVzELOGegtfxTebIi1XS13R7NhVasOTe0QpDUXkGkvNzkVicJLaQpV+2Hgb3+dsNJBGmO2kRl8s6eGbrtVUGo2mudk0HpbWie7kyr4z2UJNLl3QLWhx0zO4fHUmwZs3E4pTdSKBHdSNJUN594Kw01QFr+tuV0bWgfBsOahxD2T13dASZmeu4er1i7ZpmyZ9wnB1HrjHCEbTmzBOGkmMIVfJIl1Oalm6bTmQqIoXkiRt0RtMyYja8tjg1SCjNPz9Rl7qaE7STUA4rZ0Qld4I8vkKZ/em58dBddgVYc2gK8ltD8mtlI7zI1rKt40IJrGn5CKOgr/hHFkKTWPxUII0MNKuHI3GoLf1tJtipVxDqVhGIV9AYSmPcqGImlYmVMsoFwt078LthkQygbExt7zR4qNzvdFoQlnC2RcKISW9Qbwjd7IP/XRlFPh3DCwKwPDV1zSRJTHkZpWI5LVIiuc2LqL8thMzatMrIp6La81eHbOEXYZkr4Pynuo6VH5Kb0Q8UVVr1iHSwZ23+G2BlIBUuYLhdNqEej4/y6i1C2NLhxBUkwzt7bJ74jD+zg//Ph7b/zjGtGfQUhXJEkcb5MsqSbJau/Drs3aoplGtMG80HS8rFNflaGOCRvfjY9R9T4I3u6M1r50oHsJxdyPBm92hqJmCpp/+dk+/1nTGTeoKkdr5cu/2Q18WdGLu5HQ5iok48XonKwh2WViYywSoOpNwdfCi0XuU4PQ2SXvZpFLhYLisNzgp3lNZ5DIDyCVzGMwMYfumHXj2oe/h4f1PYojD4m7IJxZw/MKXOHn5WywuLVoa3GfGGDaNeiOz6Bup8D+7EWK4GEXcBotnFf5WCxfX8hHGnWaKCxecCivcQmUpXUkkIae61rnsu5NLXyu1gG5as2EuWyy1CZd9HrrK+KllbxidxCOHn6IoppBmJ1PX5oJojF95V9+hnZiYwM7tO3D4wAHs270bkxuoICQzKBXKts2BtHNp6Ul9kJxKgAVgqn5A9TJxabIPbliMvhzCkDui1XoViF+/crc8RddHK0WA1taWOt7ufG8tSO14ebyrQLeIYyBWQSoPsQs8HuKE5130MuZ6PUfAsadz0GAICVFBL2pLc7FtlWjqwWUwx0q36YS24MpRTxrGzql9uG/P43jk4LN4/NALeHT/s9g8tFNNzkLqhDwWcOrqNzhx6TjmF7RsjhWdVkOSRqn4LSpaK33mhdBJmELgpZSKVutusPBX4H6taJRzd/Se/4ITIhBLkYgbb3dnwU3WYd2ZtxK1eNbGYZkEhS5NLUPU3PjD9z/BseAwu5mcbe1ioBkMGoLLJHKJHMayG7BtbBc2b96OyfFt2DKxC/ds2o+R1ARqHCxWJNzpWi9TuQ28pCa4DcYagt0LcFFYmHtTCGIOW60z4tfHGhIV+LVjSzAmV9cQdCekdrzUWaC7hFjUyyJWxpWHtRRQBOKE5130MmaLNjLAhqVj00BoktwQNBDmHPpKmCcTEugcqpsWTd1pYAyb2Hh2bzmExw4/h6fufRlPHPke7tvxJDYObmdDG1BQXaHPJ5ybPYVj577C7NyMxZ3OcGhsHQibmxcITQHpIkwNqLErN77BtyKqDmQVo2p6BpeG5SPsNf/FRS/idUHwUA9K9eiuZdUah+6lpT3bbFACkxOTOHzwAQymx5FKuO0jvMwNC3QneN00YJba/CDGMT64GTum9uDQjvswObARA+kcslkK/lwK5WrJfcKOWniF6obCSiQ0GlTE4ji39sJlwFIcQJYhrmpO/roibn30hF8YRmswVgrrkN+uGrrFp8TYVXfEyrjy0IsCCiFOeN5FL2O2aDsGGNxU2QVu1HDUTOwjA7ynj/km2cjSHA6nE0MYyEwil9xgWvnj9z+DH734h3j+8MvYNrET45kNGKJGhQrdhl4Saoa1GItZAv3i4nl8eepz3Ji5YWlIZ9iw9BYj3XmhLjSaU5DmOoXQctmMdmYVZOfsdehEvYPjg+XD7DX/xUUv4m2UpzeCtunzTtPZOHKTeqztSg2ZdBZTU5PYtX0vJoY2U1QPUpmgG5IX5o6DPMm/nvO4MzdqzNFXjjy5GXv37MOee/ZhbHQSxSJVhTLZs0JVhXExwiA0CXQXhgl0haXADS5GuxQv1u1vDuLWR0/4hWG0BqNSXY889wX6KmHRdgiwbm2MyiuaJtDZciTIM4kMMnpQVqTuUk5iJLcJU6P78PIzf4Tfe+mP8NjBpzFKIT6SHGMDGqCWpIdaFMoMS8E5XbkRufbSLrFFaa5cX6HRRxRmcB2fHv8Y09PXTTMvlfS2ony5huSPjfKTGaYQWi4bcDfqQYRg2W6y14Wn3sPlY/mwe81/cdHTeBmUhVYP0rfRljjEc6x0exBXrWB4eBD79hzCjuE9FMsjzhfT5XjBkQ/BlA+SngDo8adIO0vqviirScHsFLZu3I37Dz/CzmKrPf+Zm7uBpcUFhlVFQSut9LZy4MtVkYS4DRkc0U7WDo2z9Ubc+uhJvTGM1mBc2QcXPURfoK8SFm2XAO2WDmwVEpxJCnIJ81Q1Ta08g1SJzYO0aWQznnr4ZXz/xb+FI3ufwLbRnRjlEDeXlD6Uo+DXAyiGI/4X2hT0mq031wNUvbotLGAWn5z8EJ+f+BRz83NMB5uX9uowgU5YgCKe1stPZphCaLl08JbiD563epFV3Y4nLjqHGHW2Urh8LB9ur/kvLtaH70N5ptFaD7rWw3DruMlA2Vwa48MbsH3rXgpot1eL2/q3wV7yHhbmYhUjObA6pAuZiSzvi+c0dZPB6OgEtmzahM0cBWQyaVy+ehmpHBUXjgxsVYfSoMDrvKepR13b3500meuLuPXRk3pjGK3BRLWZXqAv0FcJi1ZkTB6gNQLfEmi6KRatCc4iUeAAtjaKvduP4OlHXsIzj7yMwzvvx0ZqPMPUfdRUKPJdB+AD9fGFLh1YP9LM9QX34Hqmch2/fv+vbJVLsZTnfdeg67M19Ualc4ZkgfnAAwpfRsLfCPijxZ0FW7drvRmYPYTjg+UD7jX/xcW68z0vw0JChrnhX18esucmWl5ZSeOenQeRy44Yl2kdjOcGkfkjOTHfAt3wZrCyxXUXVQwlBjAxOImN41vdktnhDPK1vNsgzvYUYvz2Xro7t2sLT2H4WAVvri/i1kdP6o1htAYTrqteoi/QVwmLth5g6CIciYS55kokTGsU0RTomcoABpPjOHTPg3j+8e/jmUdfxT1T+6nr6Kf1K/q0nLR5Nz3jwgmT6kMNo2GlfTgcElgszOGzbz7Gbz9+HdeWLqNa1duKEuZy6fy1CnTNobqQ7CSAO/e+AtcheLdBesJeCVct8tVw14BvzL2D44PlA+01/8XFuvM9L8NCwhnuWt8JTZIPtTFYfr6E4ewE+TFHAUsFI5EjA2lCxbVzkRPVrDtp1lprb/WruhQUJl3IoeqRRykfWpuVxRBGUlMYG5/Apt1TKCSXUC5pt8kyR5EFutR6/cb8ugXB2DRHHwQYMtcXceujJ/XGIFzpunOHuk00VhltV4EuxMmQXMTKOJ30pIBCiBWe+JHG2mP2obAyTEMRPDP60ENujFklyHNIVwaRrg5hODmBe3c/iL/7B38fTx55DqO5DagWavaAtM7rlLD2EpCEsA9W4Lmal/Y717y4PjdWQgF5zGGhNo0bpcsU5r/Dv/iL/w2X5s/yzoJNtViHQpXLD30Vjs7spH7eArkNxx3pKuwgCLFeH2H3TQHZVY/ZICZfqd6cebOx7nzPS3FcOGt2Snfa9kGsJF16YSGPkyfPYmZ+FsVagQp7CeVUHuV0HqVEgZyiDcVK9Cs/EsDSqIPQAq3cQdfBqenzmhokv5OPU0mJ9hzu2bQLm6Y2oZqvYfbarD2ctbeOA4/aNsG2GLDrRrj1YNcRcesjfr1FtqJmMKh67pYJdrX8knjyv93VNSUKOE7QHRksDNnFTKgTPssjTnhyobTEi7kTvG9nunhFrelsXOtRUi41pCNS5QwGkiPYu2U//nd/77+wuXLq6kjXsqb8uGzwxKnLFOaNQa9ksvE9sVguoVQtIpGVOM/jxtIVnL10AifOfY1vT3+NsxdP4Nr8VeSTBTbUSr0cbS7VAlKzlh2PJrS9vk80lWXj3HIpt3WHHroTlGvYK+GCarEMYL6sP2wLcJ3BtDblsTPiuouLdQ+Pl1YT7dYm0LX5Vop+ahUJ3SyyySFkUxwTJnMYSA3inu17sWPzLuzZsYe0F1tS2yjSa1RH9DlyavI8ujdeFaAzrP5MxqsevYLjajWPeZp6I2IWF6bP4PNvP8Zfv/lTLNZmUU7ksVSZx1JhCYNDQ8xLa0ex1ra6PHrLB0FbspxHQFnyOaobZrkixElLLIG+HMxFRCVEMl2sAmLRRAqQFsQMTy6Uungxd4L37UMjE5pV50RKMx9IjqJWSGMkM4Z799+Pn7z0B7h3x33UYIZdQ9Fr0wqi3jAa0AqBVLoh2AUOYnHy8gl8c+aoCfEL109ivnQNs4WrmC9cx1KZDaZWZptj42XZSAsyjd+n1QS6i9IJdG+aA5cn3RRoF9jKUcO+Dt11LuruQvXROAsQ3LNjKK8hL+sOxy/LRxiXT+Ni3cPjpdVWVDSqXhq672rfVaWz0yqWLEeKExjJjWN0YAJjotwk9mw7iP07D2P7xp0YTYyTBbTBbhqlvHizRN6sIjPgX3JriVh7kqUVcYGifQZnpr/Fh8fexXufv4Fz10/b6LGWIpeyp7GPZAf+XR5CfLdOiFsf8dwtI9CFIJh6zpYJNqou46SlL9BjI+ybYVm8rSHy2mvYPE9VcshWhjFIof7goYfwvWdewmP7njDNXK9saLY8IYEehgl2TahQ/64uomYPkoD5yhxOnD+JMxdP4/TFUzhz4RQuXT2Pufw0tZ05VNNFJNmAkhk2EmrjehDmys+nKZi3jhDo+tiFy4odDP7Sl5pj2AacPNa9hh+hW3003bMANAersnRWNwPR9daOOHy1Eqx7eLy0uoqIxqyaqy/kTiuwUkhW9Uaplsfqwb1e/x/CPdv2Y/OG7di+aSe2bdqBLRObsH3DNrqjZ7pPp3Lk40GG0dDOFawFLS3erMs2kpzDNVzJn8cbH76Gj758n1r7WY4yq27aJ6lpQQeXB89164e49RHPXQyBHiBWeCoCd2hCHL9d3xQV4gRiLuiu1WWbX+ewzV27RUzQX9z0KdbVRtNAIwQXbaMCTRN20pg/mRykUkPP1oZw754H8NKzFOYHHuMAVku90kZ6caOeKs8PukxofryAEoemV4oXcPL6MXzy7e/wxie/wmsf/gJHz36KCzNnKORnUM4WsVhdQJmNgm2MNcpDUmuP3fZmgk+1pdlfCDz3ObDkqw6D+2bw0LHU6vea73erj6Z7wanC6OKl53BpWD7COHy1Eqx7eLy0+ugQTT3bATlWc7UvDbmadE9lpEjorc9itYj54gKVh9M4dfEELt64wOvrqKRmyWMLyGhJIoU5x5AMoaGU+Oh98uwtaIYqTh9Lj2JwcgDVag1LC4tYymu8ydEkedf4wPumZx/OeiFufdwSPqCTqLqM4/fmCvQo0Elb4r2UWQ7yFjN9imN5l3EhbZeJ1AMjA0PmJXUdKp5OmNv8OYawa3IP/vgHfwsPHXzYNHMJezcnqQWJLami11pSDzrzNvs4h+v48vTH+MUbf2508spxCvFZFFJ5Cm82BBEbQzLDriFDDYuCvF4cSh4Nu/Qn/l4U7L5zUHcaUadhuLvNLrrVR9u9IHxn72l90YirO+Lw1Uqw7uHx0kozZjRhZwoqlSJnUi7bdLZGhSQJ9jKKWCot4MrMZZw6fwzfnPwUBY4I04PUzocpnC0kza1rpYwL15OgMZi6CQl2vVcxlh3Hhs0b2HSSOHPuDDX0PCqJUsC7rouR6f2vF+LWx7rXWxToJKou4/i9LQT6qkG/cdOn1K0lqmaQTanRiFVdoG6uulZVgiSotb43jbHMBvydH/8neHDPwxjPjEMrzDXVImHutHPHxAqjVCuzUSXZfBYxU72Gc7Mn8a/+4p/irU9fw4mLX2GufAWVLDWndNEedkqQS6uSdqVGqGRYHi04NaMG3Lk6obCtc68GJE9WOu5v7ox0rwuci2ZX3eqj+Z7z6+O6WXBxLR9fr9O07uHx0uojZjTeme2zb1wg5SQgKir6OIa+bFRN8Vz8po9dJxZxdfY8zl85hbOXLuLG/JwJ9eHBUXJ1LghH+nogmO2gVLllkSX+1AKG0sMYHhqhwxrOMqx8bYG8nzKq6rOJ5i1mRlaJuOHfEj6gk6i6jOP3pgt0Pw0QRrvPmKC3uOlTHKuMpR1a121LutxQUXmXeq29LMS8lbL2I5/E8498D9975BVsHdpGRnZTLc2auTM1zC0kqXXTvFa5hE+Pf4Sf/+Y/4ouTH+Hy3DnMl6+hmJyjIGejkuZETUpTJPYwSdEH3YOlQsUra12YjRCUeWtZ8bJeG8EtGT513eHdNLvsVh9R92Rntl389RIuDcvHFYevVoJ1D4+XVpIxozFnxj76OQVASxVNFBtfUacmf5tgN+WhjFq6RCqgkqLaUSji6vR1XKRgzwxkMDA6gIy966ApFqesBI9/LK0al+ooK7WBodwQBsdy+PbiMSzW5pxDwj6VKG09uF4vxK2PW8IHdBJVl3H8rqtAD27YqQOrM6jkMFZdaPQWN32OcXsEacUm0P2TH5GkrOYS08hmB7F3zwH8/kt/gH1j+zHKn5hZcOnQz4tgPTYqYYma+dniaXzw1Xt488PX8Pk3H2GxPMN7ixTc2odFHx3WjokDHA0MsLFkSGmk9HBKb5RSwuuD7u6j7mqQikyF3SjwtrLiZf1ucMu82W85eFfNLrvVR9Q92ZltZ289hUvD8pF1y8dqsO7h8dJKMmY0clavQfEOeUh8pC0q9NDT8asfwTnS0tlENk02T6FUrmJ+YQ7T01Q28gsol/IYGMpgeGCYPqW66OFq3SvTq1ZCvxoRMHxtbTEwmMF8ahrnpk9haWmpPu1CR4p1XdHr+gi3s26IFS+dRNWlq60AHYJZX4EeE6suXHqLmz6lbrXpawMFuW0NapqMD53ad8J9nWbb1p147LGn8PzuF7XxqFtrHkqnS0njWptpnS2fxdtH36Awfx1ffPupCfNEpsRGVESSmnmSWpL2z6hhmEJ9iIJbKxIkyNUQGTuTo1ViaTYGC5lpc8vBGmgrK17WXQS3ZESVldnLcf2G3LhGH0a3+oi6Jzuz7ewtFiQDukRdh0vD8g675WM1WPfweGklGTMaY10zJcwTtmdQivzkN5CTvXGShUdeorqtLZ6r6RQqtoqK48pq3gT53Mx1zM9OGzcMj4xQqI9RnA8yLPklvMmwtIImxTaiaUmNcjObgNPXv8HMzAxHuBzxMl+tK6rWA72tj/jpjRWvFbsdItHtXk8EuhDlLp7P+HG0gd5ip89+PQJbg3soqqrkMDKhBkCdJDEIvSP31IPP4tWnfogtyS28GqILsjrd6v1OpaGRjiI18AVcxyX89pNf45fv/AynL5zgUJf2tQKpiAobDtuWDUNryJHUaShEi5lUVegMU0zl0qSpfDoxf2G4smqQu99w5C5dSbnScmTnFnTj2o0wlG+ZGpmI5J1u6tKimWS02XmThkVSR/g8DOfSmSTLhLfj2TL80CiD7ojLV3Gx7uHx0uonZjRy1iD+GJ4EuIpT7y8YD+kneznSPR4lbO3LezRtPEq1XdMkCwvzuEptfX5pHpOTGzA+OIoMtXCLQKDnqnQSPT/V1AyvS4kle1CaHEyxU1jClSvXyPN6LiQepgPvt442izYs78Kh1/URL2aVszOXo8jkBXbd6nlZgb4StMXBVHWItzssvTF8yl2ciukkGyIQt6K9OwnzqgQ6NY/yUgK7pnbjhYdewlNbn6VuPmFizyVU4pwtQVdVdQhK1iKuVc/g/aNv4t/+9b/BhdmzqFQLNqdu6o1e76PDGhuN+xKMhqwSo/RPQW9zngzXloaxAagRKAaZynJ7tl2aBddIHVxZe1KUjdJXuxK0b7b7OUGeZJqymQGeUdtiK61VOQwvlZHO8L4eGDOANmJDjrLTW6zumuckf24Pe42YXwkB9+c9jkw0PGfatIbetHN3h9TIeVRdOrt2+1ZE+V0L1j08XloZxIxG3s1p4N60b5a1kfjIFAI5Uqj8icelSJD8PkMp8kAymUImk5Fkx1JlCZdmL+LihTN48PABjJhANwlucSRSkujkbbuQrbYGG8SW4R2YLy7i9LkzWKLGX+NwU2vTlTRHbAOs5CCp3WHp7R3i1Zt341LbmXiMFV4A3/gCWM46ePf3eibQWxNqV2so3FgZp5O4BSRXcVzGD88iN4EuPTlVy2E4PYanH3gOTx58GvcM73FuAslZo+CtSADzXLKpWilgunIen518F//x1/8W526cRR5LdCeN3GkpTjtS+E6Ym9pNmCCnjYiWljHnXo3RmbJzpd8glzfnU2lvuhf+he75X/hc4wPmmGdMl4bpiSzSeo08lbHXy202igK+lSQMOtnpxZaGKTtPjI8UdlMrs0QkKNjItSpCnYDVBVNp0KUMy0czGnnrjrh8EBfrHh4vVTcxsmbwzszkwfjHhHiDvCNX66p3Em8YeRumQ8pEhXxbSpRQqC2inF/EMAX91g3jGMgMM4RAU+d9PTFi6CQJdNYnRbr2Zi8mi7ixdAPnr1xANe0ewpoXS4hH+Lwddpfp6e5qZYhfb3K3PLnwlqMI0Npy1vG2u7fsm6JxEZXxqLKIW9yxClIZiOPOybxYMcerQIpwc6ai48CzlkKuNozt43vwJz/+T/HUoeewKbGdDKsW4opXgrqoZY7yS4Gst+c++vYN/NW7/x5vf/42ljJlFMnIvYCJ7CAb4dz4vFmKumSzuQwYlpUff2xcNsUiYr6r5QRymSGeZ5DLDmLbxu24b/8R5Gyu3+U7DM90YTg7OwZo+NP6nySH4OrAqhraM84CO8JvbM+ak5hbukJNbpFKYBIlejOdzgJy2lxUXTq7dvtWxOOD+Fj38HgZVb6dYM5CVWQjoDUgYHOihtHyMO6dOoRXHn4Vh/c/ZR9v0VsZmmKkykGSYiJSDauuEriIM3jzq9fw7375rzFfnUY5tURbV/eWTgu/exrtLstlbTlZHeLWbzx3vjBDFSQEfl0+7bQOX/frKtBb4RISr8BjZVwZiOOOOZSrnsVLuBkA/qppo+HkOJ687zn80at/goMb7qNOMkqWpSMrXU2HOIGut+bExteKF/Hnv/5X+MWb/x4L/OU5HC1piUpP4AS6z0ndDPJmSfKWEWiUgVy6BueEOXUyacpazUOzlK9iZGgCE6OT2L5lFx47/JQt0xzFhPPeAhdqc8QKuxNSLCeK6qADTPMqg0XM4+Pj7+GdT1/HV6few7WFE6hlEyiykylrfiaAQo2qS2fXOU6PuHwQF+seHi+7laWh3UsIXfxa2M0I2NqmQuw0ZA6WcpgiDxzcfAjPPv4jPPbASxhOjNG5eN/9fIjiLnH9Embxxcwn+NO//Of2Al0Bc1SCyhw1UKNX2BZ8lzQSdpfl0t3V+iBu/cZz58qyYbZAeWwJxnLN/7pNuUTBXCgxdtUdsTJOJ7ELMqDlEL9iJHA4aKxkkCpnMZaewPef/RF2b96H4cyodFbGp7BYKTRUNWJczY9XKaTePfYm3v7kNzg/fRLZ0RyKVS1LbKSzE8WF0hd2b/7DeesSWHMZMBdMfE3rg3mlT9xpUVqinEKtmMBAYhgPHXkEP3zpx3hm//MYRLDCQasY2sh9uqPVPspOpKMN7bUCg11kOqE9cAawc/IebN6+BUuL87hw4TyKJTV8iv2GPG/PbwBn127firh8EBe3Ory6+1ZvYsxlghIft0UnnqCgtZGY/c3CZC91F3b6wMXzFzE4PIptO3Yhk3N1r5FdvV3YmUZe7jlQNV3G0tICzp07jXKZ2rwNDd30okP3hNpdJnSZ7KwL4tZHT/hAeWwJxnLNP5uA7rRSH91gpUQes5lkaqrpkkTYMPZs2YcNA1MmiuoQh5MhbfqFPhcqCzhbPIMPj/0OZ66fso8AXJ+/hmpNmog57UzESmonPP3YFEzsQCynttHX/Pyca2SE9rUuF/Qq9wCO7LkXj937BPZvOsA76uKUd7/qxZF7BiBya3JkelL40tKiyOJ3vSCJbmmmtYEU4907fj9eeepvkP4YG4Z2st1r9Q/dfUfRmOKKLoSG8A3d12WrXSQkqB15SKBIOHlB4iBBQ0rDvlZUyhRx7OxR/O7zt1l1Gp9KcIsnvIe6R9ZpChvSU3jwwEMc7VIhquTcTqSacVkueX3UESHQhUZB9xENz8wS6GO5cezbfgCbRrdgKOm2xTVGF9XnJhMUgNQvUzl88c3nOHHlG8xVZ1HNUWdPFFE1TcSVfCdS21spJNRNsIfMlcBHOTBIDTlN7YoW2lY9Ta1569R2vPDki3j44CMcYE+yUxtis9Qa41CaQ2YruiXFxUsX9Sd1NCXcSdLcE7Uctk/swwN7nmInus2WjBq+q41f9aJfIHhVDI7cz2BunFmH7HStQwcyw7luB6vGtQT+1CZIVarnFWrblVwZNwrXcPLiMXx76bgt0vWduINCVdctcZ6mSjSMrWPbsHNqF4bTIxz9SqCr7gOnfSwLlW4fqwD51qYhNKe8cWQjHjr0EMaz2q+FmkVdC/FcqHPHxNJcPv3qE1yau4hiIg/kasgOU6vteU0ogS7ORotYeauwlCepd2fZSQWdUzqVwvjoBJ585Ans23kAE8kNNkIZoEDXPpJOL3ekRWspRuteenJk1yE3UaT79uatvpWapPatuFVGQTnVKgUMsnPct20/nn38eYyPjNvyx9Xk8a6BhK/Pv3WCMgPy9h0Qkt9ttCwYldqDh1a91Fht1WwN8+VZnL1yEl99+6WbVgy1BQ91Bm5sl8VoZozK0X4qSRNsWxzFsY1pnXsf8dAX6KuF2gsZLUWhs3F0Ex48+BCGUsPkYi2nc8WqAWZF3/QMUFgq4eLFC/jmzDFMU3Mp6KtC1GQ0S9H6Vufa0NxgGHpgrg7WedWqqFTcUrLB3CC2TG3G048/gw3Dk7RTfjXVQoZiVHrlO0x+S4Iwtbppo3qSWZ56A5edikl6K6cKTyv2duOW0a14jgJ96+ZtyGbpTuhlUd4xYKabql0Xnm4ujJdZbdWMJlqWcGX2Ao6dOIpSRcsWlVLxS3O63Ny61sIMYC8F+jhHvbZEtVrrC/Q2sHzF4yE+t1MebqpA9/H7tHSi9UJUXGESvNkdzoeUoFSKWsXYJuzcspcyxwm1MAolMbG+0ljApaVzOHr2c1zXJ+IKi7aGulqqYXGemvoKeLZbE/VNOBgEU/65GWkJQdsd0iiIzLLBg150oikhqmZlQtmuSbpXYV4LFdTyNQrjNMYGxu1zZbum9mAsM0Efwfy1qA495uKRHKaRs42eeW59nU9kN7SGV79mLspFMm4VGZZ3iiODsewE9uzci9FhrSzStBADJ/kllo7NwxTM07On6kjL3V8jWS/pyQpDtRWcqc4CUh2Er+nb3MilC0tZdS+Wee3cXOhGkFcHb7ZA1h1udb0XoOm2dy+y+maKyBpLtUWcvPwNbpSv2LbQEvNBZQbwnlR7WWzZuBPDg5P2bVJXRuaIXuinC/FYN5ej2x9dUslbjWci7loH/VTjLfCl5wvZU3fU5+5iEA9dKcqPfmtBZJgRxEObXRTpDUXNF05QU92ybTdTp9fyWZxBG3KllkQuJ3t9Y3EBl8pn8fnpD1Eig2dSmjVM2yoZbVTk1nM0SjtMHnauwEhhe4/wfTVo51/Nm0JcSw/0lp5e7tCbP4HDUqHAToUCkoI7l05jeCBHU0sTeb9EP+UyMtUENaYxjHAEkqlkMT64Afcffpjh6llBjo0w14hXkdpGYiVUpGoT6tL0zfci75VJer7p3HUgl3AH39Ep7OA8lc4gzbSa1KDA1k6WB/YetGmgTDqLdDJt8/x6+UjnopQolUYyFjFfNBP0s14Ef8406m1Lkd7GrFaqRuVi0eqG6inrp4Qqr2usC12L7+iZRUINloJcuyFqV0TTjHnP1TwLUjyga7mPgoIJfvo3odu9ABasxefNwD0hrVpdepk8V8qUsJicw+sf/gLnlo7TVgI9hSL5znOig/xmMTmxHVu37MPU1FYMDg7Zi2NRbTCSFAzN5YjH2xoumS158+RTLzfBT39BzScCVlMhEry5dijubiR4s442i94jHH83yI1WfkioDwwOY3hkknbaCVFl1BxChW70VZYKxdp8Yhqnr31LgZ53covCSJsVaddE0yR9AlooXPLhGomCv29uTEuzE14rdYF2zjRJi9V00UhulAI7h6q+E7nARphnN1RKY8PQFHZt2Y0DOw9i37YDtlRwz+YDuGfTPuzeegBH9j9Ace6XJ2ouJAwKIAp0t4uk9DGdNX6y0dJNJ+o1JSVS2gKyzodkcy80VQ4qsHo0QcEof3QigX5w+xFsHtuGwcSIfSVqND2OdDnLvJCKzkzIJCVkF1xHEwX6OlPSm6WAiuxwmN6h1AiG06OYHNloU3lZvYFMO32TdlAdKutKy0X1HoAKRTVrDVrC3MpFR88Bvv67YDkny9xvuh2K0toHf+rUS6kKlhKL+PLUx5gpX2b6VN8JpDN62ch5sDQbv2qMOICR4UkM5IZNgPkwl4XcknxJdKI7HsxEkyD312rXT/63u2Pk0TuJ4XQZdNQWQjAXvucPoc0vL+OEZ8lWZceAaTTBeWdoP3RKknIKT+z9If7gmX+A5w+/oGlDY0dLmLmiyKoVlRXcwGW8deJ1/H//5f+ImdJVexMO9hakWFm6PH3b9EAE6L819eL9VjsXK8EbyeAlm4S9bl1y8Vje5JFD2So12cogstUhjGTHMTU5Sa1oKzZt2kjtN2MPQQey1NalsadyVOoTKOcrlLNpTI5vxuHdenlqhKnWQ2B1TBadE7zVRZSSZeZ5kR3YOXz+7RdYYo/hOhXqlcw3dWh2ZPJUT3UdpmjSHMAw9m89hD1bDmB8eBNtfPlI31e+NGeepXjQ60bT+ODMe7h08SJK1GiVf+3e50vJjsq/Rdccp8nCdUYnPnW2SgAbJLOX5OjIfUc2SBT5VvnRboTae/zS5cuYXryO6gC13zS19qTWa9Nk2ToWZ4hUEPRU0srbKkblEIC3jQfCyaG/unDwiHCn06h8OK0xDI0W9BKd4mano31/yuQzTOK/+E/+CZ7e9jzPp+yehL5Cdi/hUeVgu9ICx7e+fAO//uzf4bOLr6NIfkowjDiw9HUoaw+7SzfdXa0Mneq3FfHcOeHcXCHRaA3vjhfoOrSF2GphZRMv7YqjLbw2OIFeLdTwvQf+Jv7W9/4xHtz2UKRA1+e3dHWm/A3++sOf4V/82f+CYnoBlZQTcEqcYuyFQPdwKfBTOBJuFOh07KZ12DCo5SVIA9UN2LvxXuzdcgR79+3Dnt17sGnjJoroLFPtxhtagjnAH8cR1LbztNdAX7nUayJ6WcSVV10GlSloqZHl2WF9O38Sv3j3l/jlO7/EXGXWNXJSslZGmuWX1LxIF4wlpvDi/d/H7z//N3HPxgOMb4SpUCQcTpiWp25BIyM9o1CnJQHhvoupVGnlRGttulLxNdRurhe6c5UrPC3q0zoQlUqJYk1icpBlv8jfletXcOLkSXz77bc4eeUYTs8ex1JqhuVJgU6hLl8SjsYXWmIiUhlrpGMhBuD9qLT0XqCTt0mahhRlSoPIFIbxD//mP8YLR17GZuygO72b4HxaXCGB/vn5z/Dz3/1LvPPNX6KcKAQKSnvcrbD0RaQxDLsbq53HRxy5JsRzt3qBntrx0kTPdluMgzgZMhcRBR6rMOiklRFXAsWxvFcKYUqwSqmGw/c8ikeOPIeJ3AYTFl5geDihksTpGyfx8bEP8M2ZrzlaZrMNNh+ysAI3HRMdZd0lkbqlXEgbrr/Ko+mdGkUxNexsbZDD91Fsn9iNv/f7/zmef+RlHN5zGJNDG9n2KQiTaYoRiRK9mSktmNouj9q7BSWllEI+maXZXFY6LxYKSGUTHGIv4Oj5z/HT3/wZrhUuIZ+eQzmZN5JWqTl2vdpd7UJq4OViFYcO34ep0S0Wr8ubOkJXcq7bsRTRpICXRKuys0kO0E7z++p0HDHn9XPNvIdJD3bXl5T2TuTu+zcpZWpNvzpSiUTVw9TgRuzZtgf7dx/AhskJnL94FqVygTKTJaCRnlWEEwAmROsjNJXS8oIhCm3tzQq/uc47hlwf9jAd9KNvAgykhnHPlj3YumEnJjKaplSQFqgLk+4k4NWxLVUXcOLiFzh56UvaUykK8rMcLM2t6W6Bj6u7q5Uhlmwi4rqLi9bwVPPWcJopuHuHQkxhWkOIeg2xgwpzdHQUG0Y3WMNzP1d8ngRpTvmlJSwsLKCsB1vBDWe45ubdRoI3WSuxGdDC8vMWdsq0VimUl5hKKrcTA5N44dEX8d/8l/8NHtx/P6ZGNlBo6IunKYykJEqkozs9XEJba8uz2q8mkbP7EpVS/KSEKTIVr52yzWWHh1Cgln5h+jxOXziOS9NnOBqZp8K4hFqWwjxDjTLFzozpc91YZypTkz9z7Qw++uYjnJ0/5zoVZYh3jXVJXv/UrLzMRIKCMaVOSK+UqztzQr9BQfncdlBlaZzmuh03BkpQlLt6SfM8x+PG4Q14/Mij+Cf/6J/gxcde4vUmpMvsgFkv6rBthQ/d1nmgBY5Dg7OWNtJE/n7oR4tmNySzC0JshudYEtMkp5VyBdeuXcfC/Dxzqp+mUbxgdUeFpfYyMT7BtjVid3stBO9mqPukESbhzilAsVPTz5jMbjRoPcAi0tN3+2wWi9EJ9HbhrHNp6YViEfNkZFudESpeW8IWp7xXmA+XDh3ZIKSd6yWNEuxB21MPPoWXnnwJWwa3UGBQZNQoRuhG5PRECRB3naY/bWNtH0ySSYlYX0fO4L3MkBxxwpb3MxncWJjG+SunqTRTG0+xF0ku0bGeJ2hkItGq0ur+09uzeQ63z8+ex/TiDfPBgBQDI9QEl85dSDIb5O2b4a9lerr94PMguPNwN6ea0UdTNrPunn/0BTx672OYGJpENc/ujXVlSzXpq76MsVWo89LuBALZSJat8FYyAzKrwAxTNCLyQV7P5/O2usXB1VzDnYMEunKastU/zl+ziz46QZx/x8CzXoN4bLZwtBbQv/UJXUgwFgsJ43CjCDOftEYhny9gYXHRvmwuvzeHQRmPaWyq6CSGM0N44qEn8eTDT2PXpt3UtLX1LTVZOqkT3daJwkBCVbkzyAhTCLqUS80BK7bp2WlcuHgOmVQCGd7IVpIYLGUwVBhErjRA4ZNlWWqKpAtxmE2lE5euXcLM7Kw1csuPVnhUM7yW3qqcKRfsOxh1E9FO9mJyTyoNkYdSK7o9EZ0y5Vgv4OwY34VH738cDx15GFlNgQXCPOzN8avLZb316G/2AcLnPYcrbTUVKT/5/BIKWirLSCW4u8IEufyvawJvKpo60o5kLs39SnFHCXTLo3JbJ2fdS7A4l/+p0PkLwwuJsGnndCYhJ4FepJYeHj76++sDhh4IczWKDBv8wb2H8OwTz+Hg9kPUy0eoiWvuVlMXLhntFAh0m8+meu+JObKuio4aubFLozIb6o25aVylINaDz7TWuJeTGChlMVQcQLbsBLrWunQlCnS9jHTpugT6jBPI6iE9sQeSKLfBO/Pa+iaqJZ0J0kiimzAX0elNJR/v6qCuTE8NhrB/8wE88fCT2LNjj71oZdNr5sbzKI80RLo0c93BFBjvhUubVybQ8yiwLdgDXPKFISJNTfV0U9J8O2H1GSafy3OYhNUH2AuEUxGmtWCt/tvAAKUPSUcUObESiic40fYixWoB5UqBF2VUahpuVgPNuZnhnacO5IfQnsjlbrIhiuScRzVuarOaRBkfnMSPnv8DHNhyH0ahHSGHKROdMFd6dKYPTEv4aq8Vkb2laC7sokGSkkbSs2gEpLXl+kbqNZzF1aULmCvOoqStD6Q5StUOQrPwSPbArgs5Ha6C6bkbuL54BXOYQSHN8tMLuVK/A8NCdgG3w0XVoBBaS78bfB67keq/E7W6FbwpNCfT12JzCCptrWXxbvQ9zlGMY/+Wg3jl6R9gLDfFOhzkTXWWSZRZf+r3bPqFZJ8mDJmefIziAfcQXVNiehDJuhMl2YGL7FrdUVyEc6w6LaNYWkCpnOeVy4c7NEy5tNEWz8SDguxWBPUAXYjHurkc3TrEyXW7G7ZZFmwLtWdFvT5/1Jg6kQt8eWop2y7UbsljLDQPXxqkF4GWI8WxHDkkMDw4jKGsPSI0MkQ4Tuu7i1kK/Ax115rWUKvBhKH0icE7k17UaK6j5usw8ZZ971EPQjUrPj48icO778fhHQ+y+W9mg3GfBZNAVz7cxAVTpGDzbLQVnheZxiLFQVkigQjLlmCjLJe2isWp1RYS5vO4hDdO/AzHLn+OxABQoEDX14ZqiQy1bYoJfV4sJSEhgbEcMXT616qZo6c/w+tf/hx5zCo1Lh0qRF8hOvfp4zmrUi9VQkvRlQU9i65EkPqbjkR/njq5tV2PScy8vZ0aJpOmrqqcHGwhS2NAPhuCvYymLYq15QI7ZYlbBaUPKBc4QipUtAxVE1AZ1l0WG7AR9+15BIfveQDjQ5uRTg2xjLOqQtUOSd2iOkf+WKbe9MJcZM81VI8iuk5KeGskpmWRWueeKJC0Mkl1HgeqEE+KoYLFPEdZqQJSmg8j/FgiDFXfsE0ouQfBul4Jotp9JDnHyxKPsRAZRwTFgy+XcBlGUVtyVV6KpJU6ISrQ9SCHOCm6NXBpVAFKM9cqBAnEOoOGEi43gr3gYRoOBZXdoOvgXgOBpxbSr82eATft8REi3Svm2RAlmMsJjA1twOMPPoNNw9up9YwzrVoOl2EoEvhqMpIw9Jfi+RClcJr+2AHpaWiFjbmYLEAf7S1TGJfTeqGFRKGcT3H4nFhEMbFgNIcr+OXRP8NvP/0FTl39BvnqEkqUbNWEcuzm6hWOXlV35SDh0ZncUhotYyvh1OXj+NWHP8V//N2f4nTtGOO6buuT6dCg9csllq8RR0La9Mw6jwwFkCbxjZhHPZOOS1QV60QhlGC+w5QMUUKfD9TTY5aLlqRWqdFWKADde7IklmMraa15SSbzUUTBrpUddWT6pqbW0+soGG9pus4MTTG5N4z14Y8sRjCamsSRPQ9jJDuFSok6ttiEHagN1HgaRXUEgt3KneVoZW/l7+pA7w4Y75p9k8/uUOQGmVI2yJNJTTsqDgprP/0YCtK1oUDJ8G1kBVHGQtBGfNCd6NbClcNKKfHE/7n9E3Q2zxua6xXsqsUujPi9TxyQuSKiirRzKesdXEbttBM0JNV+J9lqFv/ZK/97/P3n/ysyn15jNj3XmNAYkRdOppbx88/+FP/2jf8VJy4cpzMyN5la89PSlJyfzjlZaclac9CbgpUkctUMHj70IP6rv/dfY1d2v/R1pl6vGym2ms2iWwdjgkNEgVhbwKnzp3Di0hlcXpimWwkppdllSvyh+tbmYoJP92JtBp+d+gDnZ05jaWmRWi2FAdVb7aHSKW+RoGPXjZmuyAuttkljkJrnlvGtuG/vA9hMc2JwAoNpjTbUUfj0EeafdhUKIG8VME9jNNkN8hR4rEOpabYLRdcV3lddvgVo2Lszda6D2SGU8iUK6hTGhjmemtxiK5O0Jt30VTrVICxpvQyvLcya7RV0auYk/vlf/lN8cOo9TKeuUhsus77ptqVtek7z+bH4aaX0hfPYaG/OThOL4i2l1KE53DAcVytMF2KGDSGZr2L/ln34w2f/c7x05I/YKTnuCyJ2FIRZYpf9p+/8T/jTN/9nKg1LjFIvIfUOUTKuFXaXbrq7Wh+En7WtBHeUQG+FT1MMpz1Fkg1gMEshVUjiH/7gv8Y/eP7/gIqmN9jIlBpNM3vu00O9EjUcCfT/3xv/C062CHTfmHst0LOpQVQKNWwc3IjnH3kB/+jH/5h63Abe0dx5giJa8dn2TiQ10Dz1wxlcnr2Iz779BF+c/ALHzn9L4XyZmrbuFZkXdQUuBqsjnTJxMhWWNDlbDc4C0Nf/U8GSs0po7X0cuDJxGpSFrDhUPiIWqL76v2F0EiPDo6yHAWSyWZQ5ErApICbG+yyVWuN16XEpXg4uDWE40dSwC+ffhR0yefD2+jeHxGt3k/aNO9pbJ5vg6KlI/soMYtOGzdi7dR8ev/cJbB3ZjkGM0oO2bZAgF1GoB0mqpKqYxw38q1/+U7z+xU9xNv81negrrNTi2SGG0SwsavTLURCDKitIJkyunSkFhaQ8Bglu+DXL4LwVrqS8Ka+tAv3lI3/MdKm74U05ULAWtEYBUjgaAj2PJWZVM/zmoCeIknGtsLv1ery5aK6j+OgL9FVAAn0gm0GNisM/+uH/Cf/ohf8jBYoaMpsCi8Ee5gTFobZXpuCWQP9TE+jHQgKdIoim0m/CynlpQ/eSjfClBlylmK5k8NiBJ/F7z/0+njvwErVxfU1J0y0aVKuxMg2lEnK2SdIczi18g/e/fAf//M//mX1NqayPL6er9oKPLRuhoFYqJYRshYJN/vrM8p5d1pBJp5HJsFNJZ2wd8dLiYmNFQwyY7FBYCpNlqjjdjoTuXCuG0tT6Fbd4dXBwAPlinpetUwJWsu7UoDpqtYuCD6MRVrOIaqBVptXbAc3wLctTCP5e2F7LDtOJjK1WSSeoMFQTGE2N449e/Zt44tBT2DF0D+MbpydKX+Uh4DfJQFnNc4T01hev4def/jk+OfcmlkoLtvukSi2MZmFBgS4+ZHFqNGl3GKZME+Zmup/gTRcx4S+b4HyJW+RKecyony9UsW/TPvzRc//ABLqe79QdOC+E6lDjxHn86bv/CwX6/2QCnZXvY+wJomRcK+wu3XR3tT5orqP4UGfcxwqhNpvPF420FFF6aWMzLB0aRHlGQwIp6dag81qN3pO4NDA6Ujw0IpWfkvZUYeSbprZi11a3DwpFrU1haO5cLqWBOWGuyZYKTl4+if/wq3+Hmdo05jNzmE/OYlHz40nt4VJCrVI20lNC9/CMRGGgPFo+SdLKNc1SYrksLC7Yy1Sa+gjn2fLdBU4bVBoltKWFplFlz6jdfIsV+mVnoS14y+w5NV8+V5xHqVZgGlUXJfYzzVQTadpIeTBztdTinx2dTImfOtl8s6QXyyZM6rjDFLJP0kxqWKdnFizrfGIeC9S2F1LTmKlcwa/e+TnOXjtp+TOo+FTYKqYAOh1IDmLHxl22DUVikXVbG2SnkEKFHUUrVUNkD8+pnmfKHFUxCymWcaLCEU+Zo7IKSeXIvItL9HDTkfuxECz+JsiKdeiUFGcqhWoj/gtEvqsIQ6LcdckaQzJNQZvJ6mtZ5qKP5dAX6KuA8SsZWdpjsVjGUoVDQnfL7rVCTD08NIyxsbEG/wemtBhj7DVxbItnNvZUmg2ZjXIgO4KJoS1sInoVXt/5CemYPKmW1YRKODt3Bt+cP4br+WvIp5dQSOdRShU5DGdjloCS8FaeA9MNgBtmkAsjIa7wjkYgCOynpt+IxfQ35k8fT3DPIDTJo5U0Og+EjUxe2xSMXTtTeZBdQ3R0IRPMMh0pDNm7MINwAvsmuwgyv95tQK32ZtoD4zI15SLLvsDR0RLyqQVcWbiIY6e/wvkrZ9mjSaizlP3QoF7g7Of4mxyepECfQq48ikReO2oOIV1tUCZ07q6HkSUNloccVQYwUNWCyByyGikk0xTELj63uYLSrrhJ7h8clgPrkuEMDg7al6WsMxBM2BM0fDAyizXynqbqdB0r/D6E1PbvjbdtzhU1HLGrFrv1RJyofJpuXqoaUBlpYdXBrffj0LYHMDww5uwDqoMXagYztSs4P3cCx09+5dxYg6SQ4oXzs9p8ON/NoAjUnCPV2EcPPosn9j5Pu8bibbmWQmi+1FooSL65eBS/O/oOTl78llqvmy9P1jJIsXGnbS273DvB7UYd5rnRCglnR9NnKkBbznSpCjazAylglpG0WK/12lJGChQ9lNaDPq1+S1VdmgStpvHh1r/mwwvbXkEjB7vHcrH7XcjcNtspXMtqm33zdSfSCp+ma82WBPYWNklr9VNVlXnGrnUvodFJMYGh7Bh2bLgH2yf3sBq1V43rFJQfg4XDblsP6wcGMbVpBw7svB8PH3wKD+55LKDH8QCpydz9OB7a/RjJmffvfRj37nsY+3cfRoVae5kdvvp8jUUUo5tXt8gUqxl2HVw6hC5U5oRWrKRJu7fvweGdD2Hb+B6GpBGY3TYv7lRKArCQn8Hnpz/AsQuf2mqhFczYxcLdOuUSKdCbMhEEfLMzFSc/5uQWFbi0lnQiiz2Th+xlncmxjWavtDSlhxcS6PnsLC4tnsEnn3/o8kZhpQZtDoI82OWK0cGnhqtM3xOHnsejO58xMSioXeisThReeibw9cXP8buv3salG+dRTUurrZkwz1Bj00M1bResNSditHqMFKr+3KfAD6/tum7JE2fdbNcRTKWEeSDI/XJPlaSEeUrCnNJFsj5FqaeQJCCdkAwLYy/EG+cS1oq7ft2RmsMQuXBC4dLC2TfcRJEt25QZdCqt9iKFrY+dpCvsQCtZc1vVwxiWfY2CdZAjrf3bDmPPlsOMVzUn8aoyoRlo+NVqBdnUEDZP7ML+ex7EYQrmh3c9gYd2UXDveiwgnu+kufNx3E/zfto9GNy7f9ejuG8H/W1/AHu2H0QlncDCUh4LxTxHoQVUqix7ptXVcQBLukt/A7oIyOzJY/QjgX5o9yHs334/Ng7toJIgJSMA3SlHLA3mLoEbC9dMoB+//DkFurqTwFGPcLcKdHFGO9hgbLgcnPNg593oVsDH25qWKOotHDNIC14qL2Amf5XMqO9cskDDkQZ1onnW4dQ4JkfExCO00T4ltNd9MUxk5dnNGBQNPSDMZtP2qTtp12o6Mp2m7WDlwguJ5aVSkQ13kYKEV0yY2+hJ931mHHTp/bfH3jk9KwYjspiNF2U2yF4C4133UJl2Vn46MYlu57ZJFc+N7Fqk+nHmcuQit8BbSHE4crqkM7uRdxP2axTcs3DNjU6ZJ/VUguKgBp4YSGOxmsdiRdMtvKflmNC0hdsy2MPxkcJk/fF+1vbq0bVCdobLnxOwIusQ672hlpfqlZ5h+tyIF478GI8feona9C52oHRXZoceBFWHv5bpySJynYxDkC6OQEZGxjGQHbSXvsw6gA9GiodWYM2WFrFYzrOu5dDf7TFaGauFeKyby9HtAo5c1WCaqQ5dOyM43DxEpasT8bAs8dgzqOFoHlBfl5mev4pz176lOJ8ns5P5AqXJUGfYMpvJMKZG92DnlkMcMQ+59qNblr4m3m6B7ixHLQisy+USyoVFBl+wd2r8pIuEumDyiaZ0bwnyUopanto/r7UVq1qvXpDRvK6tIAnalrUxOw8EpY/QrKRx2q3Vw6dLcTG1NaZFZB0hG7z2eClTg60wLi210+oMdUrqTKXd2SZVTICmB7SQ1O0FT+ElO7mJQc5tM0X9XGKXobrrxs/seM+TylNcWmFZl1N6KYmMxHSo88pTOz4/fQnXF27QGTOc0kthrgrcyCuoUZW9Pbh1NtoxU6Mq1X9ND1QTIvcKv1u4qpoP4JLEv3tZKYdxTGAXnr73hzi8435kmRyVvni8qf3p583gZwk3UgoFBsw60JT41i07sXFiC0cSmjYilPx6IlzzWaLfMzNXmN/Ztvu9QlMeupFzvCzxeFtAxdUGnxFLZCjBbZkNiAe5vGWwtHWhXoO5RqFIYVktY3ruKi7PnmVBkhWlkTRFqItgmoD60sTgNhza+xBSSb12T5BR7YFTx/JbCyczTKsbxV+mQNImWWyUJNOygqB1KmEooaiXc6T1qvFJgOmOPWi06Y7AEw0nktzP2QWm0dqhmBwooBh2lVSTtkot0U38qFQ57mF0Wu0iLd255o9ujfgzIWzEewFFCe8oanVruWNYTYLak7vbmSL81NMZIt5g56mVLuxArR4koCl6yVd6j1RrTbyI9CtG+aedOExuda0j0xyQs9WzB1dqjXPrxs00Yhzml3+9yGvPJ+hiQ3IrBhPDQKGELHlVyWqCv5YZkEtDmJSWNEaHJkhTtp5eXW0r5FIpW2JOryxOY764wHQFMuZWwAq4PTetdDshUqAbgszU4a8jiEc5sON3Acq2vvNYrpQxszCDS9MXqZ/PUWxqqSAdqG3WQcFiWk8KG8jQDxx+AGO5CQrWnM2ZsonYMr9bVX6KVUKjJdE9gQu7M0XB5JrKpCU94jLz1+SxUyh3P6QHqIhcWap700/l5pq0bussXcvZR7MztQFSjtcZdlDiO9614uPBhLkX7kRQ9LotZUAjzCp7EPd2qt1aBi5x+unhtb4hm02ksWPTHowObOJIUUtlGaN/0hnkQ5BZpki/MXMRC4vU0GlRtSmmPuKgs0Dvowtc86mQURepRVyZuYxz185SnGtHRd42fvYs2hDooxjB/nsOYMuGbfYJOLf9EBnWJhRvBpimUIP0KWxYhm6uEfWwrSyiScK7lRrQRZNFpNVKYR1CN7qD4IrCxioUxU4ka4rKQ89Ukxp6lTKOyqSKiG444rEQjE9D5MtXtyxMfZiEo7wkRwEqvOZK6gK6o1uFkeLoUAJdD1pHMlOyIekBe+CUCKdCH/2+MXMJixToamd1wd/HsugL9NWAnJhMSVvRTGQZ00vX8dXpo2TDBWiJlbbJdazpOFYiXa/X61PLU5lJHNx1LyYHN1Nbylp7qpHhW1TPFUBxtJLgzeXRPeb2u7JZSWpXm7PlET+PDVBEsKyjKLjdEeuXj5XA5dlNm4jPJMqdnSZkJEDrKZW15LvI5o28Fk5qyq/T7d29wJ5IUUXJYxqVagHpdAYVe2dheYinjfjTktdsNYPh1Aj2bTuAoeQoU86UUhlqXQzgUlBGsTJL7fwq8oV5jl5ZN/5mH8uiL9BXCb1UZAyYquLq/BW888lbmC3PkB31UEqNTSQ4ptXjKT2kGuHvB8/+GJtHd9hnwyolfZWfbpp5exVQAAHF1qKWgQk6GY3W5BqXWa5rG7Oc+AZPM9z4de4osIgJE9wyO6Tc3edPZo+pd/CZlhCWABf8sNDNi7uHoMHLbhLiqRKqelFMs9O1JbIHebOumXu48Eyom0fN2C/i3PljuHz5vL2kJqHeiH95iOf1stNYZgy7N+7G/XsfwMbsJrc5rqZvGKefTlGoBSargHmcu/gtqokFKDoVnZvqiR/vdxl9gb4qeH1GD+YqmC/P4dz1s7i6eIU6+hyZMm+vTbvlIA5acSGBrs8vbxraigf2P4pdW3fbviep1FqZdX2Y3TX3cKN3+P+3995fchxJmqClLIGCViRIAiBBAUESBEmgqUWzu8km2WL07NzN3O7N3bu9H++deHe/7X+w797d/bK776ZvZ3Zmd2d3ZluRTbKpmwIUIEGAUCS0loXSlfq+zyw8MjIyMiszK6tQKMRXZekRHu7mytzC3MPDo95nZtHV0qmCpQM39GfXzSF46Cjof+0QVRP0M+OCR7qaBRLIrbpywuW0ozAyxmFe5KXCLX4zUKLc5letdUZALDUAakoLcBVMXk6cPiQXL53RaQ++ZFSHqCx5SCUh9aWULO5ZJvfdtRWKfbEuprSFtKZ6uPSXYKpZeHPnmZOnvlELnSt2qMhVocdoCbFC7xAcThJcBcJ9rIcnh+TQ0QOw0vkBBlg7tCgCD3MYmtMu/CBBvyyUBzY/LHeuv1symYxZmxasBqpmIOmR5IWZ69B8IsNhi7VVmg5qYnu81CFvXtXjKqkfD82Z0+B4LwFZ4mJCdmNO69HM4D6FZy4fko92/Vpe+fjv5O8++yv56y/+P/n3n/2d/Oedfy+/+exVGakMC1/WUaXOuXR/RMeCU2ZZE9zFHdbymSNyZfAi+IK71pEF94nRwsIL65971JSKBckke+Xm5bfLvXc9ALuce7J405FuDj8Ank0gzSPHD8rw+GXNg92svMRiTIlYoXcCT6pVyCG43O9kojQuu/d/KZeHL1kYzrFrODtV4JhWOve23nDTPXL3ho2ycsUKdBTa+sGAHtTLMQkRnesEoZwrZiX7VNyOPK+mQCC7icxK7qYHL5tUc0ZcZEjPvJw5B4W+89fyq3f+Vv7ut38lf/P2z+Q/vPvv5B/e+3t5fScUeolTg06xUlk6NeCYcjY+L5eGz8jg1bOSy4/rMyPua2+pWUh9qYvH/KmBKfQCRqlLBpbJnbdtkVsXrYc6p6WNdBmB942AwU8W/JbX+Ytn5PS5YzI2OYiscYmlLVd1SVh6gXatT/yGRncUOitV61Wruwm1AxOcbsClHM5NFLUGU+a+1UDhLU/IN8f2yekLRzHAHUHNomr5mrlDgDm7RS+s9HvWPyAP3vO0ZMvLJFHqRTXya/cZKVeyMO55TLKN/XXDKfQAY+P4TlVHU5fIhTA3GN4rY4M0giGbpeI/IAsQIzi3bSKc2wyNwgSKFGQbpihMVduN0E48lz398pQeQzk2yFiYL5UfZ9GLybJMpHJyNT8oheSklHGcSBWlpzchAwP9ULZ8MQkyxs8yUQOQlLfNynNfxVEo9K+PH5IRyHWyNyNJnRqEQkailhUemPWs2+/yHQakUU4jLfQHfpBkoLJI7lizUTbecT9C9YAwouAe6JqWjQSEu2cqSjKcOyOHju+WkckrUuAOmUiCH5ZW9aLkHbQJrc8QtYVqBiIJv747Fc00plTo4bthJPnh6DYj/LSFqKaopfo0GlGkZx3ht0WYwmMuEBF/BRnPDcreg5/JmfMn4AfBZQewy5Zd75CWCB8v3TZwjzy2+UX53iO/L+nKQlg06IzFtOQmkjIyXJBSKQ3lXlXotp+JY1YteyRYFkeMw4Cc2kFUJQTxsuRfd+H9MD4hLbhMKkj6Cj7j8C8Qn4SfKgGI3h0iO/LkUrZm5KUbhOaVhGOj8B/ARBoBAZi+T/DSyQ7UTzNSKWF+WiC3z7zWoefW1Kfl0hL38mqH9Oe7nBkZL5VlmBta9fGzfyUp8OtRuQlZ0t8vW+7ZLNnUAoTrha2ckgJEtATDo6C8TenmUKrByqTsPLBbTo9clkmE5BJdfutU2xyx9VunUOj6GBYZ4E2knClKoq8gPT1JSeVSct/abTBYdsjNy9dJEbJcKfegTE6hT8LlrQN8INZcHnl55LB8tOsN3BTgn7LHuwxKpc5CqgwGyMHVUZAcAsFq0Mg/jCjekWSBpyT8toTINFqgKRV6SwAj321GFshzm4HV3U0yMOVm1CqUo0bCEVzrTBgepoty5MR+WOoHZSx/GYLKV60DD6AQnHGp5qmaM7DS1y7bIk9s+4Hce+d2Wb7oZnRJWFDcvjQzgLA2P4qmQlJ8YxN8qEk0bY8aoPZSk4Ae6kMwp448BL2CNAVaCDJrcNUWRfytPW8Op9RrlHwUeWFqmDcgV1e+6/m582bA7QO/aSjXpEx6XyFKQDH2pNL65ufC3n7ZdOdGqOw+DU8ZpErl408qaz4N4luao1C2l3MjcurqBRkuTcBWL0mxXBJu/kWlYX1ZbXSQ5YzLEIuQ98n8OAySvCzvWyWPbnlKNq69D3LeL2VkhjcALafG8eZc4MWVLhdGT8rh01/J5dHTsPjzepPQMSnLj5uipVildmF5Neo6vDoJ5zFMs4HuKPQbDNo4Kh3WTLoRFP74jc3Lg5flwJF9sv/415JLjuMq7XF2GwvLX1Y6XbIYSPbLXas3yve2vyibVm6TFZnVshB+fRgO84UMzolSVPgCv24igJsI4xq36wNhK0KF33OnpOmgm7zmKGoVlKmsqh8fwmcgRxko9QWyfPFqWbfidvjwSY7JIclimSrgg8ix8qCcOPmtTEyMQEkXUHVU5JRFEtU/v0g7CUU7DuNkEjeLomTLSekpLZCB8mq5aeAueeY7P5FNG3bI0p6bJJPIwuC2qRMTXtxpKt7GYuhDpWxeTl48Kfu+3S+5csG2dPCWBavSR5iacnrN6djFqMJaMUYHoJq17qP7cOCkUCxKrjAp36Iz7Dr0uQwX+YFlDC1VKfNtPrNLGI8VT0udD4qW4G/HPU/Io/d8VzatuVdW9i+zT3bx02/gYB9xoEL3lPl1rpxc7rUsU9B0MB1e/s3nOoIp5ioom6kEJSwjSxetlDWr1soCWYRzLqKtVeipVAbHnLIpytDweTn0zR7JF8dRB9y6FsKoo0xOsFAK+e5EDjQOGZ2UFJR+D5T0wuRSuXXRPfLwxu/K0ztelhX9t4Nnn95UuDyX0BrlTzkNbmmYOzmMAgbl+PnjcvTMcSlQwSND7oErJb7GhGG7eOe+cWBXYgCxQm8RKkIUMp/g402lmEIHIVQpWZIzg6dl95Ev5MCprzF8vYouwHXBVOq0cGDjICrFmztacPEZRXKJLJVnHnpOnt3+Xdlw853oBn1Q6ugISlnd+4UfPrDRQACaMTvsFOSnxCJ5xw41acWYWwi0e1Q7UVaozPvSC2XtTXfIupvvkgnIIsPyxVEaFM6w4OYUtNILMo5R5ik5fuKAFAocYZoy5wdZOPXBWwH3gklBIadKoCJoMiOLEktlzYJ1cv/a7fIcRpuLZaWUC0kpFqh4kY63QICKWgkJFxI0d8Yxmt0jR88dlvHSpG5Exl5iI1EW0Ewgd4MNFDlGBGKF3gbMVjBBsz8TNt0tD0e62KsMmyM1Id9e+kb+5hf/Vi6On4Uq54sdnHrhYyhY5QjM8Kx8KvQe/FK5L04vkB33PiK/9/wfyMNbdshAYpH0lftlILkItFDSUO7spOhZGtftAugLe4BaAeM6UJkrPNdX7q2xinGNUNOGHrk2pObMT5SkOCGyYvEaWbfmbkga9zvnIkcocoTT/V4sNMCHanwAOiwXLh2HhT4GxVqC9Z6QTCYl2UxWetL90pMcEH5wPJXvkcoobhk5ThtukZee+Kn86Ik/kJU9fBbUI1l+8Jofu1YNDUJCOo2OxKm4h/ODcrVwUT75+kMo9X0yUclJJZOEskcfg4ybENrIoFqoGM1QbcsYLUHFCrLmvgNpp1aNtNq5j3U+lZORxJCcGj4hr7//qpwZOYFuwlev+SFjTqMoCx/umNvAZCs9cvtNG+SnP/h9+eEzL8vtq++U/soCSecykqY1pBupIxeUdcbx5JyOo3agPOzQPzaeVY7ueozZQqNWbK91+YZlf3ZAlg6sBK2SgdQyfSDK/eFd82pbU4x18JiUqxOX5Oz5w5JI5ySV5joTyHNhUnK5CSnkuL8+QpV6JVnok57KYlm74m750bN/JD9+5g9l6/rtsiy1ShbCPs/AeueDWBIND00LyZL4Ih6NnEpPXnZ+9YEcOX9IxkqjUkqVZaKAPgL5toVK/EHG9I1rMokxFUwTxWgJzj434YIl7Gk628varnA9Lj9QkEtPyFh5WL7Y95l8sfdTOTN0UpW6voKNv6qSrB6lMugAyRSsoAHZcNMWee6Rl+WFx39Ptt/9iNzaf7P0lTjtQtuKoLB7hzVw+WsHLo5H7i5Rgyi/GN2FawPCHQeJ8NyAd/CGS9nyPThyhLzcsvo2WbXsZtjMMAyg0nXSzjMKHNkuFRU5f+G0HD/9jSTTJd1Lhdqeq1t4LZOGRV7MwupeJmtX3y+PPPCyPPfYH8uz3/k92XTTdlmVWYMUuAUdTJwKtyAIGC9MA6QGTSIHa/yiHDy+S77Y/7FcHj0Pi13X0ngPYRmYefQi2kFHcDEdl+D5fESs0FuE9REqYl15q9a4dh69QuHjMBHiD38q9HwaVk1yTM5dPS2ffvGR7DnwpQyOc28NCrlZ9lXAt4xxMfjBBseffTHmjoWb5ZkHX5Dv7/ihPL75Ubl33SZZsmCxveCh0lkVSzsKimnweCogrK/Eg67zd34xZgeBNlDBc23gqB4mje6aFw5iVsyX5bY162X18jVgRWVO2WG3r+XDGY5COS/nLpyR0+ePSgWjzGQK8o7255RL/4I+WbniJrlj3WbZfOcO2bHteXn20T+SJx76iazr2wyJXQr+XA7ZA62NhFWhU6Yh70iKxWD/4IYCORmSM5cPyvufvibHYJ2PFofgixFAmS9AaYFDNkVtXusQ6AcOQR8eh2m+YnYVurMK6qo3TNcGLuVwbhzZAQQOrs2am/Cp3W6HAM5wnXOTnGOfgKI+cOaQ7Pz6I/nqyBcypg9Jx3GFAm+rgGm38PVq7p3BIW6PLizjgrAcuki/bL7jPnnp+Z/In/zkz2XbHd+R2wbuksXpVZJNLkRaNKOCHZSZc8etQkugrsHOlSI6SwxDsMaaob0aRGhtP7reeR158E7dA07KpJNImNKSgGLthXzcsXq9rFi4FHqWK65wjfyr4qviU06X5UruopwfPieDo4MQyaT0lQdkZfJmWbfgLtm4fJs8tP5x+dMf/oX82Y//Qp7e+pysXXI7pHORPh2qMVF4gpGm8EEoMldKCwwc9oaSbl737aVD8uG+9+VTWOej+atSKEHS8xNSLOalJ0P7HvB0hZPERkAQpfBLY4zvnidF0YyAfJsQfn13KuoUqTVPLar/6v9MgWaAHXhuY+jmVl1F69XUPGVrEJc/XYEeZK3ethqAUzF84aKAznVl+KqM5kZlzW03y5q+1eiADGhDWVIqbYvJyJ2Cz+VjthKX4gzbKgUbaOEq2bplh9x310OyZMkKmSwVZXRiTC2rStIWNSrxoRKOUpW0bF3/kGxd9yD6FRS/TmLW1oSVoizfXtgn+058IcPozNwAjxx06RgDgCzc3EW35aUVft2uE/KjRewEyhkJ1Af8GMr9a7fJ/behLXHDtwsB0siUxpIcvrhHDpz4XApjBbltyR3y+P1Py+rFqzVI2vvqkJXPEtDP+EEtH7y8R748vFNOXj4sPYk+WbfkTnlh+4/kpcd/X57d9qJs3fCIrOq7TRbIEl2FxZ0TbUTpJU9iXlSZI4/JJHjzbdUEuOdhoIzKt8MH5N1dr8v7X70lw1DmCX7sFkqfMsuVMNzXiHJv/ODishWRZ1UEjwktjxVHoRyMSdDbR7flpWUg3ZZSbjVcCDTtZg+UTOc2IwvkubMPptyYWNGoavQ2v8rt1O+AfOjEjf2T7GA9EO6BlBSyBTl87hv5+1//rXx44h25LKch5COw0WmV01ond8LW+jplb7cPKvse/C1CV1otdyzZJE8+9D35/jMvyfp1d0k6zV33EE6VAQ7bgiuVuUraBubnKEY9XK14tTYlTQ2E0vYLxfQUfNXPgzsNePMxJtuLSrYvlZV71t4ly/v5MBS3BPDhNXvUCWPDk1nu4T8qQ7Lv5B798lYFd3R+A3dhconctWKz3LF4kywv3yoLJpfJgCyFVd6v0sgV7lx+yywzeZVanJCIIq7y/QnurD4C/gdGvpbXP35Fdh3+XEYTY5JYgDzwA6YJLou0qUz90Lq3/QEz5yQwCq7YpMhtHXw/c4Mw31kG81CTx2iaDmZXoc8jUMRcP7OGMLWnwod/Jy5U+sVCSQVucnJC9h/aL6+++ars/GqnnJs4B4Hnx38p8ozB0LSy2KHYWfSVDO+PHSijVlEPrPVlmWWydOlSyedgnQeExOWmPbg4HvkKJIgovxhdheotr561DQLE8+B1wgmhv7SPIztIUZlTdv3Sl10kd9+1WQYWLIZEmTRRtgzGhwqdMjgkV+XIycNycfCi+uXLRbk8elmK6bwkeyCTKRt1pnEXIBeOEajMeeMgkatmD2BOJsA1r5I9IYMwXnYf/Uje/+g1OXT4KxkdHdIXnmykYflhXE4dmXVeLaP2J4+zFjVAYYS93Dldn1wm9cSFmD+IFXongBz4QlUjEyZ85o0/CEypiO4yWVCXSnsiPyG79+2Wtz58Wz7f+5mcHT8Loc/jGruBirX3Z7unc6okWclKkh+VxjFVPnlP4u/K5cty7hxuCiXaRkQwQzUZawIvjt9Dgq7zd34xZgfBNnBukACn55TMv1yyb4vy4+PcP6UvvUjW3nqH9PcMmCypCnYjS0oRQ9uDyouDF+TS0EUZmxzXZYP5ckEu4vzK+BWVz1QWNwkuw4KY6lbqEDka10mcUxG7rBDkXADXCcjomckT8sXBD+W9j1+VT758V4bHLkiCkXT5LW8FFovPalSZk5cVR/Om6t1j7NJw6fgi2wQeK+XhgvtKfR4iVugdwBcoj4JwQqOdBielUlnS6bTO2RXRSbisMdmXlD3ffCW//O0v5Lcfvi4XCxcg/GPoNlynDuWPP1PwZMQmovDDQQcqlNC9SjkZHL4iF86dl9zkpN44DEHbphO42A240DuKYswQgpLmEDjmoZI1BPcSorZKVnqkN7FIFvYul4X9y2Aa9CKY2dNUtqbSeUSLnlb0pBw7fVjf3ExlU/p1Ii6EKaQKcnn8kowVxiwh1bY4dPDS54ovPveh7BYhw7TKOV9+ceKsfLDrHfn5a38vew/tkpEJWPxlPvyc1I9fpJJ2awnCnYf9u4X5Lq6xQu8yTBCrYulEtoQhbIm71UGhj/MNvGxRLoyeU4X+f/6bfyn7z3yNYe+gzmeye7CbWfMgPlnQmGF/goLnlAuV+aGDBxEi3CnQVVVqa32nB/BSs6YBzfdeMlvw2411GqhfhfOrwoLwhzf/ChRkWrKJPulJLpCVi26V7duelHSin1dANplBm5wxTG6ghis5Gc0NyYeffgCL/ALkE8oc+ShxD5eespy+ekrODZ6BXE7yJQmTQzfXouJJRc6tLfgdU75jkYM6H5a3P39N/uOv/0Y+2fs7GS8PSaqvLD39nLox055Wum74hczYA03mysBzJc1pjHYQK/QZgBoy6G38S7q9nPFHq5sWeikJtZ3iyttxuZK7JIfPHpJ/+w8/k1+983M5eGU/fGkRsXdzSSMIQ2nJ45z9iSsH4HeZ0y1nzsrEODdQUk1gCBx2H+xgYSKcG2N6aFCf1NwhBU8VDnXoebHRoah1//2kpGGhL+pbKWtvvhMKnWvDuekW9y73ZFAlKGdUmpTxyREZnrgquTJGe+DFh/l8n4Lfxj195YRcGbuiMSsYGVbBHExChY+CGycAR+RU8Yi8f+wt+ds3fybvf/Gm7DuxWy4Mn5bJyqhUuNtcCnE4T4OU+Sk62+hrRgX2hkOs0GcMZl84K4MKXV9GSlCpw6rxlHoumZNhWDD7Tu+Vt7/8rfzj2/9JXvnil/LNyAHYOVeh3Eckl5hAn4TFnuIguSyXoMzPnz8vIyMjutzRdfIYNw5MhVOt4lctCJzo9JxIX3aBrF52i9y84jbJJHq9Tm6TLIzlXm6jhZ7LjcvZ86dkosApv7xNCeLGkExzT8W8nLlyWq6M8IPNCE9RUx4YbcLooGwOyxX5dmSffHD0HXn1418ofbTvXTkxeEhGijaVmIMlXkHkCkYQuv6GD3Eh95Lwvhcwa0De+c8ieAivfrneESv0GQHUuG9VBYFuAWHmjozFVFHfKC1koNSzsHT6JuTw5UPy1q43VKn/dudr8vnRT+TYpSMyXLgqhSSHs9zKFMPg0xgGnzsrxWJRN0wKjFZjzDJ0hVELNBMg1ypn76xUksUDS+W2m+6Qpb0rYJvzQboBOdFfEte8cBX5+MSYfHP4oIzlRjEIzKllnkymJJVJSTldkstjl/Q7uXxBzuJiXFm+LGdGTso35/bL7iOfy3tfviWvffxLefPz38iXxz+RC/mTMpa4LKWeMf0E3mQpr19EshXmICrxBDeF4XJdWvqzAyt59ddhNtpqtjA3FTorVevVKr8xtYPuaT2Xcjg3zp9wguNg1nmA+Od0vq7Xgq2l32QsyMXhs/Lq+7+S//c//Sv51Qf/RT479rEcHTsk5+UkLKJLcvDiHjk9clwK6QkMkyfAiZ2CjIyC+WgVfhyvmrwcen8OPAqTh6hLSviJohjR8Kum2p61beo1EFA9InBW5leDSrJk8VK59abbVGVrB6dBDEqDUhXbUpdftRVcv5oblP2H98kkt8rlni1cB45I/IZoOp2REqxrPus5fPWAnKoclqOFg7L7zKfy9levyX9+69/Lv/vVz+TtT16Xw2dwUygMCTfyryT5YB8GSIJ7s+T0LegCXD5HMmmiYucXjGpHl7ziE7x9Uj+rA0eEc6vwAivPqcmeJkT5E9HXmlOLiOoPAcKv705FYaRufnJh0zdFr8kbVX6aU6fdXv4YdiqKQlTVNQ7tqpu/FsYLqcrcO1Q/kHrYmX5/kl7ogVwxMFYYkZMXj8m+o3vk6+N75NTwcRnvGZIPvnpXTg0elRKs+3wFCp1v2oG38iMjdVt7U5S5ZHrfXtwnX5/4QoZGB30WvE24l0Q0jst8DYLcgvD8o6IAlkaDizOIbstzd/mZinFHjvgOA9vv/rUP6tuifOmH4VjD9qiTR/RJqnWdyWYlC+IDdBspMjDCQVlT0hLJDNq2IkNyWffsf/OTN6SUzalBYTeAMhRwUQpFroLh6qySnB86I3uPfSnvf/mmfHLgI50fPz14TEa4D0tiEnJS0Af+SciivvGvgszjBG4MzBdzqBnRX5Mlm/NnntSPXqQIWDW7AFYvwXOjqhMF7WW87ifmZUOPA4TELKdVUjATkaT/3QX4tsQzFE7bb84BguC7zcgCeW4zsMidUmMw5WbkfglnlVfBhvD+4K3E6xiOlmHh8IWOYnZSRpNX5czECdlzZpe8tfs38h/f/GtY6LtlJHFFN//igy3dytd13A5RE1VZ4U9vEt4Vddx5kKZAw3aLEQWtHVaTO9GDoCyay192Xrqm0nHkBeG2uSnuQ06Z4F3Z8eFxGWHpIval0Sty/NJxKaUKiMvJEIM+PEV47prOJYznR87K3jNfyBendsr+i1/J8dFv5GLxjIykBiWXHpVCalJllrLrVK3LGw2NJBS9vf2sCSMvuA3hBlWBwcGQrogum9FknP2yNiLtBw2IUJc8cKgeOA4Fq03XEeM1QrNrHcDrJ/V5qKUozE2FHkNFRJduwbRh4+Xyebly5YocO3ZMxsagyAtQ+qAU17hrjBjXBMEbVSOaIVTbXaXFOrp6NkhTrUk+WIexAEPgwuUzcvLMcYHuV3/jE4iN0zKsdb7rMDoyIsPDw3pcLBZRLLO+dYRi0ToH4s9cLVVhaYRTwjm9wnSdIlbocxSUKb4Byg7F/uI6D+dIS/AjsVPxpSXtqDGuCcJ6IJJmSKlXbVX7NVha1M+qox1U8YL0eQ1Xjo/KeSj0cxdPw2jn1IpZz4xiBMXPF5UIxNMykFTWTBaNeNY5XHqzAq8IwfZw50G6nhEr9BmGWkw1PWtqMDQVOS0htcThUoGrMucxiGy5vMzeDgzwR4LNh4dhaAZryTLtu8bd82tIXQATaq+q5iGi6pZEOJcIVlbQvwqdMguy4DMUPm+BjT5auCJXhs/L0PhlKVa4hNAMB0dkTbnj3vtpLmNEXB7zvQrfMq+GjobLomazSbgYXUOs0GcctHV8qW4ZKv5q/niWkJ4mbI0wnzABFVrqnhWlqSAJI3dMt0pTwzqdxa2SZV1z0IAI53aIYBp6fCMjql5ZL1H+jcFq5I6Kum2KRqUqpy1ekHNXjsvlkbNSTuUl3YOLIaODstaTyary5oQ6v1rE/Yj8dlKGDsFjB/oFiYgKF6ObiBX6DKNeN02trVTs8RPsCoR/rgfVK6qsp2bbAI6r4+e5Nfyqac0OZju9uYJAO2j9u3qA6ytQ57YABOW6clXqJHjpA08o9ONnDsmZi8dlsjSqSxbpS841BBkzUwJgfvw8ecQ8KdE/CoGwSjFmGrFCv2ZwPSSaTPwbX/MegTUgwrndQJh/mGLMRWBcpn+qxCE0JL5pPCrDcuzUtzqHnitNSJEfSIF/jOsfsUK/JohSit2m2ca1SDNGc7BNzCZXqYBC5ys/3Gzr/OXTMjIxqOvHE/w0f6vPeTAatD/j7s7sb74AJXEFDCA4DRkk+5kbuL4VutaoHkxB04XZy+3CpVzNSVXwg3Tt4Q2t3RDanTs/H+GcB6kRPD5B0uCe60fntQCC1/R6jM7AEZ1NpxA5/O07flCuFsagyNOSSWSlN90n/MpWsL41fES9+woMZM9m/FO7rr+htrzOYOXxeioLpE6zvxlCsHIjCL++6yjpHphNl7qNqDTqyA+n5WpC+Jk2KKRVqk8jSLX5NE8OaQPHvn9t2CB1HcrXO/bgSsSs+WrcKXW46lOj1BuBjINEOJcwno3JwR2HrgdZRSCq/qZD8wGsOfvaVfW7n9xw6/MDX8m5sUEpJ1KSLmelMllRhc4HoI68llfDXY13yACrhX5sC6siDeGT+uk1/mjIOYtwewfJB4vh/fF/NhGVr0iywD5d/xa6c5uRBfLcdlErtFMT4VwDUzZyf0E/g3M7RjgLbcEpbhx6HdEfgcOdmm2wFEFyCMd2545zkIhGfjHaAydbCrDJJ0ETUOWTMpQbkjNXz8sI91ZBiGQJyr7Cl9P4Cn50zQePnCKxvkWPAKlTG/N6hClKr1C+w58waXCFizGr8PLBdB3Fc+izDZX1YBMEyJlDnVANr5lCOB1HMeYi2DL5Sl6/lMXPzA2XBuX42SMyMTkqpRK/Y1vWr8Al0lDm7ehgMA62viP7mSdAWagvfXjnQfLBY6Wg57VBrNCvBdSIQeM3VcrTpW5jKp4zkWaM6cG+aZvkblk4Hpy4JPu/3SP54iTOy9b707DNM6m5PkMSo0XECn0Ow97Gq2JGVDUY2nSLTbu4P/X1/KpwOYiiGLMPa6dGqKD9OAWSEfvIxZXJC7LvyB7JFcchW7jCifUM4kOpl91znQB87vD352xJ9CPqmt3LC/xjibg2iBX6HAY7j77cAdKO5O3fgv+uwHVYv+PyF7xVkfvKnH52debhpRejRbi6cvVWS/r92Qy/KZqUIfydGzkFK53fDS3Ah2vTy5IrF2Q8P6EKnbKl2yyS8K9b8MIt5POSm8xJIVcw2eNl91yfriNPNhkkxrVBrNDnKNgx+Fo/X/PnhwboFr09XOynHuxInXUmTwEgsinxKsxvtjH7Kc59WMvW14y1XRTROs+XuRFXQS7COj995bhMlEdwf+Yn6PjAtCTFBD/yDGWOKIzlAxp6YhyKHvG5AVw2k9G9XJgNVeq1oT3Aj4wsqzGuAWKFPgdh/QG/nHJRCx0Nxc+CsUOh0/hdyes4dJRcf/IoxnxEew2bSqapruXcpbNy9My3UPBQ0gnbu5wPRYuw0rnXi6GWt035Uf4SalCY/NXDQgEqhCaU7eVy5uDyxiJ2P08oq/5bmQkd5VxDxAq9Cdg0s9E8mgYEwU/LO+AX/imE2WyPrFixXNatWwdryetUCBMUUGcYuVe8fV4xrnuEn6W0joSk0cW5xuXshTNy7OwRKST4ZX9Y6KrIK1IiYRgWNgBold+5YYOsWrVKp164+2etssIxT2uIfh7NIegok+SddwtWVP7ovw+beqrSbOKGUOjWoPY5roRWMPecA1GocbGUSMJSycBNmTKEvzUDqyd4b+cXWfIgWDiwbroCzRt+SmVJlfmCBz/MlZBMOS2ZQo8skqVy19JN8uzGF+Snj/2J3Ny7XvpKiyVT7NU1xPxWpH4NRj8Bxq+227ccW8kfS6XbYyN+ssKycWUyy84OzjlWZCsJX9QPcgffqck+KxYkrw71TUSPmLJzHem1oL+5nDbgHHANIUyYfN5TkB+nAb/I/AbI5Kgx+WEdH58CZQ2Qlc/Ibsasbxzov3elUgZRCbN9SCadPkKnDpTxvOTkyvh5WOinZfjKoKTRluTJdmZ78y1SMNf0mM9UpUd6ZYnctPB2+fFzfyJPbfuBrF95t/RWBqQ0gbDMJP75wBU63p9LZ/QE+k1CZa81+WsFyhf5pQSqnOLYxqhe22mfxRUnpzzHbYzXDK4OIZ3IUgbEb6u6q/MCbACPpixX+G4zXeo2otJwhB+PEJDyBWGsQAL16/kQvBI6SBE1UIAQFBI9qtRNoVPZkzsu+p2UYoTOlOTe0QU77gqQV/SMJJQ5FXoG6WSQXqaUERlJyMZV98rvPfIn8hdP/Pfy7IYfyh89/ReyfslGSed6RfLIE24ECZQnAcuLX1KvJGGB8Wvq2vmbQ4sIRc4OmALhtgZP1k0JdcMbHa5glFACsdNQqTtqpMD1w791RCXC25RH8PNdR0jdiA1gdR7k79Ij/8h06eJakBxv34/hyBdULoPoeqT+et2R+Vk8ftKHn3SDOwVpepqXoOyQd5iowCGPKm9GTplTMVFkk5Bd3mjZNlTobGcq6Rql7jlmtNSSyjlU+pmhYzI8ckWy+tYobHZcMx52E08icCqd0W+N9qaWyOZ1D8l//ZN/LpuW7JCfbP0z+fEzfyL3rt8mPZV+5Ny+D5pKwpgArzLYUIQq+iCVcpgDweBRz1B/bBOoEi2Hqwc1OvSYhhnrKI3cp1BfqCHUWRF5KmkfzuAa28FUv7shsH9lIdRpdHIaQq0gmP8wVcGyh/2qCMdrFK4ThPmiaW4AoP7MgnINrNpdpcWsdHYiu9PbdzR5nY3E6nGEmHoNgkplqcfdAFQb0qXllEE6ySLEbxI2Rj4jOzY9Ki9852V54NbtsrS4RlaUb5HtG56QFx77sWxZv1Wy5R5khcLpWVs6lKZ1hPwx/y2DncSzZHhqleTVC2vDukRF68cjnkdQtb6qZJYrGLVKLgPescuZpoG0ybMuzZq2ClDAXxU03RA5vzoX4e28mpep/hjXz38dVVGhMqdbQ/CjP4ignKZggCTVQrc2dWFbAR965mVCjpw9JBcun8PduSzFCdzs0db2QQumSN44QkPTOt90x1Z5ZscLsn75PbJQlsuArJAta7bJd7c/L/fduQ03hT7cDCmzacmmeyC3nNRhyY2XyZ7rP+FStwkvvvFmS4Aop1oB7gpUNerLJxfaJazhLU4KROuc7rTy5UMzonBHVZ9rA0rfvId2NdQ07+xJvTtjaEmhxB07DWWYrRSgHCcxHMvDjx2IYRmP4mEctJNXsqA+UA+IFkAXoAkgTylYhchXptwnK3puls233i8/fOJHct+GB2TRwqVSwVgx2ZOWVUtvku33PiZPPfxdue/2B6S3tEDShV6jYp9SqpyFZLWQP0ofw6E8UobFj7QTuEkkS1nUUVrrKIP6SNEy0o5aJVrxvLHZaMY79/ynIioTuynSrSX94HXIrTlGmzi/IAXD+ude2Jb5sWzeMZWShUOecRyM25xYD/V+teegQFqOqIq0zku4wSNJyqZZp5DfMkcbuIHLAvDHaMAEpyn40HMYf8dPH5PLgxelhHbMF0yhU4mTbwrtn0F7L5Al8sCGR+Tx+5+U+9ZvkhXJxdKvNn1SlkGx3wur/bs7XpK7b31AlvasUTlN4iaQ4cNSZEXVKHhpHvUD0FS/ZjV2DPC12JRRyjRIVRbriksv0V8lJ2n03zTKlq7wfBwjjjFcw0gBdWy1xF8qeY46acCx/qcP42E3WR8oL8+DNJu4IRQ6a9WUOoWYytwUOjsNFVamDIVegUKv5Ex5IbzZZnZ3NxYchlNQPYXOc73SBahFlpRSsSIDmcWy6Zat8v3vvCTf2fy4LO9bjStpNTTp9sJmunXBOtmx5VF56qFn5Y7Vd0sPlToVuUfJEjsVb0Bg63eoBrnVMGBe6YXSoELvhTLPSqqURv2wjlBSTpSGlJRTRvR3FPT3wwX8HVUVXFXJOzIF6rlNjuk6or+LH6TgdXWbHJtbmyfn55eVLsvThFz5XFn9uJpHO67yrA1n87xVhc56T9EPLa9TObzpUipbETyIVEmKcvbKGbl45YKM5+wjFpxy1EYHE6fQexML5J5b75Ontn0fSn2brIQKXwBJy0Le+EerfEX6Fnn47qfkiW0/kA1r7pUF6cUiBeYv2FeQR8hepewUuonXdEHu3GZMDQ/UBg0tTg86hZ6iQufySripxASICj0PokJ3OWAsVGHSU+hm5k8PYKFtEW4QngcodHVGMQ2Fbne9Ks09WEWiQtFxyokiGrPgNSZ8oUSh3lXx6YNIdh50plQpI2kIZQpCmaTFgXDkYw8JISL+1EyjMk9dFzU1hgZPwvpKFjPSU4ayXna7PLr1SfnBd16UvsRC6JQswnLpmY0XKM5U7EsXrJT7tzwo33v2BVm2eBUsJSpjKP4SrRkSwqNMZQqUEry8JB1QXDV+KAUFVEKRD5ZwwgdLVCOWSy09DlmPAXJ/jfzdH/w0bjt/wfDh4yhenp+fVz2r+tfxCB4Hz6nw3J/vT78Aqfw0IZ+HO/ZI+YX89K96znzbg3uTTTYOp5h0fISmKLKN4KvtRrCoPuBJmQxQoVKUb499KxNFWK18IxTxU2nIGngmwIRWf0+yV1ZCfl549kW5e+1GmAuLkCrlB8wLINxcaHGnoUwHZLE8teU52b7pCcjpesgrZK6Y1tGcPV+g0QP5AW9G11wh2WpGazI8JbR2UG/ss6VkSUppEBRyEYRsaT2gxjQse6neoLjZGIwRjsLdNCtBB16oR/QLUHs5uX6QuvnJhf/CO24DVklBWMNNjc6XYHUCNJt2Wg4+uQqEVhL8oLgSSU+TsZUhfTrPxmFtIQMh5bcU0xB+CEaKD1ogVBoUHYtxUQScmsrDSS05v4iy0g8O15RzWRhfHCoWi7CQ+iWT75Et67bKC0+8LE8//Bzso+VIgy8UwTLxFDpTpSDyiCXKZBOy/GZYU0v75fyVizI4PCL5Ej8mXdShNYX6gfUPybbbH5Z0AjcGzj9rxsAAIC92Fu7Hd+DSAdlzYo9cHhn0w5W1vnAzhCJwfxareqw3i+C55/rhtGfXU6M/VXOI49Rd+NjxC/7BM9JPw/MPbsv8cBNUKzYY1/OzpXvNCb/mBoh8zA2EU/7V6wQfOHLnQ/xaM0HWysmk5BBGUlnZeMeDsvHWh2ExQ74Q3mvGKiiUgQuj5RH5xbv/KMeuHJF8cQzXYcmmE9LTk5Ey5ISGwfrbNsgfvPSncvfy+2RRYqna5ZBO3D3AhMYBLWOEZLdJJDlC7JdVq26SbG9aRkeGZejqoN4kEikaHLCbEY5l4tYC9Rms80C4ej8DakX7LogWVxouhi2cMtFlluy/MDyMrL9R3it5VEKeYxq7cZGPclNeNFZszr2xQdY+yEn7vJ3WI+Ja43JPDyxxm3AZ0WJ4RMxMBqcFCpU2KISgxOWGtHXQmBRUKu48FHehV1JQpmlQptAnWVjJPbBEMnyiDwXPcrHueVNQYUKNkUxMojB1PXCzJCp0El/W6En1yeb198tLT/1Utm3cgfQ5T0qLzZrHOFabymw5dn+uWuiVy4NXZWIyp37pdFZ6+xaALxQDhJ6rEUjwiMia1U0RKr1QLnLlJIKwQ/dBsfSjD/WpZZZxVK4SH8gqwd+noH/wOtxg3Gbkwgbd8HEUha8zv+FrrfCLChv2b0bN4/b6VOvvEUaGaYzIUjQouCy12A9h60MT9UBJpqWob32Og0LyFzipUKOWcAAaHRuV85fPy3h+FLKLmzNFCDJQyBfQNWilp2R8aELOHD+DFu+F3PVAgijzoGTWiJFM4NAf7LAPtvr9d2J0+PgP5a51W1ROOE2XSaNc2R4ofvBWowCBfTCTNbluDcxzigrcVl9REZcrWSmjjsqoowr6rBSQzzxuQtqfF6AOF2OEzY92oA9Q4dMggS7gKMeWNuoEkfGfZ0hs+z/WtFnLriKCFYLq0TvO1Kxm6s4UDeQHDcn1pykMH5cOLJGNG7bK7Ws3SRqdKlXhfDGnVqgKYS8hb3nEykNw9h/5UvYd/lLyyQkpZvJSSBVgtCR0WoLzm1l0GLrRiBJey4sdVlSZsy7YAe5aulF+vP2P5Dt3PCELBxbjMlR1EgKp1lEV7KdcAc9hd16uyhU5JfuPfSm/ee+X8u2pgzKSgxWWTYFnRibGRzAk7pH/9rl/Lv/sqX+OGBB8JK85QxPQZUtwQF+khX7xoOw+tRcW15D0JKjQIfhJLoME4UYWBuO64jhoy8Iv3MLOv1V4o2SLgmO67lidEC/H37vsw/l3wo83fu+yj/B5NKA8yD0QmOfUb7XJUMmYa2ETakCkypwugHJiBLROAaOk8cQkZFPkgXXbZdsa3vD5yQqLqqALKuGOzFf1aSRMTk7KZ6d2yv/zy38p5yonoNgKuLEXIeswSvJ5iAkffGelL7NQ1q66U15+7g9g/d8ny2QFbunWL4QGDZueFnKqqP1DZQ9pcGnsUOGy7Pl2l7zz6Rty+uoJGSsNSS4xJoUijQubJAzC+n6gYoDG+sCrHzQO+yakEZSSO9c/KHeu2yaJEvovboA6XcmlkjKJfoNRLz/Ygbr79vjn8u2JXSjCBCivN7Qyaq7MZ0XgZ8Yde9T0ofy0HK5BDH7JcC1cypnSg/NcoRuyMKn7CklZu3yt/OgHfyrPPfRjDCoXonk5X1gtCZt3BCpzREblH975G/nHV/9GJhJDUu7NwaDPqTIvUKGDXw+f8NNUjwTrIVwXOKfmgDJ3e7QMDKAzrb1Nnt34vPze1n8ii/Kr0WHywkUqaeSOIsdOrWsa0DeYHFQ2QhTkSvmU7D3yibz54Sty6OReGS1exQ0HgTJQ6LhZ5CcmpA9C/8+e+x+h0P8HxKpX6KoUaJZzv+xMWXDrAucKQi7ENYopOi5Ss8F0bYvzOHhOuPOwf6dgHp3rjolO022HX30XbAfhFBxq/VTx1/iZEmfLVKBWqcb4+eYJWOWcFluIlulnOzq4qB6bPBQ1R2apdFLOn7sgv/j0P8sr+/5RLmfOgiPXm1OhV6QwnpNeLjmkQVPkKK8Phs698vQjz8mWtQ/KiuwtOorgijDlneazpwkcUCp6pYCOUuT7CsjqJPrK+/vekk/2fyBHzu2Tq/mzkC8o/yKVebVsPNI6tX89019zAP8gAIvPB8Np3Ih4s3vx2X8qL27/Z8jJQvQLGB64bg9AxyC9adRSjxo9r370M3n17Z9JKT0spcyElGCQlSoDUOgD6IaUZ8bh7akb4A2b+a+WV0uDU1eqOr2H86gSTxeUnhCYTDMinHt9gNWcL6P7JCmQHFbyLp2pLQUCUTgwIJYF6DboFmhuWiWc40SJoQX50NRZ5jRamgPc8a8jVrj2IIbTJLCKUotkcXqFbFi2UZ7e9AN5aevv49ayBkyRaqYfKWMoid/q7CrgHcBeg+iel6+Pfya//eBV+eyrj+Xy0CUMx/kSSUWKhQKsM1glJeS9AqsE5UZXsMg4thczAg3Pt0RwnaMC3jp60ElYMxwb0A5kZ2eNkNIBSoGSIeKSOltWF6T+JkTl1JgSCENKglIB4vnU6TqqplflR0VQJZ4HKQGKyk80BcsTpKi8DASIeYZyqSGmDdms9OAGzikRU6G0mLnShI/EaRAQVJecQgiOPnicyqI9YdUP5jB6O7JLipUJ6A6E9oYhGh3Kh7dqTiEWYbWPFIbki4OfyBsfvSK7j3yhOzPmMDIr8jkniLJrOTEllE3BoElmICs9slSWy1Obvy8Pb3xMblm8VvqKkBe+FAfoXDfjoCxc4sgpG75Ap6+X8s1m3hRwzDzZs4wwmJrZ0+wbXCrMRQt9SJf9NIsoGe2PWR1tU3p7tKYguVy8gKqo4Oam701wgQPC6wtKqD1y7RqYzcj8w9sjf3GCd87w7hlOFHUKv18bmLOpEB0mKlPToW6CAlnKpqSQhXRiqMlHO1RV2iksiF8sqr4+hGCj5zHULaUo+hApmMfpItQxLP1MkcI5dV1REJMZpJOywR3n7tIpWFnJxbJpzQPyk0f/WH56/5+iU9yCq+DH/gqHC7K878kgHqxn1gf+maecXJR3v/2FvPr+38u+I59Lsrcs6R40I28Y7CxKiMlhMQiH8AJjZoDVCj9UcLUVcVDm/jAJWmoczNuNjkEJF47nQWod5NCIKH7NqDa85dpRqwjGcWS8a/kFiWWs/Wuv1MY7SPVpuDJS4hxxLMa2wHVc4qwLfflUg5Y5FxCqLMOP8oGxnNqYFEVOFff0cp12SUbK5+T82DdyfvgwrnNMR0knAYifgkzS0CimYLJkoFj7S1Lsy8m+U1/JG5++Ku/vfQej1BEtsT4b1fxyDTz5kw/fLLbZdp4tlSW6+uW7D35P7lpxj6RyGSkVMBKA8qRMqkLn1AgySqXOiRtKMkJA3r18AY36PufN+cZygS8xgQ/NsV7w5e2Uos97WDpBZY6ejRtEH/hyKaOWD9dKWq+cWkV9wp+9KzwdNC2AL3Md1F/20Lv6xyq0kbH9MXU9Z9V2ESiug+NMtxldf6DA6yv+fBLPBzZoXBadjUClWdYuol1DMvDM4hot2SKsCF3pgRhcwsj161kwylAwm7aE1RX5F2Apl8CLMxtFvpFfyMhdazbJ84++JA/f/ig6wxp0DK6vtcZ1epdpUqXzO5D50jh4FOQqLPN3DvxaPvzqdTl+4QC6xCj0MBh7wwXaTyydZ4wZH86Fs+vZCYqIFFTpaxB1uJSLMV0njSqZRg8Q4802dTdda59G18J+bBcjKtQgBa9VKRy/XXL1zLZgm1AlsbPSL5wGPdm0BMZncnHktJy4ckAmE4P6HEQtYioYDQcXTGm9cl65kOR0W0FKPUWZSI4h3lHZuf8Dee/rt+UyjIcJ8Mth9FfkcEBzQmiqmjfmiXlZgDHmg3fukBcee1nuvmWTZBMY7UABZ9KwmVMYFSNRW5JpmbUaRky10E3JNYLexHDHIvE9Eq7yyaJDpRFP6wVROb5MgX8WFkwWfZktw+WN7PccGeu2DAirW1zwXZMm6XWGen70cRS20LXEvp+5QZhv+2B7xJgCFAR1265hiA1lFveKbLFHVmRWwjLfIs/t+IE8eM92Wd63EmJNW4uWuN1SCHYbG+CyI8LKTuflQuGMfLDnHXn3w3fkyBF+F3JSH6yy6W3JpU2lUKh1+SUfamHobpsX4YIrhPZmuJ5G0Dg4pCC4Durc+U3s5u1QVJwwz8bEOu2UwrzY6jQ6OHnIaQe1en3ZLMrZy2fk21OHJQ8jwB5OehdrFIqRQmWCo8ceyeXG5fjJg/LRp2/KZ/vflauFs3pTKCRgmGgMGkNmgDhQnEiLsqtk0x075JntL8nGW7bKqp41CMkPbEC9IuNcQ85pGA4PUlzNAxnVbSHI189MNMIKT0cxcwVeVphDR1EI+7tzV7Sa6zwJl7kFsDZjtID2lbnXGTFu5nTN4uwS2XzLvfL97c/Lo1sel1Wpm6BIubkQVXpelTl1LMEOS+IcdhqCO5S7LLuPfyavffiKHDy6X0ZGMBz2Gpvridn4TEv1NohWjFSo0O3BGm8YTuis84KYGInh4ThSPqDZARJvSjOFIP9gelWiEqwn1k2EH6LMJlGB8zlOGu0HPWva1AN3bzlz8RQU+hHIFZ+rQKFTVhooB6p4nZYr0oBIw5Isysj4RTlyYo+8v/N1OXjsCxnKX4YOJifKUi0oMzqq0wnrrCzJ3CqPbP6ePPPgC3LXTZulP70Io1SOganMQcw8YnF7Cs6Hm0KfApp95t8R0tO/uYNw7YbPZwst1GYrcFVrIl89n1vQXHk1bTm0DmnwLjgn2CI1wsThET3rES65vlZd6ZNFycWyYfVd8tS2Z+T7Dz0vA0kKuX0phq9Wcwc8G4JWQWXB2ey8jMsXBz+VX737j7L3yG4pVHK6QoYrZQoFWPecQmG+8F9Nn+UiPwzAS8MyWrmEoSeG3rD0VRMETXJCi0UeHs04mAbzpwk3IRemWwjyDB9PRQwbDo9zTmfU+M0CXEM7barzDjnI05BczJ2VkxdPyPmhixjZMYfIk9euOrwPty9PodEpR4U8eFTykkhxtdO4fHN8r7z5wW9kz+FdupqFybG0nsT5YBaySRofWYwcMrJcVsp3tzwvOzY9JjctvlWXF0oJmeETVn046R0zZo1Cd1xDeSRc/r3TaDiBNtSe3RjokkInwtU3t6pTcwNpoBvMmYlIlUxoAsdKOAtQ7TUjXtApEFjUPGcaaVrJYwnZAsv8hcdelCceeAri3qNvhvYm+FSew1d2EHYRzpgXcMRHXZzj4/LEcXkXQ99fv/1f5KvDn0shNYkrGPpCmbMD8s3FKHBVQ5IvYiD+noM75e1PX5EJdPZigkodcWwDDgPyWi5jaF6qkpRg9ikhX47UjOuUGB/8fMK5KkK4TQlhdP4Xxz7xPNAYLZHjA/JV0lSEeDXkEPJTgcJxDTn/LpOC/Lm9MadBxnGjHoXVOyQ5tG9eRmTnnvflm1OHJLUAynVBL9rZjxiJJOTVPqRCOebLZTkpViBn4D8pY3LwxNfyzqe/lY8Ovq/LJ1l7XBZIQk58UJz4/Ikua497Dj2y5Ul55jvfl43r75X+1ELRZTO8y6gBYyurqgj2J5z5x0acg+aKLUKtc065gDxHq8eOzXavXvcu3iAIvPrvSj2d0jOuI6KeV916zAZoNVwr0EeFEJ6lA8vk3vUP6FCQD1HsGoXQhs9qLVRwBOfzI5/ILlAlxfW7DOcNr0F6pCf8qYLixr3Ny1CARVBvpV/uXbdVfvrsH8hDG3fI0tRyXUub0Z3jKNT6CFPLauqcc55UxAXYQ4Py3u435Xe73pbD5w/Cyr4qyR4Oe9mlHDyB9V0Dj3oyfEMUlny+KGNjo7DUJ2TVLatxxbYy4FRMifOi/CBGEulyKMwHwCDnGsHGo58ufaPbHUrQrVOiYWKa4XSj/NqgMP+a87A/XUfh83b8ukHgy2V+Opedx98EpGQCx1DqoFG5Iu999aZ8+OXv5OjFozJaHtMpDpUXKEMfEA7KnHfouyTui24jOxA8KCVcIFXEjZQfki6k8rJq+UqoY25FQdufD9GNmxKSUcIJR5+cUly8bLEsXDwgV4eGZHh4SAO6b+Rq7lykAEyU9ccDcsVgpZRsXfug3A/StzO4DAjBXGyNwRsA2nnPqS9l78kvtf/yRs5rjhT+QRfQgFeUd1ivuTN1cS0cp109mHjgf7/Zqw9GbC9yEPUJu2oON1ZrabRbkGbgLnBc7nT7TXfKnzzz38iLW/9QBYI5Yypc8a2zgwjHLWxLsGD/1Zv/t/zrN/4vKWfyuj2oPgRDBJIqdNX99XmkMif6+vvlnpWb5eUdvy+Pb35GlmaWaXrsArrpF/IDTWnVA4fr3XP44xeHruQuyq4DO+Wdna/L4bOHZCQ/COMG1jXCFUvsSI3rhldo/XCvapabN5D+dL+sXn6z3HvPVulNL9D0WR+8PfAhWvhNUNa9L1qccwesPRqn2xDaWUlV6M2xZVZR6babF5eHAGl0HkcjWv5C6Wr0kJ8iyq8bsPzqRlV6s7UVG9whNF+clAOH98vJ8yfl8sRVGU8UJJlOSoabcWmsalld2VwO+aINH8vrw3XIpO6aSBlNZCSb6dOHpb09/XLr4nXyve0vyIN37ZCFyeWIw8lCTrKQB340Cfwgb7DzcdPhA/+CXC1fkt2HPpf3P3tbzg6ekNEiRhQV3IhKkGkvYjV3lr+gaqO8F6HROXXz50/+pfz543+JcnPRIkqGYJRextcYHLmiD/3tx38lf/fhX0kJ/ZejQpat2n9BCBxMc1pAGWpLYKiWoIqwXOkZovq+WvYqouWwMRJbfYVOILLXgduBpYmM1ER1bGsL2moG2y1IM8yYQlfugJdXDl/zhYIsWLBANmzYIN+//0X53t0vyarELeh8bHKmwxlHy5MUSTwB8RkmOtW53En5AiODX7//czl4eo+MlQZtPTJHq0jQ1ixYFw3DGTpc2MX9P7i3RpKdH8NoezsVowJ9uYqFYCcGQRnwSIe2Fl3r3kpU7Vjq2mEHIGfH3aBV5jLcCCqL4USj/KZCMH24vvZxfvWol78GeanrL1Hhpg/XJsyWPqDktBluxBm0W8D4xEgAACy9SURBVIYWqJckl8lO4HwS/kRvJuuNMAnzc2XzosDlqJCvz4MP5IavKvM1+kQqIxnE56igWMrrS0Nb1z4gLzz2I7l73YMykFwNaYacoQ7YL5S/fjmLFnpSJsHPWymPMcSQfLL/Q/nswEdy6OzXcn7itC7F5RsflGZGt9xZPwrm0Cl07oL650/+d6rQ7eUvuz6vFLoHv41C4adC6qYnAlMumqf2GBCWJhqhJqo7oVsly+DU1GY5moIiw5UfSzjlsu4BufumzUiB0x0G2qqq5ChaaGmdcjkannKpJVaWszR5zgegPYlenWa5e80mWDLPy8ubfl/6k8skle+VSlpDayqMwXrQJ/yURr6vAd1+NXlOPtz3nvzmg1/JvmN7dB8ZvvJdgkBSIduIAHEaVY6XF/blXB4WGoa1yTTUNZR6vpxHWTg7b/P0JVhwJU618MUpTqvo3LpRJQ0GdHWu3XPJBy55tEfgr3FrqcqvGbkwwbiN/COI00hwlbwyGbljuo0IFRnpH6YwH5dGmJpdm5pYHi5rYX2W1Y9TMHBBuiOm91ehsKYgI2x7HkJWVNIpGB58ZcEfZEvfJIXQmC/nuFF4hsE/P4pBxavLa6EsR0aHZXD4qmR7+2Tl8puEW3rR4lB59qe1KKWccGHaNJ34AY0FcuvK26Dei3Jl8JIMXb0EPYsRBvJpxg76BlfKsEiaE/LDid4Q7Dr3uNmKGwmnXexdEssxgWLYGcrB+th76kvZc/JLq6eZnnIhIvpklI/6aVgj2963ljQU61Nd83HXpiIo9EVQ6Dhhjahn+7CyINm66J3xMzCuZqopWrmDqUhDeYbn0BmTRIWuWhB+UQrdqWJn2PF1ZVoz7DAE580T+aT0VQaU/0uP/lSe2/IiP7ULsePuc4gNoWcssmB+KKI0uXW5V5ZbbZ2V1w78XH77yW9k//E9Mlke107MuEnunKi7JbKOER4cGsK7xG1SOfRlZ+SDVM28dhBHXmE8VI8AdgrWh7q8pj/qdvTn8QuSl8yUZIgqLy82Jq1pZUDyHGVqp45njbEeIHYiHlbRqM7D/iFGIOWEYHSnJISjXNGtI3AjGU8cK3sX03zZsgzFfsFPG9pVLy5+LH4AHg+No4qcBBljWJqzSIRz69whlBnjevRLY5dlaHhEr61evQoKm3c/k2mTcY5ElQWu2AYSVOtck75y5UrJppMyfvWqDA8N6v2Dz0ltmgc8mB/G1cLxG6V8rsQ/9NhypqFCJ6wU/CnL3tNfqlLXPoTYZOxfB4xn96C8UcHBP1evVao6DlUZBzS+HmhbaWAcMEirhBpEJD/hmYDj3Q7NEFhiYDopVHNZ0U2wejAsTdM6h62yZf198vKTP5HtGx6VRcUVMG8QEmlqFSOOTexwSyDOl+cln4CljOHhxeJZ+c3+X8i7+9+QY1e/kcnUqBRTeZ1Xt85F4lTJFMrcgfG4ygW8y9ohaN3DekO6RlVx9qpElUOY7CJ+nGJUhdgpefxIbSMYuT0yheYI5SLhkpH52BuMAfLq2eaTHYXC+BTk56g2XZePcN6iqJVw1TJY/qnsTLYsRUKnF+ji3HyAWjZGCobgFCSJPPDnyYtZ3MaVI54c5HI0MSInB4/KZwc+lN/teVOG5BIkLKeSxakWrmdX8O7CZ0XGgv/SJ4tk24bt8uKjP5LNt92nm4BVyoiRyqI/9eEmZJMwrmRM325Tfmbr4JfPQ/A8fG3mgJTYHkHS1EMUEcbqnMfw4jEv+W57hDaP8m6VDOyvPDfrS73mN/T2iQqHIGYrfbKqd43ct3ab/ODRF2XLHVtlQf8iySVyUMrcPgB2htcwtGOoljmvyNUsJXSOi4Uz8uGe9+XdD9+Wo0ePysT4OKwhPpBCR2QyQdR5NEawhW6EJonROVqVD92TpcDX6zMyMTkmR858Ix/sfk8+PfihXJEL4MM9Ung74K2E84j8ZB5g3UVXsFag3Bf1rJCNtz8kT3/nJdlwy/2yJHszFDuUOW6c/EaprbZhrsCnzM890hrnyAFM9L/1fnBdIthx2+y83E2zakS1SfhVJkSU33xGGbfPQqEsC1KLZNMt98nzj7wkT97/rCzrWYl6gNKGMrdHQiU1UAgbmOoEEI7KcmXignx5/DN569PX5cCR/XL16qAUirCoUZGUXavPDuHJ/I3RGjGmC8rJVLLC/Vio0FNFjDJLBRmcuCjfnN6v8vvViV1yGUqdc+1mbXIKxeI5WYSuBg9Y76UeKPVbZPum78rjD/5Abr95s61T5zdKEY6LFNQq5yKFSg9cbgxGU8j+DM6dnwhOTbYD3kpvCLD5HRHhcwXqL3i9FlUf/RJKIS2ZfJ/csnS9PLb1afn+wy9iMLkCtkSfbkzELwkxDh9D0hqnAjdw77eKjBeHZNf+j+U3v/u5HDq5TyaL41Is2tufxSLDE8hQB43qYrQfM0YMr1dwvO+7BI/xX4KRks9LqZSTUiIvk5VR+frwV/LqO7+Uzw58LENQ63zorrJH7ULyWNDJptBvEtwOuFeWykp5avP3ZPvGx2TN0nWw/GGll7LoX9wSgDcEqnf0NW6dq7FjiZ4KN4xC9wGZoGh4MlYP77oPnPMNNT6N11Oc96ahsIt9smXdA/L8Ey/Lk/oN0MW4yif73Oy0B+qbc+VU5ja7SUWuKwV0he6EfPzle/LWztdk34ndMpS/gqgIhzT40NMe9HrWSBvTLDFitAaTr8ZkoKz7RIMZf6kUbGV9WAp5hkLn165KqZx8c3K/vPvJm/LJvg/0pSdOmegupxqvCoozZ9iTXHwCl7s0PrrlKXkKfeiuWzehHy2QnuSA8GtKFc6/0zLng1rA8sJcMGaQawyHG0eho/1rxdXgnzeSDwSwb4BCWaftG6C96X65b8MD8qNn/kAe3PSILsriWhLHzdLhox2+U8eHPKxoJlCU4dJlefXjX8jvPn9bvsVwdSh/SRI9XI6GYSYi1ujv4HGMmUNX6vl6UzImpXWkRXDnDjajzYtJfdoKLc23VinzcBP8Gj+U+tmrJ6DQP5R39/1W59RzUOz58oTkOI2o8QPw2HBly4AskQfu3i7PPfZDuf2We4Tf+y3mkWYJphDC8a1r5sGzc3hkBzHqoNt6u9HVvAbLCceNIJ2A+YLWoPy0CPL5gn7eixI1sHAAQneHvPD4y/LgHTtkae8K/QAFV65wosTNl9MK4b7NfJeOH42gjXG1ckk+2vO+Lk3cd2q3XJ24hFh84Uej+GjWFFqGKWjet2WXofVG+XBk3m0gGAPHs1L/musAzTy48qXMb4um2BfKkoYJzgeZNFmyMHjGiyNy6NzX8vbnv5GdX78pQ5OnpJLm60UYq6ryBtElIPNcmsjHnVz2uDS9Qu5Zv1Uefeg5WXfLJhnoW4krKcTL69JbW51lMBbRZXbLmGevVuYWfFUy3wvvGjjY0MHjZiiVijq33ZPNytrbbpPHtj8hT237rqzO3qrfZOSQkEu1nFInqMDVMlcNn5DB4mXZ/c3n8sbOV1XoLxcuSDGdl1QGlgjHkpoTTxPAcYIZhJ9vXGpKDGNBY8wqUOuo/5mHLwkhmllQofPbnEVY41Sr/OALST9egfS5mdyF3BnZf2qXvLPz13Lw6GcyMokRKNeZszMEs8mN4hIlyeBitsLd3bOyKL1aHtz8hDzxyA/k9nWbpL9vIYLz5SNvuS36iXfkMamivgZwpv3KDmtR5zFvUGMbUhnMa3DxLsBfR/wNNy9XoejsHUyBbDkrC5NLZUnyJrlj2SZ5cvNz8uL9P8Eg8WYo3bR+Uk6/ko4Y+qYe/rQaPabc0OhS6ZT8bu878vO3/lG+PrpXShiipntguff0SCbDjwXY3LlpA0dEtUHCeewGHE+6zWhGMF3GoUwGa05rzfNrhGD09hGM7TjAbZZg2wjzD6OR/1SYTiYRVx9W8iFlUuw7uVTtUObFvORLeejQkuQqk1DqX8urH/1Kdh3+VMZkWGPzIxeqcXQRPfNh6qcHx73gyY/IrZBV8vw9L8qTW5+RDSvvlCWJxdKf6JckbhymzF3Ja8tfnVf3rsLR+fZI0iDXD4JFm4JqFDpRY+k1oNlAdEN0Ru7zT7oXCo/xZ6rXCUigRiBc/OOXfyhoC1MDsrC8TLbc9LD8+Dt/LD/a+oeyWLhrISoCtUdFzEVW3P9O5xRBOiQsiM4h8rNxr+/7lfz6k/8ie45/KROVccmXYctjqKqdQpdm2S3E3jTjsXswamDOHIL1H8h1PXllboXw05Si4vBvOlAOUXxbIG1IujWkTH1y1dRUXL2LjNI6XOhAYqSmCSEE8lhHEBSlqGs1BGkN+UWDmZiKCOfWQ0sTSsNPl28164dTeiHjGSlB9qmki7DcdQGAe/MZOr/QW5SvL+yX1z9/Xd7e+6ZcEU4viuSRtD5v0hUshPUZWur8NDs3lR7A0dP3PCvPP/yCbF69WdLjKbCEmZ9KSjrLCUyucSdcHrn4gNMynNdnz7Y8c7uMXC6nff56ALOp9awlMLjzVv/qFPp8hTYy/yBQrrp8PzsFcNGTM74BuiDTB8uhV7as2yo/fOyn8vAdj8IyX4Eg3BgIcT1eVMbVt9v4rhyEFOb9UP6ivLHnV/L+gTfl+NARyaUmMGTl6gDEghI3a4cbD/CVZ4tdS1VoWgGvap6nD6uHxkQ410edRxsIMm9GUfD8g7UURYQOyBrxAfSSC9wu6hJ0iTVJMIhgsGDD1qANfj7CGYuiTkGZhWKFUq9A5u1bn7i/oqJJzCnfXmVxChiFjmcm5OTQcdm5/0N56+vX5aKck3H86ca/fMtIQZcK3g6ZOx72Q60/tGG7vPToj2TTbfdKX2qBFPIlmcxxD0feBJzq8uKrMqfr6gv5oTJsQHMa4ezxvEXiM+sav3mLluQYjZ2ngFBcM7KoZ6lsuPUu+d5T35Pt9z8oKxet1Lt9sZIzEfJ48h7ABzsUMQ5CuTzxUvGMfLT3fXn3o3fk2LFjailkMhlJceMkIFzXSLnlBnDBnJKP0gcME6QY0dC6YR16x0FqHeHQ7cWeGsFcdZt390HjpAJNzy8Y5fOTcvL0Ifno07dl59fvyCC/UZqAUk5ymy6WhRY/px0BT451JI0OtjC7XO65/WF55pEX5Z6198mKAe4bw09AuzoI1oc3slUKQEe6Lsz8xw2zykWbfqoyQlnzTU0O1foy/bLu5tvlyR1PyWNbH5XV2VUQJX4UTr8nDqp9A5Tq3JR5Ecr8rHx++GN57YNfy8Ej+2VoaEh56pSKzpV3Dl+U2W7ecR1cewZoyrLfwHCy4UjrrCMoJzvsOhzvmUxj+tDc4YcfvOI+Lvwa1ujEZTl2ap+89/Frsv/wLij1S2bVa89hBHNcvdt21Ri58o3S7BrZcc8z8uTDz8rGtZtkcf9SBLeeZhHpMqprOB55x/bv+d8YmJ52uc7hNbuBB8mEZPv4LfWE3LxijTz24DPy3IM/kEX443COVjStjkyCip1i5e3kpqCCz+u68o+/+p38/K3/JHsOfyH58iSEGjZ7oaA3i7Lu1FgvYnruLoQvAs4reCnKT+GydINjesq5U8x6gh3CVU47RDg3GpzOoLxzB1Ja5/oRixSMpOSkHD65T9743Suy+9BnMuF9o1RhQ9sa9PCN0mQPTKgeneZ86vZnoNi/I7cuuxVWetpbm05BN2E3yzyYzxsTN6RC12YPKz2VDfxAEHl9y933yVMPflf4bUQ+kuHCRPs4BW1xnlG901Lnw9AifMoyUR7SF4be/PAVOXR6ryT6wUuXbJmQ8aER0wgnrdAHooE/tearpNc94gcAVHydiz/180jDx1BE1nXX4er7eqn3TvM5dTzKn36jFB2MBLUuhfKEFCrjMlkelSNnD8oHX7wrHx16X4blqhfL2dm14A7QTJHXeqVPnt78tGxZt0X7X5pffNHWrVro/Lt+2mBmEFvoduiBAmIqoDfZLwtkqS5J5KtBug2omnxVc0KFVSYlJ2NypXxB3t35hnyy5305dfmo5FNjUskURL/HifBVzk3gMlSbKUXYKxgs6lqM2YZrEUdzFS5vgbwG55scBa/71BqoyPlGaYJbOPONUhBfSEovSOqHzo9fOiwf73lP3jv4pgzKZfQi9KMKFX+9WqfhRROKK1s4Uu6T/uqDP1XmYYV+Y6MLCr1eVYWfKLdPHqMZAAUkLKK+GKinBVArAEKUAqky58YUJM0bLWP8cYkWBOrS+Dn53e635a3P3pCDZ/fJWGlYkjQv/LrRSN0BK4d1xD+tqC7ybhOWC8vBTOXEK65P6hfhT78YnUHFHuRMFRJr1P6oMKGcUcGu70wFnYpMFnCQxxmXEaag1NGH0rCqM0kZLVyVb8/swWj2N7Jz/29lKH8SYXPoXnw1LwQmWOF3U9EfK71Q5mnNh+XP/TJYNed6hkP1u8FGq9NS6MEO5RD065Tw6zfUTECb3mNf39xOgDnNAoVehnVeokJHVXGpIWPAguGHljOljAyPDMreb7+U1z98RQ5ASK8Uzks+ye8qlvQNU1W60y1KIJNkpeQdWH1dI7iMBKmbiOBv9Wny4f7gocFjdA5fYZPoAZfKnB9ZsTr2EDhsCMShMk9ASduHMviuRlLysMBpGxVhpV/NnZUDxz+Tdz7+pRw4+qkM5y+o7vUVkp8O30ot4hw3g3IvWHO6k3kMdAqF+boj/QXDcKj5jqpCb6WhPOiILAh3TrcLxMeNkRc6pEZFcyEUeoCQngfX09rmQTwJEMBvFlJoh5KX5NNDO+WV934l+47us/WxSe4/IZLPV6RYQpfgSyEa3sjFpeuID1T1e4wQXFopRQxVSxhX2j6N/KiUt7+6vgJtpfGy4rthuBuWj0aV0AJcVLpBmitolL+m/o0qrgaRMQ1Rl9qhphnQAG2ipQIBjncwM+xxfHbEdyjAyRuJlvUD4iafScixbjDnCVY1ZiPiUyXvHQuw41vUOT4krcBq5/dVIctjhVHZd2KfvAJjaNfhz2Q8MKeuxeHNWw0prn3HnSAIv7g88E9aB3nPQ6RWPTbwL7QF2oQfxRvS8Dzs1ym0ifAzPS4BUKJAiweWyn3rHpB7bt4MoYWgeIlYOnYbsTOSe2quh1VvUCExKaNyRV7d/Ut5/YNX5eDx/VC4JSny6+Lc1yUJq97bwEJXKfLOoEqchFqiC4XNYz33OhOVeglhC2mKP5R5CTcjLv3iB46z6B4pnnP0YPnychcBa4lAlpuEbR11PFB/3eDbEGDeVgrBoL4wBg71OjjCDVyugwbz6rgejWIG/evj2oPqIIVQ4+V4TZnLEOr9Gj8gr/qr2QCZVKWuL7ylcVSBLJoRkoLMJWGc8IEn39akvtfoDQk/IPaFCvsBOxDP+Q4GLrlRFjsHly8Ojo3IyPiYSI/ITStWiPu4tHYefXYF14H8ear9xuqHoaudlCjJ7lO79KMbNJA0O/B1RKhK8I6b4XpbYJCk/RokK2ZrxN8wGvaDNmB8XfV3i2qhepWunSr8vDuXGXGBAjIzhr9Xd70i73z+phw5e0QmCjkpF1F7hYwkcj0gDA0LfRh1ZuFCwRcgzI4QLlGAuNYQRBIuPzQN8xyKHFZNKQVDhh/LWCCpRBbpgj/Sjqrz2QLTdjQraDUhr42C+XNRfdfVXct16LiEqRMwg84N03QwHV7hclGhm1EDCVVFproMxP0U+VAyXc5KqpiRdGkq6pF0sR9hF8DtxTniwj9TSsMlWZhUBXKdysoo+s/xcyfk0692yvt73hGaSzrNQnCU7EbKdXDlJrWJSH7XPxL3/m83TaNoXkXCoRD46KB+iSAPHtmZJ1jTAfdKAa2/aYP82VP/VH6y7Q9hccAOoMXr3elpnVhY5gKKlUM8aoFqRgw4HiuPyueHPpHjF47K+PiE5o8doFyCNaNf6OfgFBZOmQ+GIJg6nWLQThNZIMSHdx7D0QIoASspzc+hw5LZe+wz2XPsU9gdeaQRId11/KxM3URUnqOKUSMH3YCya8yzetnC+IcovvkY3M26FYtLQ4TiT41gfYdjOhmO4ujFUzl0cMdBv1pUN3NrjlbKy1Uj/BalhlRrOAm7oiw5zoMnU3L/uoeVsnymhLA1WW0T+qEYJEQrnYtaMtleyU0WJQPlvqRvqdyy/FbZcvt9SKnfFDm7DtNj5hxp0fleiPWFWgudlJd/+/G/kb9+/9+gHBO0WnEVIwwtp7FTYtAp0Er9zQQ6TXeaCt2BAtuFgoOFUwj6i5yR7bR5BxT6fwWF/mMo9BQUura0muqsAk+hM2UN7yl0grLiwMtwdKvcSkmHobY+3fZatC0AGI/iRmk0y4fn5iqLEDjoTSN0Uufh+V0jhiEfft3oP7z9V/IfXv+ZTFRGpJzmXjDVGwQryKonyNXS6yZaaQPLRtdVemNEpeXqA8UPXosVemPo8yKVeYaF7CUg26Acp2GSvfJH3/1L+aOH/1IGpBd/FSjbxvmaGq4z2c4rKXBkz7Hex12R7KGnepi+roIXtNjw5LSld9GkwJWTqjsvf02F/t6/1gewN5JCD6qqeQ1regOrikJgVRasuMCxBaq97IFeGVRdX4I7v3F7fxNEDCxVHC0a/XjOvZ759mkvfPqUpI54nbvHJHDEHee4+j2LY74n1weBTEkpATWva9rNkvIJBasj+MeoAlUyC5jNWu9uWpQoPsAsQc50S1woSybBl3dSKuMLII1LEaIPBMsZ0tk5cd8WO+anGpmQ+7JXmitY8mgtp8hVwENUgzoPD4iMEQBHATpfX/VSms+4QRQ6rIGiLSFMYwipc9JpWNWwcngjNOVeVcR2d9QLtcA55cGRWRUGd242eZU6kR9nezEu81NM5mU8MSbFjFPqUwARw1lvD4wdpusMyDLrT+t/1rLfrbpyPBy/MHUXXEWlW+GqQqfcmgDRkNAPonO+G+GqyoJH0yFXDnBlgq7TEPr+BkBTmodR0TSI9Vj+hS74MB/coMBbFTlovit1VtO8BxvQ7YleUMVe8K4QQSEIHLvDWhlRTCUPvO7CBI9bQVB2DbgZJYqST+ag2AtqPfFaM+oOus9x1nFdZz9Y/42oW+Dzmyrp6itPam35LsefQWURlZdWycE7dh1ErR/vQKcUQXR1tAD/OhZBXkFY3tUy57/yNPhHVa95hxtCodMMT8IiH5sY121sVRRco4Yal6fN2ptxncJ1ypfC7hMi61wdjhmmkdjVgxJd0vDkwZWKGXjphI6+kVqdiY8Ro5tQBQjFqS8RQXmWYa2rnEEZcm//ZCLny/N0YTJspFBhp6CDtPPQM9Cr+JCWk901EVvLCctl4W8caPXNe6D9U+m0jI1PSC7PN8+AIu7+gbt3S3ACFY5GPrqJM451nTiSJOHUUXMwIl+TnsQh8hUwUKjQ+ZhV54ZaFOQYMdqBvQ8BhZ7kA3eKN9WCTlaA+Kh+EjI4qeeEinmHRA4kHvO1JfenylcJGXCy7ryC1Cpc377BusyNodAB/TAFRGgwNyTn8xekkMlLSTcPYsPTCuBnrewliHZlxxdClUPn6gVFkJ87DpIFZh5olXjx2TLITlE4oihLFlZ6usTVCI65I8K53UDnvKwstWVrRN1B9zgF0e59visIVs6spw/1mvD2XlHXjRRTkuLSWZzwGwBctUXFy2vTp+BYM3w1gOCpf8wKsltE9UbAozx6y7BclnMyWhlWHy5YCHFUPo2ruMrP0DjkXMQNotATaqHnykX59ODn8truN2RUJvDHfd5gH3BYp1YxxAxCrM2JnzqCv7MyakCJccQaDUhQMGxdPAcqaS6jLPHrLWCAUxtpcgkjLKNEUfpKKckWodQRVu8ZPuGnZTDsVBQNzkW2SviZkvA7fSgr8gpyq+ajU1LGswZX56F2mCILUfnulFT4oci590qCa88hdXzVPwWZ40tBkkhBnTvZb1WhM1wjsm0E2FWocE3puphAVNm9S3aRndVZ9rzJaOeFMh+XK1Dmr+z9B/ni8KeIwzdgOW2Df4ycWVYadvY8DX41VK2PWmp2rUpzBalVjw/8C+94GqCS8Wu8c4CFu586bu0rrSiAazKtD0THJ8bl6viQ5CC8t6y5VRcGck1vGhqUU9VFKE+1RnQukQ+J6Nrab84xljwyUaLNUiX6hcn8m/9x3W+CE+9ECiMJFJe2Bq1zbs275/Tnsv/gbnBDGORJjXStoSb1EnnJxWmFOkMrbaUhEK7zVOrRkowgSKv5Y+66lz/wUmaNOFqKVSLgusNpoJXy6jJF7zV/W68NgmWeLGYgjn1y94Z75c5bNyM7VL18KE/Zdn+UcLPeq6RvaTShYNggH4/Yv0C2fBIu8mb7HhXQ9+xNDSOvrzIOaEguyVsHX5UPD74rZy6dlmKJr/2rRtY8E1ob/AnXS4N6at5uVUxfR9WiU37z/MUiK1qFyxOTKcnnMZSElbuwd6GsW327PLj5YelPDvivJFOICinbT4UvIikpBwqXx4s/zJP91CAqn63cvfk8KIv+lIJbTPItvYQUU0Wp9JQllxyXvYd2yVeHPoOAFiSbsc/gGerTI0zx628IDB8dpznIaepyEK20lYZAuE5y0ggtyQiCtJo/5q57+QMvZdYqR6+uPZmbDlopr86hq0HhKXO4KYwWk+UsDJ0+2bjhAaUUN8kqQTkiqC/WmsdwPqP8GsFquxaoL7NaPNcUspvrN+WOm4qmbWH4N1EZla+P75YzQ6dkcmJSSmUoej6T8uJrSoyiB8ZX4fEx1Obb6o/UHC3JXxvolN8NoNApBBa/zGEXNxoCd77GQwHlG3LJMs4hFEUINV+7p1tV6OThDTbBxlVWVJ7oF/Sm0Lei0LmahQo9jXyUwIBKXXdbzJilzrn+UhIWSS4vC7N9Oppw9eTVVA2QU3jrbwgMWx9+apDT1OUgWmkrDcG60rPuoCUZQZBW88fcdS9/Ti5a5ejVdY2i6Qwt1Qvzpe2BP29XRe64yBd+dB16JYs+0qMyqR93hkKtlYco+YjyC4N5C+ev6mfKnHniL3nBcoexZUodBB8qdl1aybAarSLpLIwelIdbcfD9E1aBkvIB+OOFVU8fwWOD1Z8GborW6rl1dMpv3r/6r3Nc2lDgDEWZgqXOT8LpnJqTS88qKSEZWuclTmNT0YNUK2ujmwB52YvMk/kF/ZGGRtKfhqAizyBxWuhuLTDzUE5BuavwIm/oaOViQfrTGE0wS/yrS8+g5UWc+lSjw08Nx6l5OYhW2kpDIFwnOWmElmQEQVrNn9avnXYBbCtzW0ML9d0iq6blBXu7CoWIUSwtFrVkKbRe0jYHDX/0hUo6KQXIo8qkXQZ4VD0z4LxGUTaBp7RrYX7O8iY/C+EpcpBbYslUGIYKnTehUqEsvT29kkqldN+jIvpMKuWNtJktusbe83D5jM5voz4WRkvy1wY65Te/FbqWzB9sqUK3c/x5CZhIeKQCAq3KNGkFqyVMeBa6HjcA47STTybnHVIYU2XeQKp5g2xqqjpjyU6FMQWXkKV0npN3IsY3DuF0NaczotDDiEihhTrQEAjXSU4aoaW6R5BW88fcdS9/4KXM2uHYqM4d2MbeYRM0Ky91Ga/SpUI33aY+IMiPM2YoS6pAdVW6urVgRI0cQJRfGC6tIDw/Jou0XP6ZIhU4hgpeXmzmnAH9vqrEWC4eejO/EYxj5aI8Af74Hi6Pzq2F8dHATdGsnjtBp/zCLTPPQAVpzaEVpAqTTWeuKk00aBlDSVrmvOvzIYw9+FFVGjjWHcqVgn7+NQ5V2yEXD8QcMS+cbmFe9KMXOqzl8rEylH0CVnxKuIyMZbAYJCeEzp0paA2GKMbMIqrOHXUPqq8hP0luNEd1rfJJP6SDf86t63RfahJuDn6QSSj6KkGOa85Bnmxb/2lGXrhwfPL0ruucvndufYb+RnqOAtT4afWgAIjD4XG3Fe1cx3VhoU8HelfX/Nl5LYKeDEei0BB2x/f9vTu5/XoxQzw7qQPjR0WdxjHS89cCwwrRj+ayRnpwPQuXoanseSOo1lRdqtZL/bxWwZDt5zEa5B6RQgt1oCEQrls5IVqqe0tYD5uBIbiLZvfyB14tpt0avLpvgV2zevFEGoZCUTJSVAVZgZxVcKamBsSxhEDlZB5UQPgUDOQMXL6v4eBkICALyjhw3hTIH4ekPtwx619tdDtT0xMmTMBC5x+jOuuca32tzwb5GdQHWVKXP76Hy2d0fq3+NHBTdNL3m6FTflpNcxm4yXZG+ocGVyqCCiC+jckXdXK46xdg+RYlXSpLRgliDOKKE8iMEmTGCAwTfAOUxGMSOKnenAY58BbCjZGKkFp7MMvP0KETpXKQ0Ul0pkm4Oe1UFGSC0Y2FlbTqgzO7ECMMrR78TEFzaV3xTILKUHUpp/FgSKRkApT3LWJKuX7+EHJpe7xYPFrwdUR/R1HXm1GTuGp1k9Am7HduFY5ec2G8a2bwkG5csD78auiU+GtKpXtQbipsHRJ+anNkd3z+heHCmUj4DODgih88eK27xF9T6zY6cBYHLSKux7GHQya0YVTzXiWiPqilUh9yOnA824OfxxZofiGqhJ1Qd0EVWYKclRKw0zlPDs3KKUDXp1X+KIue9Wu93ftjOPSTcA6D6rUxRYQhLxUrnKnV46XDP82TJgh/2u7IT41VrhEbQ+MbxypcnGbxLVZjIpx7bZHY/L+unnZOVE1qXdRWSDeGIca2Uz5e0SAYbHK6KiMeVJWa9NSCgYL+ehgSA81TRNwQpqwDXDbB1hwCbv6cqan4wuE1J7SGajms7oOp6KWgRw1qL3TeRsHaaB/hPDcEAnaawzpomq1xa3XKpfX661opAMgF2XWJJQ0JftKZLqf/9G1pJKByiTR0ikOvew8cVR4dGskB/KfKX1NBdXLN614aLihddIDalOHp91kNYIcKrx8FUNNseuy41XJtDcxrOIVodN7fWkNXFDrBjNZmtfVCNgVYhDm3D6hL5dM9zJUGJDpOg22mUWc+j7XwFNIUsKxNv/WDaLWuuq/QuwtNtotJzyV5dtCUQum1nj7DubBUcVU1p1fCfPS0Nlw7MH4hnhGY6foL3mrnJlC/Otyaxp+yIR/8TIuUk8GdB/2uFeZCHq4XsNVcu0WRA5rXyDuPEeN6wNxX6ITrbR0SlS8PQt5tk/bwIMLn1wrIR82NZ67kay5CGxM/UVQDygv9vdMYMa4DXB8KPUaMGDHaBu/GTe7IbpZEZ0Hmx507VugxYsSYk1B1jJFTcMTpn9eNqJohKqxyD9D8QKzQY8SIcd1hahU8hbL2rfIwXd+IFXqMGDFizBPECj1GjBgx5glihd4m6gZmbc3lzTHoXKQeTEHXBi7lcG6iqDuI5hROyxHh3Bgx6iUkTIRzZwZz/8WirsBeLOoGfDZ15Y1Gq3VwTerKlaGFtLubv6CAN0e9XDVAq+FaBF8smgoMca3aV9l1l2VLuHblrefXaRqM5Tb7ml20rhM7LVtsobeJ2RaBGYUbXbhVA43IAnnu7IMpN6NrhWudfozrDTMvMbFCjxEjRox5glihx4gRI8Y8QazQY8SIEWOeIFboMWLEiDFPECv0GDFixJgnmFGF7vZdaJvitQMxrhdAVCGyU5MXPMa1h2qYedogM6jQWWMdEp0YMa4DmPnR/C8W6JlBpDHYAs3n5uiqQneiG6ROgar3jrqD+o9QdQ7Hy3Koryl0geYw/E7An2bUDrpXZpdyODdR1CraCTsVHK9gPrpBkZ6d0g2JcB+cLrWKqAYIEuHc9pDY9L+sahqz87exEM/+O0R9zE7z0mnlhOHSd7lwZx1nKwDjPXU+O6+DaQBpaqotpN1a/rrTHkEw2ZZqxpWlS2i1PRiutaAthPOqr7vl4I8ddwPt1EunmG7cmtg4UZ+OWDp57pZcUwZay0g43IxNuUzfwmb8IE0HLPT0yXJhH89Vt+6jtJ3SHActdOc2Iwvkuc0QVQfTIQNTbkbXDF42o/IUplbCBYocYxqoqVP98dx2qesN4jNuGzO7ygV5iur3LZHHIkaMuQwaLpTVRuTg5LrGM8b0UKMwWqAbADO7ymUafzFiXBegqEYpD5IDDz2/gG+MaUKrtQ0Kton/gHSeYWYt9BgxYsS4DuAr/escsUKPESPGDQFV2iHL3D/33DBdb4gVeowYMW54ONWtSt+j6xGxQo8RI0aMeYJYoceIESPGPEGyZowRJsK5MWJMBc45qrw4AWpE1wYu5XBuoqg76B6nIK7Dqd0YHSEokVFEONeQ2Pg/r6z1CaHTN5ami7o3uXDW7TTaBpJ3udJf1ByzNP18RTdOFK5Ve7QEpKmptpB2d/PHepu67gim21LKrYZrBWDkc5uCaSv1whDkN3XI1qHJdpNhi7hW8hzFL+zHs5bS1SCty2D3ABkI5S+20GN0D850VEu9CVkgz519MOVm1HUEmYYTC1KMGG2hXnDiOfQYMWLEmCeIFXqMGDFiNEBwAFVvD889dKbQuSlVkK7F5FuMGDFizCBUgVdCLxrRtctVzCEt375Cj9phUAsUK/UYMWLcAAgp+QgVf83Q4ZRLWHk7pR4jRowY8whQ2EEyBW7qztFc0n3X1Rx6zV2xHZrhGo9Msy3yGMWIEWNOwSntIIWBHjxn+vB1pNDD1doG0ZkhsCGnS/jVvxgxYlw7RBlbUagLM4e6bnOF7h541jwAnT2wnsLUKVD13lF3oNy86pkudTdn1wH8TsCfZtQOWJndgUs5nJsouhaYsXTDhZsO3ZAIdexpU6uoVnzinv9pRaD665nYm0hTM7dgU7dkS29eRUDfi7P/DlEfs9O8BKEcpslHP2oHFtPPTRVRZetGebsC5ENz0kJ+Wstz9zUIk22ptlxZpkBL5WCarYRDcRmqa+nOADTZLibdajmmU96ouFFWelQ4+tX44sTprPbh0mxfriMsdOYgTNce07ewGT9I3UE3Bi3dy811AtdJ1FJvQhbIc5shLK/TJQNTbkYxYgRRIxtOQIKerVJABtvFdfVQlIWN6vctkcei61Denf0FYfkM+8aIEWPWUKMwPIpCs2vXGNfXKpdp/M0oyL4Dqs2XdzZHBSVGjPkOr1vWUBT8a4G+6j8gvcYIKPTOzXwfwYens/wANUaMGDHmCnylP8uAQqfidcp3OkrY8Qnwi5V6jBgx5ilUaYcsc//cc8M00wgo9Fj5xogRI0Y34FS3Kn2PZgNdnEMPZt3LfgvLGGPEiBEjRnfQ3YeiVOBBijGnELdIjBjzG20q9ClUAi83I8K5MWYf12BOb1pg/jSL/GlGNyaiaiJIhHNj3BgIKfRm8+nNRMRTEFP9uTCeMmlGMWYH16ruo9KtIz8c3WaEnxsMNfXUhPBT5xdFcx1ReZ4OzU+I/P/UHX42rpNf1gAAAABJRU5ErkJggg==;fontSize=10;" vertex="1" parent="1">
          <mxGeometry x="-571.1999999999999" y="-1578" width="74.4" height="74" as="geometry" />
        </mxCell>
        <mxCell id="l8oODgaaZ8KUfELMcPoU-6" value="Amazon EKS" style="sketch=0;outlineConnect=0;fontColor=#232F3E;gradientColor=none;strokeColor=#ffffff;fillColor=#232F3E;dashed=0;verticalLabelPosition=middle;verticalAlign=bottom;align=center;html=1;whiteSpace=wrap;fontSize=10;fontStyle=1;spacing=3;shape=mxgraph.aws4.productIcon;prIcon=mxgraph.aws4.eks;labelBackgroundColor=#FFFFFF;" vertex="1" parent="1">
          <mxGeometry x="-576.8" y="-1900" width="80" height="100" as="geometry" />
        </mxCell>
        <mxCell id="l8oODgaaZ8KUfELMcPoU-31" value="" style="endArrow=none;dashed=1;html=1;rounded=0;entryX=0.005;entryY=0.63;entryDx=0;entryDy=0;entryPerimeter=0;exitX=0.995;exitY=0.63;exitDx=0;exitDy=0;exitPerimeter=0;" edge="1" parent="1" source="l8oODgaaZ8KUfELMcPoU-13" target="l8oODgaaZ8KUfELMcPoU-16">
          <mxGeometry width="50" height="50" relative="1" as="geometry">
            <mxPoint x="-744" y="-1540" as="sourcePoint" />
            <mxPoint x="-694" y="-1590" as="targetPoint" />
          </mxGeometry>
        </mxCell>
        <mxCell id="l8oODgaaZ8KUfELMcPoU-32" value="" style="endArrow=none;dashed=1;html=1;rounded=0;entryX=0.005;entryY=0.63;entryDx=0;entryDy=0;entryPerimeter=0;exitX=0.995;exitY=0.63;exitDx=0;exitDy=0;exitPerimeter=0;" edge="1" parent="1">
          <mxGeometry width="50" height="50" relative="1" as="geometry">
            <mxPoint x="-402" y="-1696" as="sourcePoint" />
            <mxPoint x="-295" y="-1696" as="targetPoint" />
          </mxGeometry>
        </mxCell>
        <mxCell id="l8oODgaaZ8KUfELMcPoU-33" value="" style="endArrow=none;dashed=1;html=1;rounded=0;entryX=0.005;entryY=0.63;entryDx=0;entryDy=0;entryPerimeter=0;exitX=0.995;exitY=0.63;exitDx=0;exitDy=0;exitPerimeter=0;" edge="1" parent="1">
          <mxGeometry width="50" height="50" relative="1" as="geometry">
            <mxPoint x="-780" y="-1696" as="sourcePoint" />
            <mxPoint x="-673" y="-1696" as="targetPoint" />
          </mxGeometry>
        </mxCell>
        <mxCell id="l8oODgaaZ8KUfELMcPoU-35" value="" style="endArrow=none;dashed=1;html=1;rounded=0;" edge="1" parent="1">
          <mxGeometry width="50" height="50" relative="1" as="geometry">
            <mxPoint x="-501" y="-1590" as="sourcePoint" />
            <mxPoint x="-471" y="-1650" as="targetPoint" />
          </mxGeometry>
        </mxCell>
        <mxCell id="l8oODgaaZ8KUfELMcPoU-37" value="" style="endArrow=none;dashed=1;html=1;rounded=0;" edge="1" parent="1">
          <mxGeometry width="50" height="50" relative="1" as="geometry">
            <mxPoint x="-594" y="-1650" as="sourcePoint" />
            <mxPoint x="-564" y="-1590" as="targetPoint" />
          </mxGeometry>
        </mxCell>
      </root>
    </mxGraphModel>
  </diagram>
</mxfile>
